<svg xmlns="http://www.w3.org/2000/svg" viewBox="0 0 232.15 118.83"><defs><style>.cls-1{fill:#6d3544;}</style></defs><g id="Шар_2" data-name="Шар 2"><g id="Шар_3" data-name="Шар 3"><g id="experience"><path class="cls-1" d="M139,16.68H107.49v2H139v14H107.49v2H139v14H93.15V2.71H139v14ZM91.19.75V50.51H141V.75Z"/><path class="cls-1" d="M93.9,47.81h44.35V35.33H106.74V31.87h31.51V19.39H106.74V15.93h31.51V3.46H93.9V47.81Zm45.85,1.5H92.4V2h47.35V17.43H108.24v.46h31.51V33.37H108.24v.46h31.51V49.31Zm-47.81.45H140.2V1.5H91.94Zm49.77,1.5H90.44V0h51.27Z"/><polygon class="cls-1" points="0.28 69.87 21.02 69.87 21.02 71.87 2.45 71.87 2.45 83.33 19.15 83.33 19.15 85.33 2.45 85.33 2.45 97.03 21.23 97.03 21.23 99.03 0.28 99.03 0.28 69.87"/><path class="cls-1" d="M37.89,97c8.12,0,13.25-5.54,13.25-12.5v-.08c0-6.91-5.13-12.58-13.25-12.58H30.35V97Zm-9.7-27.16h9.7c9.16,0,15.49,6.29,15.49,14.5v.08c0,8.2-6.33,14.58-15.49,14.58h-9.7V69.87ZM.56,98.74H21V97.31H2.17V85h16.7V83.61H2.17v-12H20.74V70.15H.56Zm21,.57H0V69.59H21.3v2.56H2.73V83h16.7v2.57H2.73V96.75H21.51v2.56Z"/><path class="cls-1" d="M61.05,69.87h2.17V99H61.05V69.87ZM30.64,96.75h7.25c7.63,0,13-5,13-12.22v-.08c0-7.12-5.45-12.3-13-12.3H30.64Zm7.25.56H30.07V71.59h7.82c7.84,0,13.53,5.41,13.53,12.86v.08c0,7.52-5.56,12.78-13.53,12.78Zm-9.42,1.43h9.42c8.82,0,15.21-6,15.21-14.29v-.08c0-8.24-6.39-14.22-15.21-14.22H28.47Zm9.42.57h-10V69.59h10c9.14,0,15.78,6.22,15.78,14.78v.08c0,8.61-6.64,14.86-15.78,14.86Z"/><path class="cls-1" d="M82.33,86.16c5.42,0,9.08-2.83,9.08-7.17v-.08c0-4.62-3.58-7-8.83-7H74.34V86.16ZM72.17,69.87H82.75c6.42,0,10.83,3.29,10.83,8.92v.08c0,6.12-5.29,9.29-11.37,9.29H74.34V99H72.17V69.87ZM61.33,98.74h1.61V70.15H61.33Zm2.17.57H60.77V69.59H63.5Z"/><path class="cls-1" d="M112,85c4.87,0,8.5-2.46,8.5-6.66v-.09c0-3.91-3.09-6.37-8.37-6.37h-10V85ZM100,69.87h12.24c3.58,0,6.46,1.13,8.21,2.88a7.69,7.69,0,0,1,2.2,5.41v.08c0,4.88-3.62,7.67-8.53,8.33L123.74,99H121L111.7,87h-9.54V99H100V69.87Zm-25.38,16h7.72c5.26,0,8.79-2.77,8.79-6.89v-.08c0-4.23-3.19-6.76-8.55-6.76h-8Zm7.71.56H74.06V71.59h8.52c5.71,0,9.12,2.74,9.12,7.32V79c0,4.46-3.77,7.45-9.37,7.45Zm-9.88,12.3h1.61V87.87h8.15c5.52,0,11.09-2.78,11.09-9v-.08c0-5.33-4-8.63-10.55-8.63H72.46V98.74Zm2.17.57H71.89V69.59H82.75c6.75,0,11.11,3.61,11.11,9.2v.08c0,6.61-5.85,9.57-11.65,9.57H74.62V99.31Z"/><path class="cls-1" d="M130.11,69.87h20.74v2H132.28V83.33H149v2h-16.7V97h18.78v2H130.11ZM102.44,84.71H112c5,0,8.22-2.51,8.22-6.38v-.09c0-3.81-3-6.09-8.09-6.09h-9.68Zm9.55.56H101.88V71.59h10.24c5.33,0,8.65,2.55,8.65,6.65v.09c0,4.15-3.53,6.94-8.78,6.94Zm9.14,13.47h2l-9.57-12.38.49-.07c5.19-.7,8.29-3.71,8.29-8.05v-.08A7.4,7.4,0,0,0,120.25,73a11.19,11.19,0,0,0-8-2.8h-12V98.74h1.6V86.67h10Zm3.18.57h-3.46l-9.29-12.08h-9.12V99.31H99.72V69.59h12.52c3.52,0,6.5,1,8.41,3a8,8,0,0,1,2.29,5.61v.08c0,4.51-3.1,7.68-8.31,8.54Z"/><path class="cls-1" d="M156.14,94.78l1.42-1.63c3.21,3,6.16,4.34,10.45,4.34s7.37-2.46,7.37-5.79v-.09c0-3.08-1.62-4.87-8.24-6.2-7-1.42-9.83-3.79-9.83-8.21v-.08c0-4.33,4-7.66,9.37-7.66a14.52,14.52,0,0,1,10,3.54l-1.38,1.7a12.57,12.57,0,0,0-8.7-3.29c-4.29,0-7.12,2.46-7.12,5.5V77c0,3.09,1.58,5,8.49,6.38,6.75,1.37,9.58,3.79,9.58,8v.09c0,4.7-4,8-9.66,8a16.61,16.61,0,0,1-11.75-4.66Zm-25.75,4h20.39V97.31H132V85h16.69V83.61H132v-12h18.57V70.15H130.39V98.74Zm21,.57H129.83V69.59h21.3v2.56H132.56V83h16.7v2.57h-16.7V96.75h18.78Z"/><path class="cls-1" d="M182.38,94.78l1.42-1.63c3.21,3,6.16,4.34,10.46,4.34s7.37-2.46,7.37-5.79v-.09c0-3.08-1.63-4.87-8.25-6.2-7-1.42-9.83-3.79-9.83-8.21v-.08c0-4.33,4-7.66,9.37-7.66a14.52,14.52,0,0,1,10,3.54l-1.38,1.7a12.55,12.55,0,0,0-8.7-3.29c-4.29,0-7.12,2.46-7.12,5.5V77c0,3.09,1.58,5,8.49,6.38,6.75,1.37,9.58,3.79,9.58,8v.09c0,4.7-4,8-9.66,8a16.63,16.63,0,0,1-11.75-4.66Zm-25.84,0a16.25,16.25,0,0,0,11.35,4.41c5.52,0,9.38-3.15,9.38-7.67v-.08c0-4.11-2.8-6.43-9.35-7.77s-8.73-3-8.73-6.64v-.09c0-3.35,3.12-5.78,7.41-5.78a12.68,12.68,0,0,1,8.66,3.17l1-1.26a14.15,14.15,0,0,0-9.6-3.3c-5.18,0-9.09,3.17-9.09,7.38v.08c0,4.25,2.78,6.55,9.6,7.93,6.26,1.26,8.48,3,8.48,6.49v.08c0,3.52-3.22,6.07-7.66,6.07a14.38,14.38,0,0,1-10.43-4.21l-1,1.19Zm11.35,5A16.86,16.86,0,0,1,156,95l-.21-.19,1.79-2,.21.2C161.07,96,164,97.2,168,97.2s7.09-2.26,7.09-5.5v-.09c0-2.79-1.27-4.57-8-5.93C159.94,84.24,157,81.78,157,77.2v-.08c0-4.53,4.15-7.94,9.65-7.94a14.73,14.73,0,0,1,10.17,3.6l.22.18-1.73,2.15-.22-.19a12.24,12.24,0,0,0-8.52-3.22c-4,0-6.84,2.19-6.84,5.21V77c0,2.85,1.31,4.67,8.27,6.09s9.8,3.89,9.8,8.32v.08c0,4.85-4.09,8.23-9.94,8.23Z"/><path class="cls-1" d="M182.78,94.75a16.25,16.25,0,0,0,11.35,4.41c5.52,0,9.38-3.15,9.38-7.67v-.08c0-4.11-2.8-6.43-9.35-7.77s-8.72-3-8.72-6.64v-.09c0-3.35,3.11-5.78,7.4-5.78a12.68,12.68,0,0,1,8.66,3.17l1-1.26a14.15,14.15,0,0,0-9.6-3.3c-5.18,0-9.09,3.17-9.09,7.38v.08c0,4.25,2.79,6.55,9.61,7.93,6.25,1.26,8.47,3,8.47,6.49v.08c0,3.52-3.22,6.07-7.65,6.07a14.42,14.42,0,0,1-10.44-4.21Zm11.35,5A16.89,16.89,0,0,1,182.2,95L182,94.8l1.79-2,.21.2c3.32,3.06,6.2,4.25,10.27,4.25s7.09-2.26,7.09-5.5v-.09c0-2.79-1.28-4.57-8-5.93-7.14-1.44-10-3.9-10-8.48v-.08c0-4.53,4.15-7.94,9.65-7.94a14.73,14.73,0,0,1,10.17,3.6l.22.18-1.73,2.15-.22-.19a12.24,12.24,0,0,0-8.52-3.22c-4,0-6.84,2.19-6.84,5.21V77c0,2.85,1.32,4.67,8.27,6.09s9.8,3.89,9.8,8.32v.08c0,4.85-4.09,8.23-9.94,8.23Z"/><polygon class="cls-1" points="210.92 69.87 231.66 69.87 231.66 71.87 213.08 71.87 213.08 83.33 229.78 83.33 229.78 85.33 213.08 85.33 213.08 97.03 231.87 97.03 231.87 99.03 210.92 99.03 210.92 69.87"/><path class="cls-1" d="M211.2,98.74h20.38V97.31H212.8V85h16.7V83.61H212.8v-12h18.58V70.15H211.2V98.74Zm21,.57H210.64V69.59h21.3v2.56H213.36V83h16.7v2.57h-16.7V96.75h18.79v2.56Z"/><polygon class="cls-1" points="95.18 109.41 96.22 109.41 99.55 114.4 102.88 109.41 103.92 109.41 103.92 118.55 102.89 118.55 102.89 111.15 99.56 116.04 99.51 116.04 96.19 111.16 96.19 118.55 95.18 118.55 95.18 109.41 95.18 109.41"/><path class="cls-1" d="M106.5,109.41h6.61v.94h-5.57v3.12h5v.94h-5v3.2h5.63v.94H106.5v-9.14Zm-3.33,8.86h.47v-8.58H103l-3.48,5.21-3.48-5.21h-.61v8.58h.44v-8l3.64,5.33,3.63-5.35v8Zm1,.56h-1.59v-6.77l-2.9,4.26h-.29l-.14-.12-2.81-4.13v6.76H94.9v-9.7h1.47l3.18,4.76,3.18-4.76h1.47Z"/><path class="cls-1" d="M118.42,117.59A3.53,3.53,0,0,0,122.2,114v0a3.56,3.56,0,0,0-3.78-3.62h-2.14v7.23Zm-3.17-8.18h3.17a4.55,4.55,0,0,1,4.85,4.54v0a4.57,4.57,0,0,1-4.85,4.57h-3.17v-9.14Zm-8.46,8.86h6.1v-.38h-5.64v-3.76h5v-.38h-5v-3.68h5.58v-.38h-6v8.58Zm6.66.56h-7.23v-9.7h7.17v1.5h-5.57v2.56h5v1.5h-5v2.64h5.63v1.5Z"/><path class="cls-1" d="M125.54,109.41h1v9.14h-1Zm-9,7.9h1.86a3.33,3.33,0,1,0,0-6.66h-1.86Zm1.86.57H116v-7.8h2.43a3.85,3.85,0,0,1,4.06,3.9A3.81,3.81,0,0,1,118.42,117.88Zm-2.89.39h2.89a4.3,4.3,0,1,0,0-8.58h-2.89v8.58Zm2.89.56H115v-9.7h3.46a4.86,4.86,0,1,1,0,9.7Z"/><path class="cls-1" d="M125.82,118.27h.47v-8.58h-.47Zm1,.56h-1.59v-9.7h1.59Z"/><path class="cls-1" d="M135.17,115.21l-2.08-4.66L131,115.21Zm-2.54-5.86h1l4.16,9.2h-1.11l-1.07-2.42h-5l-1.08,2.42h-1.06Z"/><path class="cls-1" d="M131.44,114.93h3.3l-1.65-3.69Zm4.16.56h-5l2.53-5.63Zm1.23,2.78h.49l-3.91-8.64h-.6l-3.91,8.64h.44l1.08-2.42h5.34Zm1.36.56h-1.73l-1.07-2.42h-4.61l-1.08,2.42H128l4.41-9.77h1.33Z"/></g></g></g></svg>