<svg xmlns="http://www.w3.org/2000/svg" viewBox="0 0 694.45 903.49"><defs><style>.cls-1{fill:#96562c;}.cls-12,.cls-2{opacity:0.1;}.cls-12,.cls-14,.cls-2{isolation:isolate;}.cls-3{fill:#f2f2f2;}.cls-4{fill:#6d3544;}.cls-5{fill:#f2ccd6;}.cls-6{fill:#fdeff2;}.cls-7{fill:#febdca;}.cls-8{fill:#2f2e41;}.cls-9{opacity:0.15;}.cls-10{fill:#fe91a6;}.cls-11{fill:none;stroke:#381920;stroke-miterlimit:10;stroke-width:0.5px;}.cls-13{fill:#d38f62;}.cls-14{opacity:0.2;}</style></defs><g id="Шар_2" data-name="Шар 2"><g id="Шар_3" data-name="Шар 3"><g id="EDUCATION"><rect class="cls-1" x="480.56" y="126.98" width="89.83" height="77.83"/><rect class="cls-2" x="480.64" y="127.23" width="89.83" height="77.83"/><path class="cls-3" d="M617.42,643.1c38.47,0,69.77,30.23,69.77,67.39s-31.3,67.38-69.77,67.38H279.78V643.1Z"/><path class="cls-4" d="M276.67,771.65H623.44a60.65,60.65,0,0,0,0-121.29H276.67a5.19,5.19,0,0,1,0-10.37H623.44a71,71,0,0,1,0,142H276.67a5.19,5.19,0,0,1,0-10.37Z"/><path class="cls-5" d="M278.75,673.17a1,1,0,0,1,1-1H642.62a1,1,0,0,1,0,2.07H279.78A1,1,0,0,1,278.75,673.17Z"/><path class="cls-5" d="M278.75,698.05a1,1,0,0,1,1-1H642.62a1,1,0,0,1,0,2.07H279.78A1,1,0,0,1,278.75,698.05Z"/><path class="cls-5" d="M278.75,722.93a1,1,0,0,1,1-1H642.62a1,1,0,0,1,0,2.07H279.78A1,1,0,0,1,278.75,722.93Z"/><path class="cls-5" d="M278.75,747.81a1,1,0,0,1,1-1H642.62a1,1,0,0,1,0,2.07H279.78A1,1,0,0,1,278.75,747.81Z"/><path class="cls-3" d="M281.75,456.63c30-24.14,73.29-20.24,96.61,8.69s17.9,72.11-12.05,96.25L103.39,773.41,18.84,668.47Z"/><path class="cls-5" d="M97.07,770.52,367.09,553A60.64,60.64,0,1,0,291,458.51L21,676.07h0A5.18,5.18,0,1,1,14.46,668l270-217.57A71,71,0,0,1,373.59,561l-270,217.57a5.18,5.18,0,1,1-6.5-8.07Z"/><path class="cls-5" d="M38.35,692.69h0a1,1,0,0,1-1.3-1.62L319.58,463.43h0a1,1,0,1,1,1.3,1.62L38.35,692.69Z"/><path class="cls-5" d="M54,712.06a1,1,0,1,1-1.3-1.61L335.19,482.8a1,1,0,0,1,1.3,1.61L54,712.06Z"/><path class="cls-5" d="M69.57,731.44a1,1,0,0,1-1.3-1.62L350.8,502.17a1,1,0,0,1,1.45.16,1,1,0,0,1-.15,1.46L69.57,731.44Z"/><path class="cls-5" d="M85.18,750.81a1,1,0,0,1-1.46-.16,1,1,0,0,1,.16-1.45L366.41,521.55h0a1.05,1.05,0,0,1,1.46.16,1,1,0,0,1-.16,1.46L85.18,750.81Z"/><path class="cls-6" d="M0,782c0-.58.35-1,.78-1h576.7c.43,0,.78.46.78,1a.93.93,0,0,1-.78,1H.78A.93.93,0,0,1,0,782Z"/><path class="cls-7" d="M619.6,476.58h0l-3.47-21.1-67.2-7.33v33s24.94,129.21,26.29,138.17,4.28,77.43,2.11,98-6.08,92.37-12.83,99.2L555.2,829l14,8s25.45-9.82,26.85-10.23.88-29.93.88-29.93,15.63-61,18.49-80,9.9-53.63.68-98.37C612.08,596.72,619.6,476.58,619.6,476.58Z"/><path class="cls-2" d="M578.53,831.31s5.89-22.12-23.44-8.59a140,140,0,0,0-4,13.55c-2.42,9.44-26.3,51.06-6.55,49s43.61-8.4,48.34-16.44A83.14,83.14,0,0,0,624,857.55s-15.85-32.74-19.12-35.95-13.17-22.11-13.17-22.11l-9.66,34.06Z"/><path class="cls-8" d="M580.79,827.27s8-21.45-22.51-10.8a140.09,140.09,0,0,0-5.27,13.1c-3.31,9.16-31.09,48.29-11.24,48.18S586,873.58,591.47,866a83.18,83.18,0,0,0,32-8.26S610.89,823.65,608,820.14s-11-23.27-11-23.27l-12.89,33Z"/><g class="cls-9"><path class="cls-10" d="M154,114.78c40.08,15,64.39,49,64.39,49s-40.67,9.68-80.76-5.31c-22.48-8.42-40-22.81-51-33.83a10.44,10.44,0,0,1,6.71-17.88C108.82,105.71,131.48,106.36,154,114.78Z"/><path class="cls-10" d="M271,43.4a72.82,72.82,0,0,1,11.27-15.3c7.37-7.75,20.26-.74,17.76,9.66a73.26,73.26,0,0,1-6.72,17.77C282.2,76,262,86.52,262,86.52S259.89,63.87,271,43.4Z"/><path class="cls-10" d="M182.92,69.26C193.16,99.8,218.12,119,218.12,119s8.34-30.34-1.92-60.88C211.45,44,203.55,32.23,196.44,23.74A10.45,10.45,0,0,0,178,29.89C177.42,41,178.17,55.11,182.92,69.26Z"/></g><g class="cls-9"><path class="cls-11" d="M111.15,99.75c40.08,15,64.39,49,64.39,49s-40.67,9.68-80.76-5.31c-22.48-8.43-40-22.82-51-33.83a10.45,10.45,0,0,1,6.71-17.89C66,90.68,88.67,91.33,111.15,99.75Z"/><path class="cls-11" d="M238.84,24.82a72.82,72.82,0,0,1,11.27-15.3c7.37-7.75,20.26-.74,17.76,9.66A73.26,73.26,0,0,1,261.15,37c-11.13,20.47-31.31,31-31.31,31S227.71,45.29,238.84,24.82Z"/><path class="cls-11" d="M150.75,50.68C161,81.23,186,100.4,186,100.4s8.34-30.34-1.92-60.88c-4.75-14.15-12.65-25.87-19.77-34.36a10.45,10.45,0,0,0-18.44,6.15C145.24,22.43,146,36.53,150.75,50.68Z"/></g><path class="cls-8" d="M586.19,221.92h16.08S626.49,326.33,621,333.66,588,370.3,577,363,586.19,221.92,586.19,221.92Z"/><path class="cls-2" d="M521.41,595.58c19.35,49,13.26,36.64,28.28,87.7,0,0,10.94,60.45,26.57,98.92S624.41,872,624.41,872s36.3,10.77,13.37-11.76-42.93-162.86-47.87-178.08c-3.91-12-5-32.26-5.82-47s-7.52-41.83-7.52-41.83S550.19,595,521.41,595.58Z"/><path class="cls-7" d="M486.83,397.4S465,454.19,496.21,533q29,73.51,51.57,150.21s10.94,60.45,26.57,98.92,48.16,89.79,48.16,89.79,36.29,10.76,13.36-11.76S593,697.26,588,682c-3.9-12-5-32.26-5.82-47s-14.08-71-14.08-71L554,492.65l68.77,5.5s0-104.41-31.26-124.57Z"/><path class="cls-7" d="M505.59,139.48s0,29.31-9.16,31.15-27.48,1.83-33,11,42.13,130.06,42.13,130.06l49.46-31.14,16.49-82.44s-23.82-14.65-23.82-22v-33Z"/><path class="cls-2" d="M505.59,139.48s0,29.31-9.16,31.15-27.48,1.83-33,11,42.13,130.06,42.13,130.06l49.46-31.14,16.49-82.44s-23.82-14.65-23.82-22v-33Z"/><path class="cls-7" d="M561.75,50.14c31.08,7.7,30.8,38,20.81,69.58s-35.53,51.78-57,45-30.8-37.94-20.8-69.58S526.58,41.43,561.75,50.14Z"/><path class="cls-2" d="M625.41,480.08c7.42-64.94-30.33-130.91-30-137.72.52-12.42,7.32-28.61,7.32-28.61l-.1-31.32L606.05,231S595.8,215.13,584,205.35c-9.09-7.51-31.8-15.66-31.8-15.66.2,11.62-17.93,26.89-17.93,26.89-24.05,5.41-33.55-21.38-33.55-21.38s-8.31-18.19-11.12-19.59-58.62,12.82-58.62,12.82h0l-15.1,17S404.26,266.24,402,271.5c-1.41,3.33-31.09,54.88-32.83,62.68-1.61,7.25-5.24,12.07-6.29,12.58s-15.36,9.68-6.26,15.18c2.17,1.31,4.36,2.6,6.43,3.82l3.36,1.95c2.89,3.48,10.34,13,12.53,13,5.49,0,24.71-28,24.71-28s28.2-36.14,47.65-68.3l15.51,81.95s.26,57.22,6.87,85.68c5.87,25.24,27.63,116.06,30.85,138,.42,2.8-.46,3.5-.69,3.81-2,2.81,24.55,1.65,63.44-.15s46.91-.86,55.73-6.67S618,545,625.41,480.08Z"/><path class="cls-8" d="M430.93,184.75s55.81-14.22,58.62-12.82,11.12,19.6,11.12,19.6,9.5,26.78,33.55,21.37c0,0,18.13-15.26,17.93-26.89,0,0,22.71,8.16,31.8,15.66,11.85,9.78,22.1,25.67,22.1,25.67l-3.47,51.41.1,31.32s-6.8,16.19-7.32,28.62c-.28,6.8,37.47,72.77,30,137.71s6.46,101.16-2.36,107-16.85,4.87-55.73,6.67-65.44,3-63.44.16-25.32-113.33-31.94-141.79-6.21-82-6.21-82Z"/><path class="cls-2" d="M360.15,351.79l-51.09,63.07s-24.06,10.4-31.39,12.23-18.31,20.15-5.49,23.82,52.37-27.65,52.37-27.65l51.71-56.37Z"/><path class="cls-7" d="M360,349l-51.09,63.08s-24.06,10.39-31.39,12.23-18.31,20.15-5.49,23.81S324.4,420.5,324.4,420.5l51.71-56.36Z"/><path class="cls-8" d="M458.31,225a73.31,73.31,0,0,0-9.63,4.71q-3.35,1.9-6.53,4.07l-11.22-49.06-15.1,17s-11.57,60.79-13.79,66c-1.41,3.33-31.09,54.89-32.83,62.68-1.61,7.25-5.24,12.07-6.29,12.58s-15.36,9.68-6.26,15.18c2.17,1.31,4.36,2.6,6.43,3.82l3.36,1.95c2.89,3.48,10.34,13,12.53,13,5.49,0,24.71-28,24.71-28s75.7-96.3,65.05-118.34Z"/><path class="cls-2" d="M602.1,852.13s22.22-22.27,39.15-7.59c0,0,13.19,37.46,8.32,42.89-6.5,7.27-40.77,26.45-45.45,8.82-3-11.46-1.31-17.31-1.31-17.31l1.27-16.58Z"/><path class="cls-8" d="M601.71,848.58s22.23-22.27,39.16-7.59c0,0,13.18,37.46,8.32,42.9s-42.42,20.27-45.45,8.81-1.32-17.3-1.32-17.3l1.28-16.58Z"/><g class="cls-12"><path d="M551.5,51.09c3.12-4.22-1.47-7.88-2.79-8.81a1.28,1.28,0,0,0-.75-.23c-1.61,0-7.91.55-15.73,5.86-9.09,6.18-25.14,25.59-34.56,39.38s-36.51,64.48-36.51,64.48A30,30,0,0,1,452,161.84c-6.54,4.64-20.26,7.23-28.7,10.6s-16,19.55-21.24,26.38c-4.37,5.67-13.47,10.76-16.45,12.33a1.16,1.16,0,0,0-.52,1.51s20.52,32.1,26.29,60.07c1,.74.58.7,1,.74l23,3.93c.48,0,3.45.61,3.69.21,1.85-3.23,14-25,23-36.18,18.15-22.44,44.09-87,44.09-87s-7.29-52,23.5-90.07c0-.07,2.92,0,3,0C543.86,57.93,547.88,56,551.5,51.09Z"/><path d="M551.62,65s-6.9-2.65-12.58-.92c-42.18,13.67-22.56,113.29-22.56,113.29s-32.57-87.23,19-117.83C544.65,56.69,551.62,65,551.62,65Z"/><path d="M551.54,65.1s-11.28-8.6-8.14-11.63c2.21-2.13,1.2-5.77.41-7.75a1,1,0,0,1,1-1.43c5,0,18.67,1.66,36,19,21,20.94,10.69,81.14,10.69,81.14s-5.88,22.27-3.07,38.62,12,32.54,21,48.81,9.28,99,9.28,99S591,326.2,550.15,322c-6.79-9-11.12-93.72-11.73-105.75a13.1,13.1,0,0,1,.17-2.8c1-6,7.83-29.29,12.32-41.58,5.16-14.14,21.69-28.7,24.57-45.22C582.76,92.49,571,80.13,563.05,72,558.43,67.25,551.54,65.1,551.54,65.1Z"/></g><g class="cls-12"><path d="M559.54,52.33c5.56,1.76,13.09,6.9,18.09,13.64a50.13,50.13,0,0,1,10,26.66c.61,10.78.54,21.83-5,39.1-3.83,12-16.54,31.2-20,35.42s-39.83,58.59-39.83,58.59,16.18-51.58,29-67.48c20-24.79,19.46-66.9,19.46-66.9s-.42-13-3.93-19.07-7.07-9.49-11.49-10.55S554,50.58,559.54,52.33Z"/></g><path class="cls-1" d="M546.76,67s-4.39-9.08-.88-13.91c3-4.16-1.35-7.72-2.61-8.62a1.11,1.11,0,0,0-.7-.21c-1.55,0-7.58.6-15.11,5.87-8.75,6.14-24.27,25.31-33.4,38.92s-35.48,63.54-35.48,63.54a30,30,0,0,1-8.86,10c-6.29,4.6-19.45,7.26-27.55,10.64s-15.45,19.3-20.55,26.05c-4.23,5.59-13,10.66-15.84,12.23a1.17,1.17,0,0,0-.52,1.48s19.37,31.32,24.66,58.7c1,.72.54.68,1,.72l25.5,2.23a1.15,1.15,0,0,0,1.12-.58c1.8-3.18,10-17.39,18.7-28.39,17.56-22.16,28.71-49.05,42.18-69.79,18.86-29,2.62-76.38,31.17-107.27.06-.06-.07,0,0,0C540.31,62.13,546.76,67,546.76,67Z"/><path class="cls-13" d="M546.75,67s-6.54-2.54-12.42.46c-7.85,4-15,12.76-19.36,29-9,33.14-1.75,82.14-1.75,82.14S481.75,92.17,531.34,61.72C540.57,56.91,546.75,67,546.75,67Z"/><path class="cls-1" d="M550.23,69s-8.31-9.2-5.11-15.13a9.47,9.47,0,0,0,.46-7.61,1,1,0,0,1,.94-1.41c4.74,0,19.77,1.46,36.25,18.27,20,20.37,10.5,79.49,10.5,79.49s-5.86,26.79-3.31,42.8,13.1,31.8,21.61,47.68,8,92.34,8,92.34S591,323,552,319.18c-6.42-8.77-10.08-93.09-10.56-104.89a13.25,13.25,0,0,1,.19-2.74c1-5.93,5.33-29.55,9.73-41.65,5-13.9,21-28.33,23.89-44.56C587.33,69.22,550.23,69,550.23,69Z"/><path class="cls-13" d="M550.25,68.94a16.1,16.1,0,0,1-4.84-10.77c.56-6,7.89-4.1,13.29-2.39s12.7,6.77,17.51,13.45a49.81,49.81,0,0,1,9.57,26.51c.52,10.75.36,21.77-5.19,39-3.83,11.95-16.37,31.25-19.79,35.49s-38,59.17-38,59.17,16.18-51.58,28.83-67.55C571.32,137,569.84,94.6,569.84,94.6s-.29-13-3.67-19-6.81-9.41-11.11-10.44S550.25,68.94,550.25,68.94Z"/><path class="cls-7" d="M571.75,251.52s-16.08-65.41-31.67-60.35,3.23,52.36,18.44,62.06L564.9,308l21.8-7.6Z"/><path class="cls-2" d="M556.31,307.32s22.07-10.59,28-10.6,5,7.17,9.05,12.9,29,15.58,26.06,26.4-31.29,34.33-44.27,28.66-25.39-16.51-20.18-25.92S546.66,307.69,556.31,307.32Z"/><path class="cls-8" d="M558.47,303.52S580.25,293,586.08,293s5,7.18,9,12.92,28.69,15.65,25.83,26.46-30.82,34.2-43.67,28.5-25.15-16.58-20-26S548.93,303.87,558.47,303.52Z"/><path class="cls-2" d="M627.81,40.12,566,2.74a4.78,4.78,0,0,0-3.36-.61L490.71,15.66a4.88,4.88,0,0,0-3.13,2.1A4.79,4.79,0,0,0,489,24.39L510.34,37.6,503.85,74c-.34,1.86-.55,3.74,1,4.8a6.37,6.37,0,0,0,4.62,3.5,6.62,6.62,0,0,0,1,.09,111,111,0,0,0,37,14,111.17,111.17,0,0,0,46.11-1.8,4.76,4.76,0,0,0,3.55-3.81l6.49-36.39,23-5.32A4.24,4.24,0,0,0,629.76,46,4.78,4.78,0,0,0,627.81,40.12Z"/><path class="cls-4" d="M548.4,94.37a111.21,111.21,0,0,1-42.65-17.64,4.77,4.77,0,0,1-2-4.8l6.8-38.16a4.8,4.8,0,0,1,5.56-3.88L601,45a4.79,4.79,0,0,1,3.87,5.56l-6.8,38.16a4.78,4.78,0,0,1-3.55,3.81h0A111.17,111.17,0,0,1,548.4,94.37Z"/><path class="cls-4" d="M553.9,63.44a4.74,4.74,0,0,1-1.77-.69L489.88,22.34a4.79,4.79,0,0,1,1.72-8.72L563.47.08a4.79,4.79,0,0,1,3.37.61L628.7,38.07a4.79,4.79,0,0,1-1.4,8.77L555.82,63.4A4.77,4.77,0,0,1,553.9,63.44Z"/><circle class="cls-6" cx="511.49" cy="73.95" r="6.39"/><path class="cls-14" d="M628.25,42.85,556.77,59.41a4.26,4.26,0,0,1-3.28-.58l-62.25-40.4a4.16,4.16,0,0,1-1.69-2.12,4.25,4.25,0,0,0,.51,6,4.35,4.35,0,0,0,.43.32L552.74,63a4.27,4.27,0,0,0,3.28.58L627.5,47a4.25,4.25,0,0,0,3.19-5.1,3.94,3.94,0,0,0-.14-.49A4.16,4.16,0,0,1,628.25,42.85Z"/><path class="cls-6" d="M512,74a1.08,1.08,0,0,0,1.24-.87l6.25-35.06,36.81-6.43a1.06,1.06,0,1,0,.4-2.09L519.91,36a2,2,0,0,0-1.61.33,2.12,2.12,0,0,0-.89,1.38l-6.25,35.07A1.07,1.07,0,0,0,512,74Z"/></g></g></g></svg>