<svg xmlns="http://www.w3.org/2000/svg" viewBox="0 0 876.99 399.1"><defs><style>.cls-1,.cls-5{opacity:0.1;}.cls-2,.cls-5{fill:#fdeff2;}.cls-3{opacity:0.15;}.cls-4{fill:none;stroke:#381920;stroke-miterlimit:10;stroke-width:0.5px;}</style></defs><g id="Шар_2" data-name="Шар 2"><g id="Шар_2-2" data-name="Шар 2"><g class="cls-1"><path class="cls-2" d="M469.27,292.68c-32.38-28-43.38-68.33-43.38-68.33s41.5,5,73.9,33c18.17,15.7,29.59,35.27,36.14,49.44a10.45,10.45,0,0,1-12.51,14.44C508.46,316.84,487.43,308.37,469.27,292.68Z"/><path class="cls-2" d="M334.72,319a72.71,72.71,0,0,1-15.87,10.44c-9.6,4.71-19.26-6.33-13.31-15.22A73.51,73.51,0,0,1,318,299.89c17.53-15.34,40.11-18.2,40.11-18.2S352.26,303.67,334.72,319Z"/><path class="cls-2" d="M426.31,325.32c1-32.2-15.76-58.84-15.76-58.84S392.2,292,391.23,324.24c-.46,14.92,2.89,28.65,6.61,39.09a10.45,10.45,0,0,0,19.43.62C421.67,353.73,425.86,340.24,426.31,325.32Z"/></g><g class="cls-3"><path class="cls-4" d="M504.2,321.63c-32.38-28-43.37-68.32-43.37-68.32s41.5,5,73.89,33c18.17,15.7,29.59,35.27,36.14,49.44a10.45,10.45,0,0,1-12.5,14.44C543.39,345.8,522.36,337.33,504.2,321.63Z"/><path class="cls-4" d="M358.45,347.6A73.51,73.51,0,0,1,342.57,358c-9.6,4.71-19.26-6.34-13.3-15.23a72.79,72.79,0,0,1,12.46-14.33c17.54-15.34,40.12-18.2,40.12-18.2S376,332.26,358.45,347.6Z"/><path class="cls-4" d="M450,353.91c1-32.2-15.76-58.85-15.76-58.85S415.93,320.63,415,352.83c-.45,14.92,2.89,28.65,6.62,39.08a10.45,10.45,0,0,0,19.43.63C445.4,382.32,449.58,368.83,450,353.91Z"/></g><path class="cls-5" d="M564.34,199.34H282.89C126.65,199.34,0,118.59,0,19V2.16H877V0C877,110.09,737,199.34,564.34,199.34Z"/></g></g></svg>