<svg xmlns="http://www.w3.org/2000/svg" viewBox="0 0 123.49 120.56"><defs><style>.cls-1{font-size:16.79px;fill:#fff;font-family:OpenSans, Open Sans;}</style></defs><g id="Шар_2" data-name="Шар 2"><g id="Шар_3" data-name="Шар 3"><g id="icon_left"><text class="cls-1" transform="translate(20.66 79.84) rotate(-90.96)"> </text><text class="cls-1" transform="translate(20.58 75.72) rotate(-85.52)"> </text><text class="cls-1" transform="matrix(0.17, -0.99, 0.99, 0.17, 20.89, 71.65)"> </text><text class="cls-1" transform="matrix(0.26, -0.96, 0.96, 0.26, 21.58, 67.61)"> </text><text class="cls-1" transform="matrix(0.4, -0.92, 0.92, 0.4, 22.47, 63.69)">F</text><text class="cls-1" transform="matrix(0.54, -0.84, 0.84, 0.54, 25.75, 56.18)">r</text><text class="cls-1" transform="translate(29.04 50.72) rotate(-46.63)">o</text><text class="cls-1" transform="translate(35.58 43.69) rotate(-33.9)">n</text><text class="cls-1" transform="translate(43.81 38.34) rotate(-23.9)">t</text><text class="cls-1" transform="translate(48.96 36.08) rotate(-17.58)"> </text><text class="cls-1" transform="translate(52.69 34.68) rotate(-9.15)">E</text><text class="cls-1" transform="translate(61.36 33.17) rotate(3.03)">n</text><text class="cls-1" transform="matrix(0.96, 0.27, -0.27, 0.96, 71.05, 33.62)">d</text><text class="cls-1" transform="matrix(0.91, 0.41, -0.41, 0.91, 80.44, 36.51)"> </text><text class="cls-1" transform="translate(84.22 37.79) rotate(35.02)">D</text><text class="cls-1" transform="translate(93.68 44.54) rotate(48.44)">E</text><text class="cls-1" transform="translate(99.58 51.06) rotate(60.4)">V</text></g></g></g></svg>