<svg id="Шар_1" data-name="Шар 1" xmlns="http://www.w3.org/2000/svg" xmlns:xlink="http://www.w3.org/1999/xlink" viewBox="0 0 52.11 161"><defs><style>.cls-1{fill:none;}.cls-2{clip-path:url(#clip-path);}.cls-3{fill:#96562c;}.cls-4,.cls-9{opacity:0.1;}.cls-4{isolation:isolate;}.cls-5{fill:url(#Градієнт_без_назви);}.cls-6{fill:#ffc1c7;}.cls-7{fill:#2f2e41;}.cls-8{fill:url(#Градієнт_без_назви_2);}.cls-10{fill:#d38f62;}</style><clipPath id="clip-path" transform="translate(0.07 0.08)"><circle class="cls-1" cx="23.84" cy="31.68" r="38.39"/></clipPath><linearGradient id="Градієнт_без_назви" x1="16.69" y1="63.31" x2="65.81" y2="63.31" gradientTransform="matrix(1, 0, 0, -1, -14.47, 157.22)" gradientUnits="userSpaceOnUse"><stop offset="0" stop-color="gray" stop-opacity="0.25"/><stop offset="0.54" stop-color="gray" stop-opacity="0.12"/><stop offset="1" stop-color="gray" stop-opacity="0.1"/></linearGradient><linearGradient id="Градієнт_без_назви_2" x1="21.75" y1="91.48" x2="55.45" y2="91.48" xlink:href="#Градієнт_без_назви"/></defs><g class="cls-2"><path class="cls-3" d="M14.78,17H31.54V31.54H14.78Z" transform="translate(0.07 0.08)"/><path class="cls-4" d="M14.79,17.06H31.55V31.58H14.79Z" transform="translate(0.07 0.08)"/><path class="cls-5" d="M45.77,151.8c-1.09-1.46-1.65-2.06-1.65-2.06a11,11,0,0,0-1.15,0,7.38,7.38,0,0,1-1.17-3.55c-.08-1.24-.15-3.23-.2-5.13-.08-2.7-.13-5.23-.13-5.23s-.42-17.39-.34-20.27a107.29,107.29,0,0,0-1.22-13.27c.25-.17.35-.32.28-.42-.37-.52-2-19.29-.78-24.6,1-4.23.59-12.17.39-15.22a3.11,3.11,0,0,1,.43-.75c.45-.41.45-2.32.23-3.25s.22-1.31.86-1.76.44-1.83-.19-3,.48-.93,1.87-1.65-.6-6-1.5-11.06-6.35-11-6.35-11S28,26.66,27.52,26.92s-2,1.31-2,1.31-3.33,3.48-7.81,2.47a3.11,3.11,0,0,1-1.5-2.92S11.59,30.29,10.13,32s-2.84,3.1-2.84,3.1a14,14,0,0,0-1,1.72A19.13,19.13,0,0,0,4.2,44.9c-.15,5.84-1,8.72,0,9.35s2,.75,1,1.12-2.62.68-1.53,1.57,1.87.38,1,1.5-2,.15-1.16,1.57a8.3,8.3,0,0,1,1.27,3.33c-.11.19-1.72,3,.26,2.92h.07L3,83.61s-3.14,9,3,10.5a2.7,2.7,0,0,0,1.49,0c-.18,6-.67,7.8.54,8.6.54.36,1.87.18,4.19.25.7,3.84,1.7,13,.88,15.73s2.07,15.27,3.67,21.89c.59,2.44,1,4.06,1,4.06l.28,5.65a10.77,10.77,0,0,0-2.15,1v2l-.83,3a6.67,6.67,0,0,0-.37,3.22c.15,2.2,7.55.82,8.64,0s0-8.16,0-8.16a4.17,4.17,0,0,0-.8-.77l-.43-11v-.29l.4-8.39a35.43,35.43,0,0,0,0-3.57c-.17-3.73-.51-12.41.09-14.25.49-1.52-.16-7.25-.81-10.48a55.6,55.6,0,0,1,6.45.31c.66.07,1.62-.08,1.56.45a3.47,3.47,0,0,0,.15.91,100.61,100.61,0,0,1,2.26,11.26c.15.86,0,14,1.31,17.88a68.59,68.59,0,0,1,1.71,7.48c.68,3.64,1.25,7.21,1.37,8l-.46-.59a34.46,34.46,0,0,1-.72,4.75c-.33.78-.75,7.56-.75,7.56a15.46,15.46,0,0,0,6.17-.25c1.38,1.06,6,.47,9.51-.58s-3.52-6.49-4.6-8ZM6.66,80.73c0,.62.08,1.26.14,1.91-.18-.47-.3-.75-.3-.75Z" transform="translate(0.07 0.08)"/><path class="cls-6" d="M6,64.38,3.75,83s-3.14,9,3,10.51.48-12.22.48-12.22l2.35-17.1Z" transform="translate(0.07 0.08)"/><path class="cls-7" d="M11.57,47.81S10.15,65.42,10,65.42s-1.33.09-2.76.16l-1.39.07c-2,.07-.38-2.73-.26-2.92A8.32,8.32,0,0,0,4.27,59.4c-.86-1.42.3-.45,1.16-1.57s.08-.6-1-1.49.64-1.2,1.54-1.57,0-.49-1-1.13-.15-3.51,0-9.35A19.13,19.13,0,0,1,7,36.18a12.84,12.84,0,0,1,1-1.72l2.21-.17s1,4,1.08,4.49S11.57,47.81,11.57,47.81Z" transform="translate(0.07 0.08)"/><path class="cls-6" d="M18,16.52s1.09,9.27-.33,10.13-2,3.52-2,3.52L21,32.93l9-1.75-.34-4.57s-4.34-.33-3.44-2.54a25.52,25.52,0,0,0,1.31-4.45Z" transform="translate(0.07 0.08)"/><path class="cls-4" d="M18,16.52s1.09,9.27-.33,10.13-2,3.52-2,3.52L21,32.93l9-1.75-.34-4.57s-4.34-.33-3.44-2.54a25.52,25.52,0,0,0,1.31-4.45Z" transform="translate(0.07 0.08)"/><path class="cls-6" d="M23.35,112.5c-.6,1.84-.27,10.52-.09,14.25q.07,1.78,0,3.57l-.4,8.39V139l.48,12.38-4.49-.52-.34-6.77s-.41-1.62-1-4.06c-1.6-6.62-4.47-19.29-3.67-21.89,1.08-3.55-1.61-16.79-1.61-16.79l9.42-1.68S24.16,110,23.35,112.5Z" transform="translate(0.07 0.08)"/><path class="cls-6" d="M45.56,152.87l-2.62,1.5s-4.75-1.83-5-1.91-.56-4-.56-4-.62-4-1.39-8.15a66.38,66.38,0,0,0-1.72-7.48c-1.3-3.93-1.15-17-1.3-17.88s-4.75-16.78-4.75-16.78,10-1.87,11.25-.75,2.47,14.66,2.4,17.53.33,20.27.33,20.27,0,2.53.13,5.23c.06,1.9.13,3.89.21,5.13a7.43,7.43,0,0,0,2.12,4.71Z" transform="translate(0.07 0.08)"/><path class="cls-7" d="M41.45,152.29s-2.58-3.4,3.44-3.14c.55.65,1.07,1.34,1.56,2,1.09,1.46,8.15,6.95,4.6,8s-8.12,1.64-9.51.58a15.46,15.46,0,0,1-6.17.25s.43-6.77.76-7.56a34.44,34.44,0,0,0,.71-4.75l4.08,5.2Z" transform="translate(0.07 0.08)"/><path class="cls-6" d="M23.23.29c6-.38,7.61,5,7.61,11.2s-3.39,11.23-7.61,11.23-7.62-5-7.62-11.21S16.45.73,23.23.29Z" transform="translate(0.07 0.08)"/><path class="cls-4" d="M11.57,47.81S10.15,65.42,10,65.42s-1.33.09-2.76.16a1.7,1.7,0,0,1,.29-.46c.94-.86,1.38-7.29,1.38-7.29L7.6,46.29,8.71,36.17c.56-1.1-.7-1.66-.7-1.66l2.21-.22s1,4,1.08,4.49S11.57,47.81,11.57,47.81Z" transform="translate(0.07 0.08)"/><path class="cls-8" d="M35.92,29.84s-7.11-2.92-7.63-2.66a22.18,22.18,0,0,0-2,1.31S23,32,18.48,31A3.11,3.11,0,0,1,17,28s-4.67,2.51-6.13,4.15-2.79,3.1-2.79,3.1l.71,11.78L10,58.66S9.59,65.09,8.66,66s-2.14,8.3-.75,20.42-1.46,16.11.18,17.2,14.21.37,21.47.71,11.78-1.68,11.4-2.21-2-19.29-.78-24.6.3-16.46.3-16.46Z" transform="translate(0.07 0.08)"/><path class="cls-7" d="M35.87,29s-7.1-2.92-7.63-2.65-1.94,1.3-1.94,1.3S23,31.13,18.45,30.12A3.1,3.1,0,0,1,17,27.21s-4.68,2.5-6.13,4.15S8,34.46,8,34.46l.74,11.83L10,57.88s-.45,6.41-1.39,7.24-2.13,8.3-.75,20.42-1.45,16.12.19,17.2,14.21.38,21.47.71,11.77-1.68,11.4-2.2-2-19.3-.78-24.61.31-16.45.31-16.45Z" transform="translate(0.07 0.08)"/><path class="cls-6" d="M33.82,62.58s-1.95,15.18-3.29,16.57-1.84,12.37.52,12.37,4.49-12.15,4.49-12.15l3.59-16.45Z" transform="translate(0.07 0.08)"/><path class="cls-7" d="M16.65,150.76s4.86-3.3,7.44,0c0,0,1.09,7.32,0,8.15s-8.48,2.2-8.63,0a6.67,6.67,0,0,1,.37-3.22l.82-3Z" transform="translate(0.07 0.08)"/><path class="cls-4" d="M35.22,31,35,29.71s5.45,5.87,6.35,11,2.88,10.36,1.5,11.07-2.51.48-1.87,1.64.82,2.54.19,3-1.09.83-.87,1.76.23,2.84-.22,3.25a21.3,21.3,0,0,0-1.61,3.66s-4.56-1.5-6.28-.49-.26-3.93-.26-3.93-.38-2-.94-2.31A1,1,0,0,1,30.54,57a1,1,0,0,1,.24-.3c.71-.67,1.28-.67.3-1.61s-2.28-.52-.93-1.49,2.1-1.42,1.2-2.32-1.68-1.46-1-2.28S32.08,30.18,35.22,31Z" transform="translate(0.07 0.08)"/><path class="cls-7" d="M34.6,29.23,35.87,29s5.46,5.87,6.36,11,2.88,10.29,1.5,11-2.51.48-1.87,1.64.82,2.54.18,3-1.08.83-.86,1.76.27,2.86-.22,3.24a20.86,20.86,0,0,0-1.57,3.71s-4.56-1.5-6.28-.49S32.84,60,32.84,60s-.37-2-.93-2.32a.94.94,0,0,1-.52-1.22.92.92,0,0,1,.33-.42c.71-.67,1.27-.67.3-1.61s-2.28-.52-.93-1.49,2-1.43,1.16-2.36-1.69-1.46-1-2.28S31.45,28.4,34.6,29.23Z" transform="translate(0.07 0.08)"/><g class="cls-9"><path d="M20.5,1.74c.32-.92-.7-1.32-1-1.41h-.15a5.89,5.89,0,0,0-2.46,2c-1.27,1.61-3,6-3.93,9s-2.87,13.52-2.87,13.52A5.56,5.56,0,0,1,9,27.12c-.9,1.19-3.19,2.43-4.5,3.5S2.77,35,2.22,36.51A10.56,10.56,0,0,1,0,39.62a.22.22,0,0,0,0,.3s5.45,4.56,8,9.21c.23.07.14.09.23.07l5.14-1c.09,0,.65-.08.67-.17a35.88,35.88,0,0,1,1.57-6.2c2-5,4.36-19.43,4.36-19.43s-5.44-8.61-2.1-17.11C19.53,3.39,20.13,2.82,20.5,1.74Z" transform="translate(0.07 0.08)"/><path d="M22.26,3.52A4.26,4.26,0,0,0,20,4.06c-6.74,4.81,2.36,21.43,2.36,21.43s-10.7-13.69-3.25-22A3.08,3.08,0,0,1,22.26,3.52Z" transform="translate(0.07 0.08)"/><path d="M22.25,3.54s-2.49-.9-2.1-1.61c.27-.5-.11-1.1-.36-1.4a.2.2,0,0,1,0-.27l.08,0c.88-.27,3.77-.87,7.83,1.23C32.63,4,34.35,15.23,34.35,15.23s.49,5.18,1.91,7.93,4.31,5,6.83,7.39S50,46.79,50,46.79,44.31,48,36.81,49.54c-1.71-1.25-7.61-16.25-8.36-18.37a1.74,1.74,0,0,1-.13-.51,72.77,72.77,0,0,1-.15-8.09c.12-2.8,2.25-6.32,1.83-9.43-.63-6.48-3.41-8-5.29-9A5.87,5.87,0,0,0,22.25,3.54Z" transform="translate(0.07 0.08)"/><path d="M22.79,1.51a7.72,7.72,0,0,1,4.06,1.43A9.46,9.46,0,0,1,30.2,7.19a18.2,18.2,0,0,1,1.33,7.36,29.55,29.55,0,0,1-1.6,7.55C29.55,23.1,26.07,35,26.07,35s0-10.25,1.4-13.86c2.2-5.63-.31-13.22-.31-13.22a10.21,10.21,0,0,0-1.8-3.22,3.71,3.71,0,0,0-2.69-1.26C21.81,3.47,21.69,1.51,22.79,1.51Z" transform="translate(0.07 0.08)"/></g><path class="cls-4" d="M23,.82a7.42,7.42,0,0,1,4,1.41,9.33,9.33,0,0,1,3.29,4.18,18.28,18.28,0,0,1,1.31,7.23A29.56,29.56,0,0,1,30,21.07c-.38.95-3.8,12.66-3.8,12.66s0-10.08,1.37-13.63c2.17-5.54-.3-13-.3-13a10,10,0,0,0-1.81-3.17A3.6,3.6,0,0,0,22.82,2.7C22,2.76,21.87.82,23,.82Z" transform="translate(0.07 0.08)"/><path class="cls-3" d="M21.5,4.14s-1.29-1.37-.93-2.43c.3-.91-.68-1.29-.95-1.38a.17.17,0,0,0-.17,0,5.4,5.4,0,0,0-2.36,1.89C15.88,3.77,14.2,8.05,13.34,11s-2.71,13.31-2.71,13.31a5.59,5.59,0,0,1-1,2.27C8.77,27.73,6.58,29,5.33,30s-1.66,4.31-2.19,5.79A10.51,10.51,0,0,1,1,38.86a.23.23,0,0,0,0,.29s5.21,4.48,7.69,9.06c.21.07.13.09.21.07l4.66-1a.24.24,0,0,0,.17-.17A46,46,0,0,1,15.45,41C17.33,36.08,17.8,30.67,19,26.22,20.75,20,15.2,12.48,18.54,5.38,20.09,3.64,21.5,4.14,21.5,4.14Z" transform="translate(0.07 0.08)"/><path class="cls-10" d="M21.5,4.14a3.12,3.12,0,0,0-2.18.78C18.15,6.06,17.38,8,17.51,11.17c.26,6.4,4.3,14.71,4.3,14.71S11.36,12.29,18.45,4.08C19.84,2.7,21.5,4.14,21.5,4.14Z" transform="translate(0.07 0.08)"/><path class="cls-3" d="M22.24,4.29s-2-1.17-1.76-2.4A1.79,1.79,0,0,0,20.13.51a.2.2,0,0,1,0-.27l.08,0c.84-.26,3.6-.85,7.47,1.22C32.39,3.92,34,15,34,15s.46,5.09,1.82,7.8S40,27.69,42.37,30,49,46,49,46s-5.22,1.17-12.38,2.7c-1.64-1.2-7-16-7.77-18.07a2.83,2.83,0,0,1-.13-.5,62.15,62.15,0,0,1-.61-7.95c.12-2.76,2.15-6.22,1.75-9.27C28.85,2.29,22.24,4.29,22.24,4.29Z" transform="translate(0.07 0.08)"/><path class="cls-10" d="M22.24,4.29a3,3,0,0,1-1.47-1.65c-.24-1.1,1.17-1.17,2.23-1.17a7.15,7.15,0,0,1,3.87,1.42,9.3,9.3,0,0,1,3.2,4.18,18.74,18.74,0,0,1,1.27,7.22,29.94,29.94,0,0,1-1.53,7.43c-.37,1-3.44,12.66-3.44,12.66s0-10.08,1.33-13.63c2.11-5.54-.53-13-.53-13a10,10,0,0,0-1.72-3.16,3.44,3.44,0,0,0-2.56-1.23C22.06,3.42,22.24,4.29,22.24,4.29Z" transform="translate(0.07 0.08)"/></g></svg>