<svg xmlns="http://www.w3.org/2000/svg" xmlns:xlink="http://www.w3.org/1999/xlink" viewBox="0 0 50.11 70.15"><defs><style>.cls-1{fill:#96562c;}.cls-2{opacity:0.1;isolation:isolate;}.cls-3{fill:url(#Градієнт_без_назви_5);}.cls-4{fill:url(#Градієнт_без_назви_5-2);}.cls-5{fill:url(#Градієнт_без_назви_5-3);}.cls-6{fill:url(#Градієнт_без_назви_5-4);}.cls-7{fill:#ffc1c7;}.cls-8{fill:#2f2e41;}.cls-9{fill:url(#Градієнт_без_назви_5-5);}.cls-10{fill:url(#Градієнт_без_назви_5-6);}.cls-11{fill:url(#Градієнт_без_назви_5-7);}.cls-12{fill:url(#Градієнт_без_назви_5-8);}.cls-13{fill:url(#Градієнт_без_назви_5-9);}.cls-14{fill:url(#Градієнт_без_назви_5-10);}.cls-15{fill:url(#Градієнт_без_назви_5-11);}.cls-16{fill:url(#Градієнт_без_назви_5-12);}.cls-17{fill:url(#Градієнт_без_назви_5-13);}.cls-18{fill:url(#Градієнт_без_назви_5-14);}.cls-19{fill:url(#Градієнт_без_назви_5-15);}.cls-20{fill:url(#Градієнт_без_назви_5-16);}.cls-21{fill:#d38f62;}</style><linearGradient id="Градієнт_без_назви_5" x1="2.3" y1="49.53" x2="51.43" y2="49.53" gradientUnits="userSpaceOnUse"><stop offset="0" stop-color="gray" stop-opacity="0.25"/><stop offset="0.54" stop-color="gray" stop-opacity="0.12"/><stop offset="1" stop-color="gray" stop-opacity="0.1"/></linearGradient><linearGradient id="Градієнт_без_назви_5-2" x1="2.3" y1="51.51" x2="51.43" y2="51.51" xlink:href="#Градієнт_без_назви_5"/><linearGradient id="Градієнт_без_назви_5-3" x1="2.3" y1="57.14" x2="51.43" y2="57.14" xlink:href="#Градієнт_без_назви_5"/><linearGradient id="Градієнт_без_назви_5-4" x1="2.3" y1="62.07" x2="51.43" y2="62.07" xlink:href="#Градієнт_без_назви_5"/><linearGradient id="Градієнт_без_назви_5-5" x1="7.36" y1="64.92" x2="41.06" y2="64.92" xlink:href="#Градієнт_без_назви_5"/><linearGradient id="Градієнт_без_назви_5-6" x1="7.36" y1="53.6" x2="41.06" y2="53.6" xlink:href="#Градієнт_без_назви_5"/><linearGradient id="Градієнт_без_назви_5-7" x1="2.3" y1="51.77" x2="51.43" y2="51.77" xlink:href="#Градієнт_без_назви_5"/><linearGradient id="Градієнт_без_назви_5-8" x1="0" y1="24.8" x2="19.96" y2="24.8" xlink:href="#Градієнт_без_назви_5"/><linearGradient id="Градієнт_без_назви_5-9" x1="20.83" y1="3.39" x2="21.37" y2="3.39" xlink:href="#Градієнт_без_назви_5"/><linearGradient id="Градієнт_без_назви_5-10" x1="17.58" y1="18.11" x2="22.4" y2="18.11" xlink:href="#Градієнт_без_назви_5"/><linearGradient id="Градієнт_без_назви_5-11" x1="28.21" y1="25.7" x2="50.11" y2="25.7" xlink:href="#Градієнт_без_назви_5"/><linearGradient id="Градієнт_без_назви_5-12" x1="19.83" y1="0.35" x2="22.27" y2="0.35" xlink:href="#Градієнт_без_назви_5"/><linearGradient id="Градієнт_без_назви_5-13" x1="25.05" y1="10.47" x2="28.51" y2="10.47" xlink:href="#Градієнт_без_назви_5"/><linearGradient id="Градієнт_без_назви_5-14" x1="26.15" y1="30.79" x2="26.53" y2="30.79" xlink:href="#Градієнт_без_назви_5"/><linearGradient id="Градієнт_без_назви_5-15" x1="27.63" y1="28.51" x2="28.44" y2="28.51" xlink:href="#Градієнт_без_назви_5"/><linearGradient id="Градієнт_без_назви_5-16" x1="26.25" y1="23.75" x2="28.59" y2="23.75" xlink:href="#Градієнт_без_назви_5"/></defs><g id="Шар_2" data-name="Шар 2"><g id="Шар_3" data-name="Шар 3"><g id="icon_left"><path class="cls-1" d="M27.27,21.14a26.76,26.76,0,0,1-.95,3,1.23,1.23,0,0,0,.3,1.47,27.91,27.91,0,0,1,.71-4.52Z"/><path class="cls-2" d="M27.27,21.14a26.76,26.76,0,0,1-.95,3,1.23,1.23,0,0,0,.3,1.47,27.91,27.91,0,0,1,.71-4.52Z"/><path class="cls-3" d="M5,53.71c-1-.62-.2-3.38,0-8.92l-.66-.74c0,.31,0,.62,0,.92-.15,5.84-1,8.72,0,9.35.54.35,1.06.53,1.28.7L6,54.84C6.93,54.46,6,54.35,5,53.71Z"/><path class="cls-4" d="M43,51.75l.11,0a.76.76,0,0,0,.35-.44l-.16.07A.79.79,0,0,1,43,51.75Z"/><path class="cls-5" d="M4.5,56.41c-.26-.22-.35-.39-.34-.55-.64.26-1.07.59-.39,1.15,1.05.87,1.81.42,1.08,1.41a1.59,1.59,0,0,0,.66-.52C6.37,56.78,5.59,57.3,4.5,56.41Z"/><path class="cls-6" d="M4.3,64.75l.62.36a4.58,4.58,0,0,1,.7-2.31,8.26,8.26,0,0,0-1.27-3.33A2.72,2.72,0,0,1,4.12,59c-.65.26-1.14,0-.5,1A8.34,8.34,0,0,1,4.9,63.41,6.53,6.53,0,0,0,4.3,64.75Z"/><path class="cls-7" d="M7.28,65.65c-.41,0-.84,0-1.27.06.67.36,1.36.69,2.05,1a6.36,6.36,0,0,1,.38-1.13Z"/><path class="cls-8" d="M5.62,62.8a4.58,4.58,0,0,0-.7,2.31c.36.21.72.41,1.09.6.43,0,.86,0,1.27-.06a1.32,1.32,0,0,1,.29-.46C8.5,64.33,9,57.9,9,57.9l-1-9a26.68,26.68,0,0,0-3-4.08c-.18,5.54-1,8.3,0,8.92s1.94.75,1,1.13L5.54,55c-.64.22-1.36.45-1.38.84,0,.16.08.33.34.55,1.09.89,1.87.37,1,1.49a1.59,1.59,0,0,1-.66.52c-.54.22-1,.07-.73.61a2.72,2.72,0,0,0,.23.44A8.26,8.26,0,0,1,5.62,62.8Z"/><path class="cls-7" d="M26.38,27.73l.05-.05c0-.38.07-.76.1-1.13l.09-.94a1.23,1.23,0,0,1-.3-1.47,26.76,26.76,0,0,0,.95-3,5.93,5.93,0,0,1-4,1.65,5.47,5.47,0,0,1-2.55-.66c.91,2.06,1.65,3.43,1.65,3.43a32.66,32.66,0,0,1-1.92-2.87c.78,2,1.41,3.26,1.41,3.26A31.35,31.35,0,0,1,20,23c-.21,1.24-.71,4-1.33,7.18C23.08,31.16,26.38,27.73,26.38,27.73Z"/><path class="cls-2" d="M26.38,27.73l.05-.05c0-.38.07-.76.1-1.13l.09-.94a1.23,1.23,0,0,1-.3-1.47,26.76,26.76,0,0,0,.95-3,5.93,5.93,0,0,1-4,1.65,5.47,5.47,0,0,1-2.55-.66c.91,2.06,1.65,3.43,1.65,3.43a32.66,32.66,0,0,1-1.92-2.87c.78,2,1.41,3.26,1.41,3.26A31.35,31.35,0,0,1,20,23c-.21,1.24-.71,4-1.33,7.18C23.08,31.16,26.38,27.73,26.38,27.73Z"/><path class="cls-7" d="M20.73,2.87a1.6,1.6,0,0,0,.1.23h.07Z"/><path class="cls-7" d="M21.58,4.21h0A3.14,3.14,0,0,0,19.39,5c-1.09,1.07-1.83,2.87-1.81,5.67.16,3.91,1.84,8.45,3.17,11.47a5.47,5.47,0,0,0,2.55.66,5.93,5.93,0,0,0,4-1.65l.06-.05a7.72,7.72,0,0,1,.29-.92,13.11,13.11,0,0,0,.81-3.66A27.56,27.56,0,0,0,27.24,8a10,10,0,0,0-1.81-3.22c-.13-.12-.25-.21-.38-.32a5.28,5.28,0,0,0-2.74,0l0,0a3,3,0,0,1-.75-.55l-.15-.14-.2,0a5.82,5.82,0,0,0,.41.52Z"/><path class="cls-7" d="M25.75.61a13.66,13.66,0,0,1,1.37.56A5.4,5.4,0,0,0,25.75.61Z"/><path class="cls-8" d="M8.69,65.19c.82-.75,1.27-5.82,1.36-7l-1-9.11-.72.15c-.08,0,0,0-.22-.08L8,48.87l1,9s-.45,6.43-1.38,7.29a1.32,1.32,0,0,0-.29.46l1.16-.06A1.38,1.38,0,0,1,8.69,65.19Z"/><path class="cls-2" d="M8.69,65.19c.82-.75,1.27-5.82,1.36-7l-1-9.11-.72.15c-.08,0,0,0-.22-.08L8,48.87l1,9s-.45,6.43-1.38,7.29a1.32,1.32,0,0,0-.29.46l1.16-.06A1.38,1.38,0,0,1,8.69,65.19Z"/><path class="cls-9" d="M40.84,66.22c0-1-.08-1.86-.12-2.61,0,.79.07,1.68.1,2.62Z"/><path class="cls-8" d="M10.07,57.9,9.1,49h0l1,9.11A2.32,2.32,0,0,0,10.07,57.9Z"/><path class="cls-2" d="M10.07,57.9,9.1,49h0l1,9.11A2.32,2.32,0,0,0,10.07,57.9Z"/><path class="cls-10" d="M10.07,57.9,9.1,49h0l1,9.11A2.32,2.32,0,0,0,10.07,57.9Z"/><path class="cls-8" d="M39.46,64.45l-.54-.17-.67,3.09c.87-.35,1.73-.73,2.57-1.14,0-.94-.06-1.83-.1-2.62s-.08-1.56-.12-2.12C40.1,62.59,39.46,64.45,39.46,64.45Z"/><path class="cls-8" d="M32.28,64.67c-1.72,1-.26-3.93-.26-3.93s-.37-2-.93-2.31a1,1,0,0,1-.19-1.65c.71-.67,1.27-.67.3-1.61s-2.28-.52-.93-1.49l.39-.29a2.79,2.79,0,0,1,.5-.42l.3-.22c.46-.45.53-.84,0-1.43-.89-.93-1.68-1.46-1-2.28.31-.41.75-5,1.48-9.41-1.59-3.79-3-7.43-3.37-8.39a2.93,2.93,0,0,1-.13-.51c-.06-.46-.11-1.49-.15-2.71-.19.66-.39,1.32-.58,2-.65,2.45-1.18,4.48-1.18,4.48V34l-.3,1s0-3.65.28-7.36l-.05.05s-3.3,3.43-7.75,2.47a84.1,84.1,0,0,1-2.92,11.57A35.6,35.6,0,0,0,14.15,48c0,.09-.58.15-.67.17L9.1,49l1,8.86a2.32,2.32,0,0,1,0,.26c-.09,1.21-.54,6.28-1.36,7a1.38,1.38,0,0,0-.25.4,6.36,6.36,0,0,0-.38,1.13,38.36,38.36,0,0,0,15.86,3.43,38,38,0,0,0,9-1.09c.29-1.84.53-3.54.7-4.73A3.16,3.16,0,0,0,32.28,64.67Z"/><path class="cls-7" d="M38.88,64.27c-.19.51-.31.89-.31.89a16.77,16.77,0,0,0-4.9-.83c-.17,1.19-.41,2.89-.7,4.73a36.89,36.89,0,0,0,5.28-1.69l.67-3.09Z"/><path class="cls-2" d="M41.77,52.26a8.24,8.24,0,0,0,1.13-.45l.07-.06a9.15,9.15,0,0,1-1.2.46Z"/><path class="cls-11" d="M43.27,51.33c-.86.34-1.51.41-1.5.88a9.15,9.15,0,0,0,1.2-.46A.79.79,0,0,0,43.27,51.33Z"/><path class="cls-2" d="M43.27,51.33c-.86.34-1.51.41-1.5.88a9.15,9.15,0,0,0,1.2-.46A.79.79,0,0,0,43.27,51.33Z"/><path class="cls-8" d="M31.2,55.17c1,.94.41.94-.3,1.61a1,1,0,0,0,.19,1.65c.56.33.93,2.31.93,2.31s-1.46,4.94.26,3.93a3.16,3.16,0,0,1,1.39-.34c0-.21,0-.41.08-.59a2.26,2.26,0,0,0-.57.22c-1.72,1-.26-3.93-.26-3.93s-.37-2-.93-2.32a.94.94,0,0,1-.19-1.64c.71-.67,1.27-.67.3-1.61-.79-.76-1.8-.63-1.44-1.07l-.39.29C28.92,54.65,30.23,54.24,31.2,55.17Z"/><path class="cls-2" d="M31.2,55.17c1,.94.41.94-.3,1.61a1,1,0,0,0,.19,1.65c.56.33.93,2.31.93,2.31s-1.46,4.94.26,3.93a3.16,3.16,0,0,1,1.39-.34c0-.21,0-.41.08-.59a2.26,2.26,0,0,0-.57.22c-1.72,1-.26-3.93-.26-3.93s-.37-2-.93-2.32a.94.94,0,0,1-.19-1.64c.71-.67,1.27-.67.3-1.61-.79-.76-1.8-.63-1.44-1.07l-.39.29C28.92,54.65,30.23,54.24,31.2,55.17Z"/><path class="cls-8" d="M31.42,51.32c.57.59.5,1,0,1.43,1.14-.82,1.69-1.28.86-2.14s-1.68-1.46-1.05-2.28c.29-.37.37-4.34.65-8.56l-.06-.14c-.73,4.44-1.17,9-1.48,9.41C29.74,49.86,30.53,50.39,31.42,51.32Z"/><path class="cls-2" d="M31.42,51.32c.57.59.5,1,0,1.43,1.14-.82,1.69-1.28.86-2.14s-1.68-1.46-1.05-2.28c.29-.37.37-4.34.65-8.56l-.06-.14c-.73,4.44-1.17,9-1.48,9.41C29.74,49.86,30.53,50.39,31.42,51.32Z"/><path class="cls-7" d="M38.57,65.16s.12-.38.31-.89c-1.13-.32-3.63-.92-5.13-.53,0,.18,0,.38-.08.59A16.77,16.77,0,0,1,38.57,65.16Z"/><path class="cls-2" d="M38.57,65.16s.12-.38.31-.89c-1.13-.32-3.63-.92-5.13-.53,0,.18,0,.38-.08.59A16.77,16.77,0,0,1,38.57,65.16Z"/><path class="cls-8" d="M36.89,49.61c-.93-.66-3.07-5.34-5-9.84-.28,4.22-.36,8.19-.65,8.56-.63.82.15,1.35,1.05,2.28s.28,1.32-.86,2.14l-.3.22a2.79,2.79,0,0,0-.5.42c-.36.44.65.31,1.44,1.07,1,.94.41.94-.3,1.61A.94.94,0,0,0,32,57.71c.56.34.93,2.32.93,2.32S31.46,65,33.18,64a2.26,2.26,0,0,1,.57-.22c1.5-.39,4,.21,5.13.53h0l.54.17s.64-1.86,1.14-3a3.3,3.3,0,0,1,.43-.75c.45-.41.45-2.31.23-3.25s.22-1.31.86-1.76.45-1.83-.19-3a1.16,1.16,0,0,1-.16-.48v0c0-.47.64-.54,1.5-.88l.16-.07.37-.16c.58-.3.57-1.42.29-3Z"/><path class="cls-12" d="M8,48.87l.15.25c.22.08.14.09.22.08l.72-.15h0l4.38-.9c.09,0,.65-.08.67-.17a35.6,35.6,0,0,1,1.56-6.2A84.1,84.1,0,0,0,18.63,30.2c.62-3.14,1.12-5.94,1.33-7.18-.21-.34-.42-.71-.63-1.1a11.81,11.81,0,0,1-.23,4.37c-1.23,4.45-1.7,9.86-3.58,14.79a45.93,45.93,0,0,0-1.73,6.1.24.24,0,0,1-.17.17L9,48.38c-.08,0,0,0-.22-.07-2.48-4.58-7.68-9.06-7.68-9.06a.22.22,0,0,1,0-.29A10.29,10.29,0,0,0,3.2,35.89c.52-1.48.93-4.73,2.19-5.79s3.44-2.26,4.3-3.44a5.61,5.61,0,0,0,1-2.27S12.58,14,13.44,11.09,16,3.88,17.2,2.29A5.55,5.55,0,0,1,19.54.4a.34.34,0,0,0-.1,0A5.8,5.8,0,0,0,17,2.33c-1.27,1.61-3,6-3.93,9S10.17,24.8,10.17,24.8A5.65,5.65,0,0,1,9.1,27.11c-.9,1.19-3.2,2.43-4.51,3.5S2.85,35,2.3,36.5A10.82,10.82,0,0,1,.06,39.62a.22.22,0,0,0,0,.29,48.48,48.48,0,0,1,4.26,4.14l.66.74A26.68,26.68,0,0,1,8,48.87Z"/><path class="cls-13" d="M20.9,3.11h-.07a3.66,3.66,0,0,0,.34.59l.2,0A3.5,3.5,0,0,1,20.9,3.11Z"/><path class="cls-14" d="M17.58,10.66v.58c.16,3.88,1.71,8.44,2.9,11.45a32.66,32.66,0,0,0,1.92,2.87s-.74-1.37-1.65-3.43C19.42,19.11,17.74,14.57,17.58,10.66Z"/><path class="cls-15" d="M34.11,15.05s.46,5.09,1.81,7.8,4.12,4.92,6.53,7.26,6.62,16,6.62,16-5.22,1.17-12.38,2.7c-1.64-1.2-7-16-7.78-18.07a2.15,2.15,0,0,1-.12-.5c-.07-.49-.21-1.64-.35-3-.07.25-.15.51-.23.77,0,1.22.09,2.25.15,2.71a2.93,2.93,0,0,0,.13.51c.36,1,1.78,4.6,3.37,8.39l.06.14c1.9,4.5,4,9.18,5,9.84l7.2-1.49,6-1.26S45.69,33,43.17,30.62,37.75,26,36.33,23.23s-1.9-7.93-1.9-7.93S32.82,4.78,28.25,1.79C32.58,4.76,34.11,15.05,34.11,15.05Z"/><path class="cls-16" d="M20.21.59a.19.19,0,0,1,.08-.31,7,7,0,0,1,2-.28A7.5,7.5,0,0,0,20,.29a.18.18,0,0,0-.13.16,1.89,1.89,0,0,1,.45.25Z"/><path class="cls-17" d="M28.48,13.7a27.66,27.66,0,0,0-1.24-5.87,10.06,10.06,0,0,0-1.72-3.17l-.15-.13-.32-.11c.13.11.25.2.38.32A10,10,0,0,1,27.24,8a27.56,27.56,0,0,1,1.19,8.55A18.93,18.93,0,0,0,28.48,13.7Z"/><path class="cls-18" d="M26.25,33.8s0-3.6.28-7.25c0,.37-.07.75-.1,1.13-.29,3.71-.28,7.36-.28,7.36l.3-1c0-.23,0-.55,0-.93Z"/><path class="cls-19" d="M27.63,30c.19-.64.39-1.3.58-2,.08-.26.16-.52.23-.77a1.64,1.64,0,0,0,0-.22C28.16,28,27.89,29,27.63,30Z"/><path class="cls-20" d="M26.25,33.8l.21-.73c.05-2.88.28-9.51,1.32-12.24a16,16,0,0,0,.7-7.13,18.93,18.93,0,0,1-.05,2.81,13.11,13.11,0,0,1-.81,3.66,7.72,7.72,0,0,0-.29.92,27.91,27.91,0,0,0-.71,4.52l-.09.94C26.24,30.2,26.25,33.8,26.25,33.8Z"/><polygon class="cls-1" points="21.58 4.21 21.58 4.21 21.58 4.21 21.58 4.21"/><path class="cls-1" d="M17.2,2.29c-1.21,1.59-2.9,5.87-3.76,8.8s-2.73,13.3-2.73,13.3a5.61,5.61,0,0,1-1,2.27c-.86,1.18-3,2.39-4.3,3.44S3.72,34.41,3.2,35.89A10.29,10.29,0,0,1,1.06,39a.22.22,0,0,0,0,.29s5.2,4.48,7.68,9.06c.22.07.14.09.22.07l4.66-1a.24.24,0,0,0,.17-.17,45.93,45.93,0,0,1,1.73-6.1c1.88-4.93,2.35-10.34,3.58-14.79a11.81,11.81,0,0,0,.23-4.37c-2.55-4.67-5.46-12.39-.79-17.77,1.37-1.38,3,0,3,.06a5.82,5.82,0,0,1-.41-.52,3.66,3.66,0,0,1-.34-.59,1.6,1.6,0,0,1-.1-.23,1.37,1.37,0,0,1-.18-.9A1.74,1.74,0,0,0,20.28.7a1.89,1.89,0,0,0-.45-.25.48.48,0,0,0-.14,0,.15.15,0,0,0-.13,0h0A5.55,5.55,0,0,0,17.2,2.29Z"/><path class="cls-21" d="M20.48,22.69c-1.19-3-2.74-7.57-2.9-11.45v-.58c0-2.8.72-4.6,1.81-5.67a3.14,3.14,0,0,1,2.19-.78h0s-1.67-1.44-3-.06c-4.67,5.38-1.76,13.1.79,17.77.21.39.42.76.63,1.1A31.35,31.35,0,0,0,21.89,26S21.26,24.65,20.48,22.69Z"/><path class="cls-1" d="M20.21.59l.07.11A1.74,1.74,0,0,1,20.55,2a1.37,1.37,0,0,0,.18.9l.17.24a3.5,3.5,0,0,0,.47.54l.15.14a2.93,2.93,0,0,1-.67-1.07c-.24-1.1,1.17-1.17,2.23-1.17A7.14,7.14,0,0,1,27,3a9.27,9.27,0,0,1,3.19,4.18,18.38,18.38,0,0,1,1.27,7.23,30,30,0,0,1-1.52,7.43c-.16.4-.79,2.7-1.47,5.23a1.64,1.64,0,0,1,0,.22c.14,1.33.28,2.48.35,3a2.15,2.15,0,0,0,.12.5c.75,2.07,6.14,16.87,7.78,18.07,7.16-1.53,12.38-2.7,12.38-2.7s-4.22-13.63-6.62-16-5.17-4.56-6.53-7.26-1.81-7.8-1.81-7.8S32.58,4.76,28.25,1.79a4.71,4.71,0,0,0-.48-.29l-.65-.33A13.66,13.66,0,0,0,25.75.61,10.26,10.26,0,0,0,22.27,0a7,7,0,0,0-2,.28A.19.19,0,0,0,20.21.59Z"/><path class="cls-1" d="M23,3.43c-.82.06-.65.94-.65.94l0,0,0,0a5.28,5.28,0,0,1,2.74,0l.32.11A3.33,3.33,0,0,0,23,3.43Z"/><path class="cls-21" d="M22.31,4.37s-.17-.88.65-.94a3.33,3.33,0,0,1,2.41,1.1l.15.13a10.06,10.06,0,0,1,1.72,3.17,27.66,27.66,0,0,1,1.24,5.87,16,16,0,0,1-.7,7.13c-1,2.73-1.27,9.36-1.32,12.24,0,.38,0,.7,0,.93v.46s.53-2,1.18-4.48c.26-.95.53-2,.79-2.95.68-2.53,1.31-4.83,1.47-5.23a30,30,0,0,0,1.52-7.43,18.38,18.38,0,0,0-1.27-7.23A9.27,9.27,0,0,0,27,3a7.14,7.14,0,0,0-3.87-1.41c-1.06,0-2.47.07-2.23,1.17a2.93,2.93,0,0,0,.67,1.07,3,3,0,0,0,.75.55Z"/></g></g></g></svg>