<svg viewBox="0 0 52.16 161.01" xmlns="http://www.w3.org/2000/svg" xmlns:xlink="http://www.w3.org/1999/xlink"><clipPath id="a" transform="translate(-14.47 -6.64)"><circle cx="38.39" cy="38.39" r="38.39"/></clipPath><linearGradient id="b" gradientUnits="userSpaceOnUse" x1="16.77" x2="65.91" y1="100.65" y2="100.65"><stop offset="0" stop-color="#808080" stop-opacity=".25"/><stop offset=".54" stop-color="#808080" stop-opacity=".12"/><stop offset="1" stop-color="#808080" stop-opacity=".1"/></linearGradient><linearGradient id="c" x1="21.83" x2="55.54" xlink:href="#b" y1="72.46" y2="72.46"/><g clip-path="url(#a)"><path d="m14.86 17.09h16.76v14.52h-16.76z" fill="#96562c"/><path d="m14.87 17.13h16.76v14.52h-16.76z" opacity=".1"/><path d="m60.32 158.51c-1.09-1.46-1.65-2.06-1.65-2.06a11 11 0 0 0 -1.15 0 7.45 7.45 0 0 1 -1.17-3.55c-.08-1.24-.15-3.23-.2-5.13-.08-2.7-.13-5.23-.13-5.23s-.42-17.39-.34-20.27a106.15 106.15 0 0 0 -1.22-13.27c.25-.17.35-.32.28-.42-.37-.52-2-19.29-.78-24.6 1-4.23.59-12.17.39-15.22a3.08 3.08 0 0 1 .43-.75c.45-.41.45-2.32.23-3.25s.22-1.31.86-1.76.44-1.83-.19-3 .48-.93 1.87-1.65-.6-6-1.5-11.06-6.35-11-6.35-11-7.11-2.92-7.63-2.66-2 1.31-2 1.31-3.33 3.48-7.81 2.47a3.11 3.11 0 0 1 -1.5-2.92s-4.62 2.51-6.08 4.19-2.84 3.1-2.84 3.1a14.15 14.15 0 0 0 -1 1.72 19.13 19.13 0 0 0 -2.09 8.11c-.15 5.84-1 8.72 0 9.35s1.95.75 1.05 1.12-2.62.68-1.53 1.57 1.87.38 1 1.5-2 .15-1.16 1.57a8.26 8.26 0 0 1 1.27 3.33c-.11.19-1.72 3 .26 2.92h.07l-2.14 17.35s-3.14 9 3 10.5a2.62 2.62 0 0 0 1.49 0c-.18 6-.67 7.8.54 8.6.54.36 1.87.18 4.19.25.7 3.84 1.7 13 .88 15.73s2.07 15.27 3.67 21.89c.59 2.44 1 4.06 1 4.06l.28 5.65a10.39 10.39 0 0 0 -2.15 1v2l-.83 3a6.63 6.63 0 0 0 -.37 3.22c.15 2.2 7.55.82 8.64 0s0-8.16 0-8.16a4.12 4.12 0 0 0 -.8-.77l-.43-11v-.29l.4-8.39a35.42 35.42 0 0 0 0-3.57c-.17-3.73-.51-12.41.09-14.25.49-1.52-.16-7.25-.81-10.48a57 57 0 0 1 6.45.31c.66.07 1.62-.08 1.56.45a3.15 3.15 0 0 0 .15.91 100 100 0 0 1 2.26 11.26c.15.86 0 14 1.31 17.88a69.64 69.64 0 0 1 1.71 7.48c.68 3.64 1.25 7.21 1.37 8l-.46-.59a34.78 34.78 0 0 1 -.72 4.75c-.33.78-.75 7.56-.75 7.56a15.46 15.46 0 0 0 6.17-.25c1.38 1.06 6 .47 9.51-.58s-3.52-6.49-4.6-7.98zm-39.11-71.07c0 .62.08 1.26.14 1.91-.18-.47-.3-.75-.3-.75z" fill="url(#b)" transform="translate(-14.47 -6.64)"/><path d="m20.58 71.09-2.28 18.62s-3.14 9 3 10.51.48-12.22.48-12.22l2.35-17.1z" fill="#ffc1c7" transform="translate(-14.47 -6.64)"/><path d="m26.12 54.52s-1.42 17.61-1.61 17.61-1.33.09-2.76.16l-1.39.07c-2 .07-.38-2.73-.26-2.92a8.34 8.34 0 0 0 -1.28-3.33c-.86-1.42.3-.45 1.16-1.57s.08-.6-1-1.49.64-1.2 1.54-1.57 0-.49-1.05-1.13-.15-3.51 0-9.35a19.13 19.13 0 0 1 2.09-8.11 12.9 12.9 0 0 1 1-1.72l2.21-.17s1 4 1.08 4.49.27 9.03.27 9.03z" fill="#2f2e41" transform="translate(-14.47 -6.64)"/><path d="m32.56 23.23s1.09 9.27-.33 10.13-2 3.52-2 3.52l5.31 2.76 9-1.75-.34-4.57s-4.34-.33-3.44-2.54a25.52 25.52 0 0 0 1.31-4.45z" fill="#ffc1c7" transform="translate(-14.47 -6.64)"/><path d="m32.56 23.23s1.09 9.27-.33 10.13-2 3.52-2 3.52l5.31 2.76 9-1.75-.34-4.57s-4.34-.33-3.44-2.54a25.52 25.52 0 0 0 1.31-4.45z" opacity=".1" transform="translate(-14.47 -6.64)"/><path d="m37.9 119.21c-.6 1.84-.27 10.52-.09 14.25q.07 1.78 0 3.57l-.4 8.39v.26l.48 12.38-4.49-.52-.34-6.77s-.41-1.62-1-4.06c-1.6-6.62-4.47-19.29-3.67-21.89 1.08-3.55-1.61-16.79-1.61-16.79l9.42-1.68s2.51 10.35 1.7 12.86z" fill="#ffc1c7" transform="translate(-14.47 -6.64)"/><path d="m60.11 159.58-2.62 1.5s-4.75-1.83-5-1.91-.56-4-.56-4-.62-4-1.39-8.15a67 67 0 0 0 -1.72-7.48c-1.3-3.93-1.15-17-1.3-17.88s-4.75-16.78-4.75-16.78 10-1.87 11.25-.75 2.47 14.66 2.4 17.53.33 20.27.33 20.27 0 2.53.13 5.23c.06 1.9.13 3.89.21 5.13a7.42 7.42 0 0 0 2.12 4.71z" fill="#ffc1c7" transform="translate(-14.47 -6.64)"/><path d="m56 159s-2.58-3.4 3.44-3.14a26.31 26.31 0 0 1 1.56 2.04c1.09 1.46 8.15 6.95 4.6 8s-8.12 1.64-9.51.58a15.45 15.45 0 0 1 -6.17.25s.43-6.77.76-7.56a34.27 34.27 0 0 0 .71-4.75l4.08 5.2z" fill="#2f2e41" transform="translate(-14.47 -6.64)"/><path d="m37.78 7c6-.38 7.61 5 7.61 11.2s-3.39 11.23-7.61 11.23-7.62-5-7.62-11.21.84-10.78 7.62-11.22z" fill="#ffc1c7" transform="translate(-14.47 -6.64)"/><path d="m26.12 54.52s-1.42 17.61-1.61 17.61-1.33.09-2.76.16a1.7 1.7 0 0 1 .29-.46c.94-.86 1.38-7.29 1.38-7.29l-1.27-11.54 1.11-10.12c.56-1.1-.7-1.66-.7-1.66l2.21-.22s1 4 1.08 4.49.27 9.03.27 9.03z" opacity=".1" transform="translate(-14.47 -6.64)"/><path d="m50.47 36.55s-7.11-2.92-7.63-2.66a22.28 22.28 0 0 0 -2 1.31s-3.33 3.48-7.81 2.47a3.11 3.11 0 0 1 -1.5-2.92s-4.67 2.51-6.13 4.15-2.79 3.1-2.79 3.1l.71 11.78 1.27 11.59s-.45 6.43-1.38 7.29-2.14 8.3-.75 20.42-1.46 16.11.18 17.2 14.21.37 21.47.71 11.78-1.68 11.4-2.21-2-19.29-.78-24.6.3-16.46.3-16.46z" fill="url(#c)" transform="translate(-14.47 -6.64)"/><path d="m50.42 35.71s-7.1-2.92-7.63-2.65-1.94 1.3-1.94 1.3-3.33 3.48-7.85 2.47a3.1 3.1 0 0 1 -1.49-2.91s-4.68 2.5-6.13 4.15-2.85 3.1-2.85 3.1l.74 11.83 1.28 11.59s-.45 6.41-1.39 7.24-2.13 8.3-.75 20.42-1.45 16.12.19 17.2 14.21.38 21.47.71 11.77-1.68 11.4-2.2-2-19.3-.78-24.61.31-16.45.31-16.45z" fill="#2f2e41" transform="translate(-14.47 -6.64)"/><path d="m48.37 69.29s-1.95 15.18-3.29 16.57-1.84 12.37.52 12.37 4.49-12.15 4.49-12.15l3.59-16.45z" fill="#ffc1c7" transform="translate(-14.47 -6.64)"/><path d="m31.2 157.47s4.86-3.3 7.44 0c0 0 1.09 7.32 0 8.15s-8.48 2.2-8.63 0a6.63 6.63 0 0 1 .37-3.22l.82-3z" fill="#2f2e41" transform="translate(-14.47 -6.64)"/><path d="m49.77 37.71-.24-1.29s5.45 5.87 6.35 11 2.88 10.36 1.5 11.07-2.51.48-1.87 1.64.82 2.54.19 3-1.09.83-.87 1.76.23 2.84-.22 3.25a21.39 21.39 0 0 0 -1.61 3.66s-4.56-1.5-6.28-.49-.26-3.93-.26-3.93-.38-2-.94-2.31a1 1 0 0 1 -.19-1.65c.71-.67 1.28-.67.3-1.61s-2.28-.52-.93-1.49 2.1-1.42 1.2-2.32-1.68-1.46-1-2.28 1.73-18.83 4.87-18.01z" opacity=".1" transform="translate(-14.47 -6.64)"/><path d="m49.15 35.94 1.27-.23s5.46 5.87 6.36 11 2.88 10.29 1.5 11.03-2.51.48-1.87 1.64.82 2.54.18 3-1.08.83-.86 1.76.27 2.86-.22 3.24a21.07 21.07 0 0 0 -1.57 3.71s-4.56-1.5-6.28-.49-.27-3.93-.27-3.93-.37-2-.93-2.32a.94.94 0 0 1 -.19-1.64c.71-.67 1.27-.67.3-1.61s-2.28-.52-.93-1.49 2-1.43 1.16-2.36-1.69-1.46-1-2.28.2-19.86 3.35-19.03z" fill="#2f2e41" transform="translate(-14.47 -6.64)"/><g opacity=".1"><path d="m35.05 8.45c.32-.92-.7-1.32-1-1.41h-.15a5.86 5.86 0 0 0 -2.46 1.96c-1.27 1.61-3 6-3.93 9s-2.87 13.52-2.87 13.52a5.49 5.49 0 0 1 -1.07 2.31c-.9 1.19-3.19 2.43-4.5 3.5s-1.75 4.38-2.3 5.89a10.62 10.62 0 0 1 -2.23 3.11.22.22 0 0 0 0 .3s5.45 4.56 8 9.21c.23.07.14.09.23.07l5.14-1c.09 0 .65-.08.67-.17a35.92 35.92 0 0 1 1.57-6.2c2-5 4.36-19.43 4.36-19.43s-5.44-8.61-2.1-17.11c1.67-1.9 2.27-2.47 2.64-3.55z" transform="translate(-14.47 -6.64)"/><path d="m36.81 10.23a4.27 4.27 0 0 0 -2.29.54c-6.74 4.81 2.36 21.43 2.36 21.43s-10.7-13.69-3.25-22a3.06 3.06 0 0 1 3.18.03z" transform="translate(-14.47 -6.64)"/><path d="m36.8 10.25s-2.49-.9-2.1-1.61c.27-.5-.11-1.1-.36-1.4a.19.19 0 0 1 .09-.31c.88-.27 3.77-.87 7.83 1.23 4.92 2.54 6.64 13.78 6.64 13.78s.49 5.18 1.91 7.93 4.31 5 6.83 7.39 6.94 16.24 6.94 16.24-5.72 1.2-13.22 2.75c-1.71-1.25-7.61-16.25-8.36-18.37a1.82 1.82 0 0 1 -.13-.51 73.14 73.14 0 0 1 -.15-8.09c.12-2.8 2.25-6.32 1.83-9.43-.63-6.48-3.41-8-5.29-9a5.87 5.87 0 0 0 -2.46-.6z" transform="translate(-14.47 -6.64)"/><path d="m37.34 8.22a7.66 7.66 0 0 1 4.06 1.43 9.48 9.48 0 0 1 3.35 4.25 18.27 18.27 0 0 1 1.33 7.36 29.55 29.55 0 0 1 -1.6 7.55c-.38 1-3.86 12.87-3.86 12.87s0-10.25 1.4-13.86c2.2-5.63-.31-13.22-.31-13.22a10.16 10.16 0 0 0 -1.8-3.22 3.71 3.71 0 0 0 -2.69-1.26c-.86.06-.98-1.9.12-1.9z" transform="translate(-14.47 -6.64)"/></g><path d="m37.51 7.53a7.49 7.49 0 0 1 4 1.41 9.29 9.29 0 0 1 3.29 4.18 18.28 18.28 0 0 1 1.31 7.23 29.69 29.69 0 0 1 -1.57 7.43c-.38.95-3.8 12.66-3.8 12.66s0-10.08 1.37-13.63c2.17-5.54-.3-13-.3-13a9.91 9.91 0 0 0 -1.81-3.17 3.6 3.6 0 0 0 -2.63-1.23c-.83.06-.95-1.88.14-1.88z" opacity=".1" transform="translate(-14.47 -6.64)"/><path d="m36.05 10.85s-1.29-1.37-.93-2.43c.3-.91-.68-1.29-.95-1.38a.17.17 0 0 0 -.17-.04 5.44 5.44 0 0 0 -2.36 1.89c-1.21 1.59-2.89 5.87-3.75 8.8s-2.71 13.31-2.71 13.31a5.61 5.61 0 0 1 -1 2.27c-.86 1.17-3.05 2.39-4.3 3.44s-1.66 4.31-2.19 5.79a10.48 10.48 0 0 1 -2.13 3.07.22.22 0 0 0 0 .29s5.21 4.48 7.69 9.06c.21.07.13.09.21.07l4.66-1a.23.23 0 0 0 .17-.17 45.93 45.93 0 0 1 1.71-6.1c1.88-4.93 2.35-10.34 3.58-14.79 1.72-6.23-3.83-13.74-.49-20.84 1.55-1.74 2.96-1.24 2.96-1.24z" fill="#96562c" transform="translate(-14.47 -6.64)"/><path d="m36.05 10.85a3.09 3.09 0 0 0 -2.18.78c-1.17 1.14-1.94 3.11-1.81 6.25.26 6.4 4.3 14.71 4.3 14.71s-10.45-13.59-3.36-21.8c1.39-1.38 3.05.06 3.05.06z" fill="#d38f62" transform="translate(-14.47 -6.64)"/><path d="m36.79 11s-2-1.17-1.76-2.4a1.79 1.79 0 0 0 -.35-1.38.19.19 0 0 1 .09-.31c.84-.26 3.6-.85 7.47 1.22 4.7 2.5 6.34 13.55 6.34 13.55s.46 5.09 1.82 7.8 4.12 4.92 6.52 7.26 6.62 16 6.62 16-5.22 1.17-12.38 2.7c-1.64-1.2-7-16-7.77-18.07a2.83 2.83 0 0 1 -.13-.5 61.87 61.87 0 0 1 -.61-7.95c.12-2.76 2.15-6.22 1.75-9.27-1-10.65-7.61-8.65-7.61-8.65z" fill="#96562c" transform="translate(-14.47 -6.64)"/><path d="m36.79 11a3 3 0 0 1 -1.47-1.65c-.24-1.1 1.17-1.17 2.23-1.17a7.12 7.12 0 0 1 3.87 1.42 9.28 9.28 0 0 1 3.2 4.18 18.75 18.75 0 0 1 1.27 7.22 29.94 29.94 0 0 1 -1.53 7.43c-.37.95-3.44 12.66-3.44 12.66s0-10.08 1.33-13.63c2.11-5.54-.53-13-.53-13a10.16 10.16 0 0 0 -1.72-3.16 3.46 3.46 0 0 0 -2.56-1.23c-.83.06-.65.93-.65.93z" fill="#d38f62" transform="translate(-14.47 -6.64)"/></g></svg>