<svg xmlns="http://www.w3.org/2000/svg" viewBox="0 0 132.97 153.94"><defs><style>.cls-1{font-size:16.79px;fill:#fff;font-family:OpenSans, Open Sans;}</style></defs><g id="Шар_2" data-name="Шар 2"><g id="Шар_3" data-name="Шар 3"><g id="icon_left"><text class="cls-1" transform="translate(25.18 79.84) rotate(-90.96)"> </text><text class="cls-1" transform="translate(25.1 75.72) rotate(-85.52)"> </text><text class="cls-1" transform="matrix(0.17, -0.99, 0.99, 0.17, 25.41, 71.65)"> </text><text class="cls-1" transform="matrix(0.26, -0.96, 0.96, 0.26, 26.1, 67.61)"> </text><text class="cls-1" transform="matrix(0.4, -0.92, 0.92, 0.4, 26.99, 63.69)">F</text><text class="cls-1" transform="matrix(0.54, -0.84, 0.84, 0.54, 30.27, 56.18)">r</text><text class="cls-1" transform="translate(33.56 50.72) rotate(-46.63)">o</text><text class="cls-1" transform="translate(40.1 43.69) rotate(-33.9)">n</text><text class="cls-1" transform="translate(48.33 38.34) rotate(-23.9)">t</text><text class="cls-1" transform="translate(53.48 36.08) rotate(-17.58)"> </text><text class="cls-1" transform="translate(57.22 34.68) rotate(-9.15)">E</text><text class="cls-1" transform="translate(65.88 33.17) rotate(3.03)">n</text><text class="cls-1" transform="matrix(0.96, 0.27, -0.27, 0.96, 75.57, 33.62)">d</text><text class="cls-1" transform="matrix(0.91, 0.41, -0.41, 0.91, 84.96, 36.51)"> </text><text class="cls-1" transform="matrix(0.86, 0.5, -0.5, 0.86, 88.75, 38.21)"> </text><text class="cls-1" transform="translate(92.33 39.84) rotate(40.44)">D</text><text class="cls-1" transform="matrix(0.59, 0.81, -0.81, 0.59, 101.11, 47.45)">E</text><text class="cls-1" transform="translate(106.37 54.49) rotate(65.76)">V</text><text class="cls-1" transform="translate(112.31 74.11) rotate(89.04)"> </text><text class="cls-1" transform="matrix(-0.08, 1, -1, -0.08, 112.39, 78.22)"> </text><text class="cls-1" transform="translate(112.48 82.13) rotate(104.77)">U</text><text class="cls-1" transform="translate(109.23 93.41) rotate(115.87)">I</text><text class="cls-1" transform="translate(107.39 97.39) rotate(121.82)">/</text><text class="cls-1" transform="matrix(-0.69, 0.73, -0.73, -0.69, 104.71, 102.39)">U</text><text class="cls-1" transform="translate(96.71 110.78) rotate(146.83)">X</text><text class="cls-1" transform="translate(88.85 115.71) rotate(155.5)"> </text><text class="cls-1" transform="translate(85.13 117.42) rotate(160.84)"> </text><text class="cls-1" transform="translate(81.55 119.08) rotate(171.07)">D</text><text class="cls-1" transform="translate(70.06 120.79) rotate(-175.57)">E</text><text class="cls-1" transform="matrix(-0.96, -0.28, 0.28, -0.96, 61.27, 120.15)">S</text><text class="cls-1" transform="translate(52.87 117.59) rotate(-155.99)">I</text><text class="cls-1" transform="matrix(-0.82, -0.57, 0.57, -0.82, 48.83, 116.19)">G</text><text class="cls-1" transform="translate(39.28 109.68) rotate(-129.64)">N</text><text class="cls-1" transform="translate(31.7 100.33) rotate(-116.04)">E</text><text class="cls-1" transform="translate(27.73 92.47) rotate(-103.91)">R</text></g></g></g></svg>