<svg xmlns="http://www.w3.org/2000/svg" xmlns:xlink="http://www.w3.org/1999/xlink" viewBox="0 0 268.49 833.32"><defs><style>.cls-1{fill:#96562c;}.cls-2,.cls-7{opacity:0.1;isolation:isolate;}.cls-3{fill:#febdca;}.cls-4{fill:#2f2e41;}.cls-5{fill:#ffc1c7;}.cls-6{fill:url(#Градієнт_без_назви_5);}.cls-8{fill:#d38f62;}</style><linearGradient id="Градієнт_без_назви_5" x1="36.84" y1="340.3" x2="211.11" y2="340.3" gradientUnits="userSpaceOnUse"><stop offset="0" stop-color="gray" stop-opacity="0.25"/><stop offset="0.54" stop-color="gray" stop-opacity="0.12"/><stop offset="1" stop-color="gray" stop-opacity="0.1"/></linearGradient></defs><g id="Шар_2" data-name="Шар 2"><g id="Шар_3" data-name="Шар 3"><rect class="cls-1" x="75.64" y="88.35" width="86.65" height="75.08"/><rect class="cls-2" x="75.72" y="88.59" width="86.65" height="75.08"/><path class="cls-3" d="M30.39,333.21,18.6,429.5S2.36,475.9,34.07,483.83s2.51-63.23,2.51-63.23l12.18-88.35Z"/><path class="cls-4" d="M59,247.57s-7.35,91.06-8.32,91.06c-.73,0-6.85.45-14.25.83-2.32.12-4.76.24-7.21.33-10.24.39-1.93-14.12-1.35-15.08s-2.13-9.86-6.57-17.21,1.54-2.32,6-8.12.39-3.09-5.22-7.73,3.29-6.19,7.93-8.12-.2-2.52-5.42-5.8-.77-18.18,0-48.34a99.06,99.06,0,0,1,10.79-41.95,69.8,69.8,0,0,1,5.26-8.9l11.41-1s5.22,20.88,5.6,23.2S59,247.57,59,247.57Z"/><path class="cls-5" d="M96.34,83.77s5.61,48-1.74,52.4-10.44,18.17-10.44,18.17l27.46,14.31,46.79-9.09L156.67,136s-22.43-1.74-17.79-13.15a133.48,133.48,0,0,0,6.77-23Z"/><path class="cls-2" d="M96.34,83.77s5.61,48-1.74,52.4-10.44,18.17-10.44,18.17l27.46,14.31,46.79-9.09L156.67,136s-22.43-1.74-17.79-13.15a133.48,133.48,0,0,0,6.77-23Z"/><path class="cls-3" d="M119.91,582c-3.07,9.53-1.35,54.39-.45,73.69q.44,9.22,0,18.46l-2,43.38,0,1.32,2.46,64-23.2-2.71-1.74-35s-2.16-8.38-5.19-21C81.51,690,66.7,624.47,70.8,611c5.61-18.36-8.31-86.81-8.31-86.81l48.72-8.7S124.1,569,119.91,582Z"/><path class="cls-3" d="M234.75,790.77l-13.53,7.74s-24.56-9.48-25.91-9.86-2.9-20.69-2.9-20.69-3.19-20.83-7.2-42.15c-2.82-15-6.05-30.28-8.85-38.67-6.76-20.3-6-88-6.76-92.41S145,507.92,145,507.92s51.62-9.67,58.2-3.87,12.76,75.79,12.37,90.68,1.74,104.79,1.74,104.79.27,13.07.68,27c.29,9.85.66,20.14,1.06,26.54a38.48,38.48,0,0,0,11,24.56Z"/><path class="cls-2" d="M213.29,791.68S200,774.09,231.08,775.44a136.14,136.14,0,0,1,8.51,10.63c5.6,7.54,42.14,36,23.78,41.38s-42,8.45-49.17,3a80.26,80.26,0,0,1-31.89,1.28s2.17-35,3.91-39.08,3.68-24.56,3.68-24.56L211,795Z"/><path class="cls-2" d="M85.3,783.83s25.14-17,38.48,0c0,0,5.6,37.89,0,42.15s-43.89,11.4-44.67,0,1.94-16.63,1.94-16.63l4.25-15.47Z"/><path class="cls-4" d="M213.29,787.68S200,770.09,231.08,771.44a136.14,136.14,0,0,1,8.51,10.63c5.6,7.54,42.14,36,23.78,41.38s-42,8.45-49.17,3a80.26,80.26,0,0,1-31.89,1.28s2.17-35,3.91-39.08,3.68-24.56,3.68-24.56L211,791Z"/><path class="cls-3" d="M115.29,2c30.83-1.95,39.37,26,39.37,58s-17.63,58-39.37,58S75.93,91.91,75.93,59.9,80.41,4.16,115.29,2Z"/><path class="cls-2" d="M61,247.57s-7.35,91.06-8.32,91.06c-.73,0-6.85.45-14.25.83a7.47,7.47,0,0,1,1.49-2.38c4.84-4.45,7.16-37.7,7.16-37.7l-6.58-59.93,5.71-52.3c2.91-5.71-3.58-8.61-3.58-8.61l11.41-1s5.22,20.88,5.6,23.2S61,247.57,61,247.57Z"/><path class="cls-6" d="M184.9,154.64s-36.73-15.08-39.44-13.73-10.05,6.77-10.05,6.77-17.21,18-40.41,12.76c0,0-7.93-3.87-7.74-15.08,0,0-24.16,12.95-31.7,21.46s-14.7,16.05-14.7,16.05l3.68,60.9,6.57,59.93S48.79,337,44,341.41s-11,42.92-3.87,105.56-7.54,83.33,1,88.93,73.47,1.94,111,3.68,60.91-8.7,59-11.41S200.56,428.41,206.94,401s1.55-85.07,1.55-85.07Z"/><path class="cls-4" d="M184.68,150.32s-36.74-15.08-39.44-13.73-10.06,6.77-10.06,6.77-17.2,18-40.4,12.76c0,0-7.93-3.87-7.74-15.08,0,0-24.17,13-31.71,21.46s-14.69,16-14.69,16l3.67,60.91,6.58,59.93s-2.32,33.25-7.16,37.7-11,42.92-3.86,105.56-7.54,83.33,1,88.94,73.47,1.93,111,3.67,60.9-8.7,59-11.4-10.44-99.77-4.06-127.22,1.55-85.07,1.55-85.07Z"/><path class="cls-3" d="M174,323.93s-10,78.5-17,85.65-9.47,64,2.71,64,23.2-62.84,23.2-62.84l18.56-85.07Z"/><path class="cls-4" d="M85.3,779.83s25.14-17,38.48,0c0,0,5.6,37.89,0,42.15s-43.89,11.4-44.67,0,1.94-16.63,1.94-16.63l4.25-15.47Z"/><path class="cls-2" d="M181.29,160.66,180,154s28.23,30.35,32.87,56.65,14.88,53.55,7.73,57.23-12.95,2.51-9.67,8.5,4.26,13.15,1,15.47-5.61,4.25-4.45,9.09,1.16,14.69-1.16,16.82-8.12,19.14-8.12,19.14-23.59-7.74-32.48-2.52-1.35-20.3-1.35-20.3-1.94-10.24-4.84-12-4.64-5-1-8.51,6.57-3.48,1.54-8.31-11.79-2.71-4.83-7.74,10.63-7.34,6-12.18-8.7-7.54-5.41-11.79S165.05,156.41,181.29,160.66Z"/><path class="cls-4" d="M178.1,151.48l6.58-1.16s28.23,30.35,32.87,56.64,14.88,53.56,7.73,57.23-12.95,2.52-9.67,8.51,4.26,13.15,1,15.47-5.61,4.25-4.45,9.08,1.16,14.7-1.16,16.82-8.12,19.14-8.12,19.14-23.59-7.73-32.48-2.51S169,310.4,169,310.4s-1.94-10.25-4.84-12-4.64-5-1-8.5,6.57-3.48,1.54-8.32-11.79-2.7-4.83-7.73,10.63-7.35,6-12.18-8.7-7.54-5.41-11.79S161.86,147.22,178.1,151.48Z"/><g class="cls-7"><path d="M102.2,9.39c1.65-4.79-3.64-4.83-5.13-5.3-.25-.07.5-.07.25,0-1.47.51-6.12.8-11.76,8C79,20.39,69.87,42.91,65.21,58.33s-13.83,69.92-13.83,69.92a42.7,42.7,0,0,1-6.51,13.93c-4.67,6.17-14.54,10.54-21.32,16.09s-10,22.62-12.86,30.44c-2.38,6.48-7.27,10.81-9.55,13.12-.42.43,19.56,21.09,20,21.54,0,0,3.21,6.57,16.65,30.62,1.16.37.73.47,1.16.37l26.59-5.44c.46-.1,3.36-.44,3.46-.88.76-3.51,3-19.21,8.1-32.08C87.23,190.05,93.6,115.52,93.6,115.52S71.5,71,88.76,27.05c0-.08-.06.06,0,0C97.16,17.89,100.3,14.94,102.2,9.39Z"/><path d="M110.17,22.61a34.48,34.48,0,0,0-11.72-1.23c-34.82,24.83,12.19,110.76,12.19,110.76S58.54,58,97.06,14.85C104.68,9.54,110.17,22.61,110.17,22.61Z"/><path d="M110.25,18.68s-9.88-4.64-7.87-8.34c1.42-2.6-.57-5.66-1.88-7.24-.45-.56-.22-.39.48-.6,4.57-1.4,14.31-4.11,35.5,5.38,26.13,11.7,33.33,71.23,33.33,71.23s3.52,28.79,10.86,43S200,144,213,156.33s34.87,82,34.87,82-24.21,5.16-64.35,18.19c-8.87-6.31-23.12-46.61-27.18-57.5-.32-.85-14.76-39.2-14.89-40.1-.8-5.85.69-29.21,1.25-41.83.63-14.5,9.6-32.7,7.46-48.74-3.25-33.53-17.63-41.5-27.34-46.68C117.21,18.65,110.25,18.68,110.25,18.68Z"/><path d="M110.06,10.16c5.72,0,14.3,2.58,21,7.4a49.3,49.3,0,0,1,17.3,22c3.77,9.91,7,20.26,6.89,38.06-.06,12.3-6.26,34.06-8.26,39-3.45,8.58,2.16,4.55-17,63.57,1.89-53,1.87-53,9.21-71.69,11.42-29.11-6.58-65.33-6.58-65.33s-4.24-12-9.33-16.67-9.43-6.78-13.88-6.47S104.34,10.16,110.06,10.16Z"/></g><path class="cls-1" d="M106.39,21.77s-6.68-7.08-4.86-12.54c1.57-4.71-3.48-6.71-4.9-7.17a1,1,0,0,0-.71,0c-1.41.49-6.79,2.75-12.18,9.79-6.27,8.19-15,30.34-19.42,45.51s-14.16,68.76-14.16,68.76a28.81,28.81,0,0,1-5.25,11.73c-4.45,6.07-15.78,12.34-22.25,17.8s-8.6,22.24-11.33,29.93C9.07,192,2.49,199.17.31,201.44a1.13,1.13,0,0,0,0,1.52S27.19,226.13,40,249.78c1.11.38.7.47,1.11.38l24.11-5.36a1.13,1.13,0,0,0,.86-.86c.73-3.45,4.13-18.9,9-31.56,9.71-25.48,12.14-53.45,18.51-76.44,8.9-32.2-19.8-71-2.51-107.73,0-.08-.06.06,0,0C99.05,19.2,106.39,21.77,106.39,21.77Z"/><path class="cls-8" d="M106.38,21.77s-6.75-.44-11.29,4c-6.06,5.93-10,16.08-9.36,32.33C87.1,91.22,108,134.2,108,134.2S53.93,63.86,90.69,21.44C97.78,14.33,106.38,21.77,106.38,21.77Z"/><path class="cls-1" d="M110.17,22.61s-10.33-6.05-9.1-12.44A9.1,9.1,0,0,0,99.28,3a1,1,0,0,1,.46-1.57c4.35-1.38,18.6-4.4,38.64,6.27,24.27,12.94,32.77,70.06,32.77,70.06s2.4,26.35,9.4,40.34,21.29,25.43,33.73,37.57,34.23,82.59,34.23,82.59-27,6.07-64,14c-8.47-6.21-36.34-82.7-40.21-93.41a12.63,12.63,0,0,1-.63-2.58c-.76-5.75-2.68-28.73-2.15-41.13.6-14.26,10.07-32.16,8-47.94C144.36,12.06,110.17,22.61,110.17,22.61Z"/><path class="cls-8" d="M110.18,22.58a15.52,15.52,0,0,1-7.59-8.49C101.35,8.37,108.66,8,114.12,8s13.65,2.54,20,7.28a48.16,48.16,0,0,1,16.51,21.6c3.6,9.74,6.65,19.93,6.58,37.43-.06,12.1-3,33.5-4.89,38.39s-17.77,65.47-17.77,65.47-.11-52.14,6.88-70.51c10.89-28.62-5.79-67.19-5.79-67.19s-4-11.84-8.9-16.39-9-6.68-13.24-6.37S110.18,22.58,110.18,22.58Z"/></g></g></svg>