<svg xmlns="http://www.w3.org/2000/svg" viewBox="0 0 231.22 145.61"><defs><style>.cls-1{opacity:0.15;}.cls-2{fill:#fe91a6;}.cls-3{fill:none;stroke:#381920;stroke-miterlimit:10;stroke-width:0.5px;}</style></defs><g id="Шар_2" data-name="Шар 2"><g id="Шар_3" data-name="Шар 3"><g id="who_am_i" data-name="who am i"><g class="cls-1"><path class="cls-2" d="M141.22,50.68C102.56,36.2,79.11,3.38,79.11,3.38S118.34-6,157,8.51c21.69,8.12,38.57,22,49.24,32.63a10.08,10.08,0,0,1-6.48,17.25C184.76,59.42,162.9,58.8,141.22,50.68Z"/><path class="cls-2" d="M28.31,119.53a70.56,70.56,0,0,1-10.87,14.76C10.33,141.77-2.11,135,.31,125a70.2,70.2,0,0,1,6.48-17.14C17.52,88.09,37,77.94,37,77.94S39,99.79,28.31,119.53Z"/><path class="cls-2" d="M113.28,94.59c-9.88-29.47-33.95-48-33.95-48s-8,29.26,1.85,58.72c4.58,13.66,12.2,25,19.06,33.15A10.07,10.07,0,0,0,118,132.57C118.59,121.84,117.86,108.24,113.28,94.59Z"/></g><g class="cls-1"><path class="cls-3" d="M162.92,50.51C124.26,36,100.81,3.22,100.81,3.22S140-6.12,178.71,8.34C200.4,16.47,217.28,30.35,228,41a10.08,10.08,0,0,1-6.48,17.25C206.46,59.26,184.6,58.63,162.92,50.51Z"/><path class="cls-3" d="M39.75,122.79a70.83,70.83,0,0,1-10.87,14.76c-7.11,7.47-19.55.72-17.14-9.32a70.48,70.48,0,0,1,6.49-17.14C29,91.34,48.42,81.19,48.42,81.19S50.48,103.05,39.75,122.79Z"/><path class="cls-3" d="M124.72,97.84c-9.88-29.46-34-48-34-48s-8,29.27,1.86,58.73c4.58,13.65,12.2,25,19.06,33.15a10.08,10.08,0,0,0,17.79-5.94C130,125.1,129.3,111.5,124.72,97.84Z"/></g></g></g></g></svg>