<svg xmlns="http://www.w3.org/2000/svg" viewBox="0 0 133.61 123.92"><defs><style>.cls-1{font-size:16.79px;fill:#fff;font-family:OpenSans, Open Sans;}</style></defs><g id="Шар_2" data-name="Шар 2"><g id="Шар_3" data-name="Шар 3"><g id="icon_left"><text class="cls-1" transform="translate(20.61 79.5) rotate(-89.8)"> </text><text class="cls-1" transform="translate(20.62 75.39) rotate(-84.36)"> </text><text class="cls-1" transform="translate(20.6 71.48) rotate(-74.07)">U</text><text class="cls-1" transform="translate(24.09 60.27) rotate(-62.96)">I</text><text class="cls-1" transform="matrix(0.54, -0.84, 0.84, 0.54, 26, 56.33)">/</text><text class="cls-1" transform="translate(28.79 51.38) rotate(-45.6)">U</text><text class="cls-1" transform="matrix(0.85, -0.53, 0.53, 0.85, 36.96, 43.16)">X</text><text class="cls-1" transform="translate(44.91 38.38) rotate(-23.34)"> </text><text class="cls-1" transform="translate(48.66 36.75) rotate(-18)"> </text><text class="cls-1" transform="translate(52.28 35.17) rotate(-7.76)">D</text><text class="cls-1" transform="translate(63.8 33.69) rotate(5.6)">E</text><text class="cls-1" transform="matrix(0.96, 0.29, -0.29, 0.96, 72.58, 34.5)">S</text><text class="cls-1" transform="translate(80.93 37.24) rotate(25.18)">I</text><text class="cls-1" transform="matrix(0.81, 0.59, -0.59, 0.81, 84.93, 38.72)">G</text><text class="cls-1" transform="matrix(0.62, 0.78, -0.78, 0.62, 94.35, 45.42)">N</text><text class="cls-1" transform="translate(101.74 54.93) rotate(65.12)">E</text><text class="cls-1" transform="matrix(0.22, 0.98, -0.98, 0.22, 105.54, 62.87)">R</text></g></g></g></svg>