<svg xmlns="http://www.w3.org/2000/svg" viewBox="0 0 33.82 33.82"><defs><style>.cls-1{fill:#6d3544;}</style></defs><g id="Шар_2" data-name="Шар 2"><g id="Шар_3" data-name="Шар 3"><g id="WORK"><path class="cls-1" d="M13.45,15.34a1.35,1.35,0,0,0,.49-1.17,1.46,1.46,0,0,0-.16-.74,1.16,1.16,0,0,0-.43-.45,1.84,1.84,0,0,0-.63-.23,3.6,3.6,0,0,0-.73-.06H9.34v3h2.87a2.07,2.07,0,0,0,1.24-.36Zm.45,2.72a2.35,2.35,0,0,0-1.48-.43H9.33v3.55h3a3.36,3.36,0,0,0,.79-.08,1.79,1.79,0,0,0,.67-.27,1.29,1.29,0,0,0,.47-.51,1.87,1.87,0,0,0,.17-.84,1.68,1.68,0,0,0-.56-1.42ZM16.91,0A16.91,16.91,0,1,0,33.82,16.91,16.91,16.91,0,0,0,16.91,0Zm3.27,10.83H25.4V12.1H20.18ZM16.91,21.32a3.2,3.2,0,0,1-1,1.17,4.4,4.4,0,0,1-1.46.67,6.43,6.43,0,0,1-1.69.22H6.49V10.5h6.08a8.56,8.56,0,0,1,1.68.16,3.74,3.74,0,0,1,1.3.53,2.6,2.6,0,0,1,.85,1,3.57,3.57,0,0,1,.29,1.51,2.76,2.76,0,0,1-.44,1.62,3.22,3.22,0,0,1-1.31,1.07,3,3,0,0,1,1.76,1.19,3.53,3.53,0,0,1,.59,2.07A3.43,3.43,0,0,1,16.91,21.32Zm10.53-2H20.7a2.66,2.66,0,0,0,.64,1.81,2.61,2.61,0,0,0,3,.17,1.65,1.65,0,0,0,.69-.82h2.26a4.31,4.31,0,0,1-1.67,2.4,4.78,4.78,0,0,1-2.7.73,5.41,5.41,0,0,1-2-.35,4.43,4.43,0,0,1-1.51-1,4.55,4.55,0,0,1-1-1.56,5.62,5.62,0,0,1-.33-2,5.48,5.48,0,0,1,.34-1.95A4.55,4.55,0,0,1,21,14.17a5.12,5.12,0,0,1,1.94-.38,4.58,4.58,0,0,1,2.08.46,4.23,4.23,0,0,1,1.45,1.24,5,5,0,0,1,.82,1.77,6.72,6.72,0,0,1,.18,2.07Zm-4.61-3.61a2.13,2.13,0,0,0-1,.21,2,2,0,0,0-.65.51,1.91,1.91,0,0,0-.35.66,2.61,2.61,0,0,0-.11.61h4.17a2.52,2.52,0,0,0-.59-1.47,2,2,0,0,0-1.46-.52Z"/></g></g></g></svg>