<?xml version="1.0" encoding="utf-8"?>
<!-- Generator: Adobe Illustrator 24.3.0, SVG Export Plug-In . SVG Version: 6.00 Build 0)  -->
<svg version="1.1" id="Шар_1" xmlns="http://www.w3.org/2000/svg" xmlns:xlink="http://www.w3.org/1999/xlink" x="0px" y="0px"
	 viewBox="0 0 371 72" style="enable-background:new 0 0 371 72;" xml:space="preserve">
<style type="text/css">
	.st0{fill:#6D3544;}
</style>
<path class="st0" d="M0,0v72h128V0H0z M34.1,43.8c1.6,1.9,3.7,2.8,6.3,2.8c2,0,3.7-0.5,5.1-1.5c1.4-1,2.5-2.3,3.2-4h9.4
	c-0.9,4.2-2.9,7.5-6,10c-3.1,2.5-6.9,3.7-11.6,3.7c-3.6,0-6.7-0.8-9.4-2.4s-4.8-3.8-6.3-6.6s-2.2-6.1-2.2-9.7c0-3.6,0.7-6.9,2.2-9.7
	s3.6-5.1,6.3-6.6s5.8-2.4,9.4-2.4c4.7,0,8.6,1.2,11.6,3.7c3.1,2.5,5.1,5.8,6,10h-9.4c-0.7-1.7-1.8-3-3.2-4c-1.4-1-3.1-1.5-5.1-1.5
	c-2.6,0-4.7,1-6.3,2.9c-1.6,1.9-2.4,4.5-2.4,7.6C31.7,39.4,32.5,41.9,34.1,43.8z M102.4,54.6h-8.9V31.8l-7.9,22.8h-7.7l-8-22.9v22.9
	h-8.9V18.1h10.9l9.9,25.4l9.7-25.4h10.8V54.6z"/>
<g>
	<path class="st0" d="M155.9,54.6V19.9h6l14.8,21.7h0.3V19.9h6.9v34.7h-6l-14.8-21.9h-0.3v21.9H155.9z"/>
	<path class="st0" d="M190.4,42.5v-2.9c0-8.3,5.4-12.5,12.1-12.5c7.1,0,12.1,4.8,12.1,12.5v3h-17.2v1.3c0,3.3,2.2,5.5,5.5,5.5
		c2.6,0,4.5-1.2,4.8-2.9h6.7c-0.2,3.5-3.6,8.5-11.5,8.5C195.4,55.1,190.4,50.7,190.4,42.5z M207.7,38.3v-0.2c0-3.4-2-5.6-5.1-5.6
		s-5.2,2.2-5.2,5.6v0.2H207.7z"/>
	<path class="st0" d="M222.8,21.2h6.9v6.7h6v5.6h-6v12.2c0,2.5,1.1,3.3,3.8,3.3c0.9,0,1.9-0.1,2.3-0.1v5.4c-0.5,0.1-2.4,0.3-4.1,0.3
		c-6.8,0-9.2-2.2-9.2-7.8V33.5h-4.1v-5.6h4.3V21.2z"/>
	<path class="st0" d="M271.3,54.6h-7.4l-5-18.7h-0.2l-4.9,18.7h-7.5l-7.2-27h7.5l3.8,19.5h0.3l4.8-19.5h6.7l5,19.5h0.3l3.8-19.5h7.1
		L271.3,54.6z"/>
	<path class="st0" d="M306.3,39.7v2.6c0,8.2-5,12.8-12.5,12.8c-7.6,0-12.5-4.5-12.5-12.7v-2.6c0-7.6,5-12.6,12.5-12.6
		C301.3,27.1,306.3,32,306.3,39.7z M288.5,39.7v2.6c0,3.7,1.6,7,5.3,7c3.7,0,5.3-3.3,5.3-7v-2.6c0-3.8-1.7-7-5.3-7
		C290.2,32.7,288.5,36,288.5,39.7z"/>
	<path class="st0" d="M312.7,27.5h7.2v4.3h0.4c0.5-1.9,2.5-4.6,6.7-4.6c1,0,1.7,0.1,2.2,0.2v6.4c-0.5-0.2-1.7-0.3-2.7-0.3
		c-4.3,0-6.3,2.5-6.3,6.1v15h-7.3V27.5z"/>
	<path class="st0" d="M341.2,54.6H334V17.6h7.1v20.9h0.3l8.6-11h8l-9.7,11.7l10.4,15.4h-8.3L343,43.4l-1.8,2V54.6z"/>
</g>
</svg>
