<svg xmlns="http://www.w3.org/2000/svg" viewBox="0 0 17.43 17.43"><defs><style>.cls-1{fill:#6d3544;}</style></defs><g id="Шар_2" data-name="Шар 2"><g id="Шар_3" data-name="Шар 3"><g id="who_am_i" data-name="who am i"><path class="cls-1" d="M12.65,17.43A12.66,12.66,0,0,1,0,4.78,4.81,4.81,0,0,1,4.2,0,1.21,1.21,0,0,1,5,.17,1.22,1.22,0,0,1,5.5.76L7.29,4.93a1.24,1.24,0,0,1,.09.6,1.21,1.21,0,0,1-.19.58L5.7,8.37l0,.08a.29.29,0,0,0,0,.09,7,7,0,0,0,3.23,3.21.15.15,0,0,0,.09,0l.08,0,2.23-1.49a1.09,1.09,0,0,1,.57-.2,1.26,1.26,0,0,1,.61.09l4.17,1.79a1.25,1.25,0,0,1,.75,1.3,4.83,4.83,0,0,1-4.77,4.2ZM4.36,1.07h0A3.77,3.77,0,0,0,2,2.31a3.73,3.73,0,0,0-.93,2.47A11.59,11.59,0,0,0,12.65,16.36a3.73,3.73,0,0,0,2.47-.93,3.83,3.83,0,0,0,1.24-2.34.23.23,0,0,0,0-.11s0-.05-.08-.07l-4.17-1.79H12a.11.11,0,0,0-.08,0L9.68,12.63a1.19,1.19,0,0,1-.6.2,1.24,1.24,0,0,1-.63-.11A8.1,8.1,0,0,1,4.73,9a1.25,1.25,0,0,1-.12-.63,1.19,1.19,0,0,1,.2-.6L6.29,5.52a.11.11,0,0,0,0-.08.28.28,0,0,0,0-.09L4.52,1.18a.27.27,0,0,0-.07-.08.16.16,0,0,0-.09,0Z"/></g></g></g></svg>