<svg xmlns="http://www.w3.org/2000/svg" viewBox="0 0 400.35 348.24"><defs><style>.cls-1,.cls-9{fill:none;}.cls-1,.cls-6{stroke:#6d3544;}.cls-1,.cls-6,.cls-9{stroke-miterlimit:10;stroke-width:0.5px;}.cls-2{fill:#fe91a6;}.cls-3,.cls-4{font-size:20.01px;font-family:Belleza-Regular, Belleza;}.cls-3,.cls-4,.cls-5{fill:#fff;}.cls-3{letter-spacing:-0.03em;}.cls-4{letter-spacing:-0.03em;}.cls-6,.cls-8{fill:#f7f73a;}.cls-7{fill:#6d3544;}.cls-9{stroke:#381920;}</style></defs><g id="Шар_2" data-name="Шар 2"><g id="Шар_3" data-name="Шар 3"><g id="skils_desing"><rect class="cls-1" x="23.49" y="310.09" width="33.16" height="33.16" rx="8"/><rect class="cls-2" x="17.49" y="315.09" width="33.16" height="33.16" rx="8"/><rect class="cls-1" x="71.43" y="310.09" width="33.16" height="33.16" rx="8"/><rect class="cls-2" x="65.43" y="315.09" width="33.16" height="33.16" rx="8"/><rect class="cls-1" x="121.88" y="310.09" width="33.16" height="33.16" rx="8"/><rect class="cls-2" x="115.88" y="315.09" width="33.16" height="33.16" rx="8"/><rect class="cls-1" x="174.55" y="310.09" width="33.16" height="33.16" rx="8"/><rect class="cls-2" x="168.55" y="315.09" width="33.16" height="33.16" rx="8"/><rect class="cls-1" x="226.15" y="310.09" width="33.16" height="33.16" rx="8"/><rect class="cls-2" x="220.15" y="315.09" width="33.16" height="33.16" rx="8"/><rect class="cls-1" x="275.73" y="310.09" width="64.23" height="33.16" rx="11.13"/><rect class="cls-2" x="264.1" y="315.09" width="64.23" height="33.16" rx="11.13"/><text class="cls-3" transform="translate(72.34 338.46) scale(1.11 1)">Ps</text><text class="cls-4" transform="translate(123.93 337.05) scale(1.11 1)">Ai</text><text class="cls-4" transform="translate(174.55 337.05) scale(1.11 1)">Ae</text><text class="cls-4" transform="translate(224.96 337.05) scale(1.11 1)">An</text><text class="cls-3" transform="translate(272.83 337.05) scale(1.11 1)">axure</text><path class="cls-5" d="M38.4,328.72a3.35,3.35,0,0,0,.59-5.61,3.35,3.35,0,0,0-2.08-.72h-6a3.32,3.32,0,0,0-2.07.72,3.36,3.36,0,0,0-1,4,3.35,3.35,0,0,0,1.54,1.57A3.41,3.41,0,0,0,28.09,330a3.35,3.35,0,0,0,0,3.52,3.27,3.27,0,0,0,1.35,1.23,3.36,3.36,0,0,0-1.85,2.84,3.39,3.39,0,0,0,.39,1.71,3.34,3.34,0,0,0,4.58,1.36,3.33,3.33,0,0,0,1.25-1.22,3.39,3.39,0,0,0,.46-1.7v-3.93a3.27,3.27,0,0,0,1.15.94,3.2,3.2,0,0,0,1.45.35,3.36,3.36,0,0,0,2.63-1.22,3.46,3.46,0,0,0,.66-1.33,3.34,3.34,0,0,0-.61-2.84A3.5,3.5,0,0,0,38.4,328.72Zm1.15-3a2.63,2.63,0,0,1-2.64,2.64H34.27v-5.28h2.64a2.65,2.65,0,0,1,2.64,2.64Zm-4.69,3.34a3.66,3.66,0,0,0-.59.59v-.59Zm-6.57-3.34a2.66,2.66,0,0,1,2.64-2.64h2.64v5.28H30.93a2.63,2.63,0,0,1-2.64-2.64Zm2.64,14.6a2.63,2.63,0,0,1-2.46-1.62,2.73,2.73,0,0,1-.2-1,2.61,2.61,0,0,1,.78-1.87,2.58,2.58,0,0,1,.86-.57,2.76,2.76,0,0,1,1-.2h2.64v2.64a2.63,2.63,0,0,1-2.64,2.64Zm2.64-6H30.93a2.63,2.63,0,0,1-2.64-2.64,2.65,2.65,0,0,1,2.64-2.64h2.64Zm3.34,0a2.63,2.63,0,0,1-2.62-2.64,2.66,2.66,0,0,1,.76-1.86,2.69,2.69,0,0,1,1.86-.78h0a2.65,2.65,0,0,1,2.64,2.64,2.63,2.63,0,0,1-2.64,2.64Z"/></g><path class="cls-1" d="M18.92,241.3H339.31c40.05,0,60.93,10.78,60.93,10.78"/><path class="cls-1" d="M347,116.25H331.62V90.47a9,9,0,0,0-9-9H255.37V23.35a7,7,0,0,0-7-7H19.25a7,7,0,0,0-7,7V158.13a18,18,0,0,0,18,18H206.07v45.36a9,9,0,0,0,9,9H322.62a9,9,0,0,0,5.58-2H347a9,9,0,0,0,9-9V125.25A9,9,0,0,0,347,116.25Z"/><path class="cls-6" d="M157.1,187.45H86.52c-.89,22.19-18.1,38.79-18.1,38.79H175.2S158,209.64,157.1,187.45Z"/><rect class="cls-6" x="60.81" y="225.16" width="122" height="16.28" rx="7.97"/><rect class="cls-7" x="69.23" y="233.75" width="105.16" height="7.68" rx="3.84"/><path class="cls-6" d="M225.37,187.13H18.25a18,18,0,0,1-18-18V34.35a7,7,0,0,1,7-7H236.37a7,7,0,0,1,7,7V169.13A18,18,0,0,1,225.37,187.13Z"/><line class="cls-1" x1="243.13" y1="162.34" x2="0.5" y2="162.34"/><rect class="cls-2" x="12.35" y="41.83" width="218.93" height="110.72"/><path class="cls-1" d="M225,101.3c-9.13-1.79-17.22,6-22.48,13.65S192,131.59,183.11,134.21c-12.83,3.76-24.58-7.45-34.72-16.17a125.73,125.73,0,0,0-24.61-16.56c-3.54-1.82-7.24-3.49-11.19-4-5.69-.69-11.35,1.14-16.77,3Q68.7,109.7,42,120.17"/><path class="cls-8" d="M100.44,76.16a20.86,20.86,0,1,1-40,2.78l10.74.52L62,74.38a20.78,20.78,0,0,1,11.75-10.7,20.14,20.14,0,0,1,5.64-1.2A20.87,20.87,0,0,1,100.44,76.16Z"/><path class="cls-1" d="M97.67,77a20.86,20.86,0,1,1-40,2.78l10.74.52L59.2,75.24A20.81,20.81,0,0,1,71,64.54a20.28,20.28,0,0,1,5.65-1.2A20.84,20.84,0,0,1,97.67,77Z"/><path class="cls-8" d="M38.34,98.75a20.84,20.84,0,0,0-13.23,15l10.21,1.72L24.6,118.66A20.86,20.86,0,1,0,38.34,98.75Z"/><path class="cls-1" d="M34.65,99.89a20.87,20.87,0,0,0-13.23,15l10.21,1.72-10.72,3.18A20.83,20.83,0,1,0,34.65,99.89Z"/><path class="cls-8" d="M148.6,114.38a20.85,20.85,0,0,1-37.1,18.46l8.23-2.45-10.32-1.73a.14.14,0,0,1,0-.06,20.86,20.86,0,1,1,39.2-14.26v0Z"/><path class="cls-1" d="M144.87,115.37a20.86,20.86,0,0,1-37.11,18.46l8.24-2.45-10.33-1.73s0,0,0-.05a20.86,20.86,0,1,1,39.2-14.27Z"/><path class="cls-8" d="M183.24,92.66a20.85,20.85,0,1,1-16.33,4l14,9.29-7.43-12.69A20.6,20.6,0,0,1,183.24,92.66Z"/><path class="cls-1" d="M180.48,93.52a20.83,20.83,0,1,1-16.34,4l14,9.29-7.42-12.69A20.6,20.6,0,0,1,180.48,93.52Z"/><circle class="cls-7" cx="169.01" cy="113.69" r="1.37"/><circle class="cls-7" cx="177.21" cy="124.62" r="1.37"/><circle class="cls-7" cx="188.13" cy="105.5" r="1.37"/><circle class="cls-7" cx="186.76" cy="117.79" r="2.73"/><circle class="cls-7" cx="126.95" cy="132.14" r="1.37"/><circle class="cls-7" cx="139.6" cy="127.02" r="1.37"/><circle class="cls-7" cx="123.93" cy="111.56" r="1.37"/><circle class="cls-7" cx="135.46" cy="116.03" r="2.73"/><circle class="cls-7" cx="70.97" cy="86.93" r="1.37"/><circle class="cls-7" cx="83.46" cy="92.46" r="1.37"/><circle class="cls-7" cx="83.64" cy="70.45" r="1.37"/><circle class="cls-7" cx="88.46" cy="81.83" r="2.73"/><circle class="cls-7" cx="41.17" cy="127.42" r="1.37"/><circle class="cls-7" cx="54.71" cy="125.7" r="1.37"/><circle class="cls-7" cx="43.51" cy="106.76" r="1.37"/><circle class="cls-7" cx="53.51" cy="114.02" r="2.73"/><path class="cls-5" d="M20.81,59.2a2,2,0,0,0-1.95,3.15,28.8,28.8,0,0,0,8.46,8.35,30,30,0,0,0,15.17,4A30,30,0,0,0,32.06,63,28.58,28.58,0,0,0,20.81,59.2Z"/><path class="cls-5" d="M53.69,61.65a16.3,16.3,0,0,0,7.11-4.73,14.27,14.27,0,0,0,2-3.13,2,2,0,0,0-3-2.5A14,14,0,0,0,57,53.78,16.32,16.32,0,0,0,53.69,61.65Z"/><path class="cls-5" d="M39.81,47.73a2.06,2.06,0,0,1,1-1.28,2,2,0,0,1,2.75.8A20.76,20.76,0,0,1,46,54.53a22.58,22.58,0,0,1-1.91,11.66,22.63,22.63,0,0,1-4.84-10.78A20.84,20.84,0,0,1,39.81,47.73Z"/><path class="cls-5" d="M85.89,142.82a1.23,1.23,0,0,0,.22.85,1.22,1.22,0,0,0,1.69.3,17.23,17.23,0,0,0,5-5.14,18,18,0,0,0,2.31-9.14,18,18,0,0,0-7,6.34A17.2,17.2,0,0,0,85.89,142.82Z"/><path class="cls-5" d="M87.13,123.06a9.76,9.76,0,0,0-2.89-4.24,8.75,8.75,0,0,0-1.9-1.15,1.22,1.22,0,0,0-1.48,1.84,8.28,8.28,0,0,0,1.52,1.61A9.87,9.87,0,0,0,87.13,123.06Z"/><path class="cls-5" d="M78.87,131.49a1.24,1.24,0,0,1-.78-.58,1.22,1.22,0,0,1,.46-1.66,12.33,12.33,0,0,1,4.36-1.54,13.56,13.56,0,0,1,7,1.06,13.51,13.51,0,0,1-6.44,3A12.61,12.61,0,0,1,78.87,131.49Z"/><path class="cls-5" d="M154.4,74.57a24.72,24.72,0,0,0,4.7,12.07A24.75,24.75,0,0,0,161.84,74a23.68,23.68,0,0,0-3-9.34,1.67,1.67,0,0,0-3,.25A23.39,23.39,0,0,0,154.4,74.57Z"/><path class="cls-5" d="M138.26,89.43a11.62,11.62,0,0,0-2.85,1,1.68,1.68,0,0,0,.7,3.16,11.4,11.4,0,0,0,3-.25,13.47,13.47,0,0,0,6.15-3.45A13.49,13.49,0,0,0,138.26,89.43Z"/><path class="cls-5" d="M146.12,77a18.62,18.62,0,0,1,6.09,7.6,18.6,18.6,0,0,1-9.28-3,17.4,17.4,0,0,1-4.41-4.56,1.67,1.67,0,0,1,.45-2.32,1.64,1.64,0,0,1,1.31-.24A17,17,0,0,1,146.12,77Z"/><path class="cls-5" d="M213.35,65.63a24.76,24.76,0,0,0-4.11,12.28,24.81,24.81,0,0,0,10.21-8,23.59,23.59,0,0,0,3.71-9.07,1.66,1.66,0,0,0-1.31-2,1.63,1.63,0,0,0-1.18.2A23.59,23.59,0,0,0,213.35,65.63Z"/><path class="cls-5" d="M191.45,66.71a11.29,11.29,0,0,0-2.87-1,1.68,1.68,0,0,0-1.48,2.88,12,12,0,0,0,2.49,1.75,13.47,13.47,0,0,0,6.92,1.28A13.38,13.38,0,0,0,191.45,66.71Z"/><path class="cls-5" d="M205.43,62.21a18.58,18.58,0,0,1-.19,9.74A18.58,18.58,0,0,1,200,63.73a17.33,17.33,0,0,1-.47-6.33,1.66,1.66,0,0,1,1.83-1.49,1.64,1.64,0,0,1,1.16.65A17,17,0,0,1,205.43,62.21Z"/><rect class="cls-6" x="194.07" y="92.47" width="125.55" height="149.02" rx="9"/><rect class="cls-2" x="201.79" y="102.74" width="110.11" height="125.38" rx="6"/><path class="cls-7" d="M254.24,97.2a2.61,2.61,0,1,1,2.6,2.6A2.61,2.61,0,0,1,254.24,97.2Zm2.6-2a2,2,0,0,0-2,2h0a2,2,0,1,0,2-2Z"/><path class="cls-1" d="M253.52,233.75a3.33,3.33,0,1,1,3.32,3.32A3.32,3.32,0,0,1,253.52,233.75Zm.77,0h0a2.56,2.56,0,1,0,2.55-2.56A2.55,2.55,0,0,0,254.29,233.75Z"/><path class="cls-1" d="M257.73,227.32c1-5.1-3.34-9.63-7.63-12.57s-9.3-5.83-10.76-10.81c-2.1-7.18,4.16-13.74,9-19.41a69.78,69.78,0,0,0,9.26-13.75,18.84,18.84,0,0,0,2.21-6.25c.39-3.18-.63-6.34-1.66-9.38q-5.15-15.15-11-30"/><path class="cls-8" d="M271.77,157.74a11.66,11.66,0,1,1-1.55-22.36l-.29,6,2.84-5.14a11.6,11.6,0,0,1,6,6.57,11.28,11.28,0,0,1,.67,3.15A11.65,11.65,0,0,1,271.77,157.74Z"/><path class="cls-1" d="M271.29,156.19a11.66,11.66,0,1,1-1.55-22.35l-.29,6,2.84-5.14a11.62,11.62,0,0,1,6,6.56,11.43,11.43,0,0,1,.67,3.16A11.63,11.63,0,0,1,271.29,156.19Z"/><path class="cls-8" d="M259.15,123a11.61,11.61,0,0,0-8.39-7.39l-1,5.7-1.77-6a11.66,11.66,0,1,0,11.82,11.48,11.46,11.46,0,0,0-.7-3.8Z"/><path class="cls-1" d="M258.51,121a11.61,11.61,0,0,0-8.39-7.39l-1,5.7-1.77-6a11.66,11.66,0,1,0,11.82,11.48A11.46,11.46,0,0,0,258.51,121Z"/><path class="cls-8" d="M250.42,184.65a11.65,11.65,0,0,1-10.31-20.73l1.36,4.6,1-5.77h0a11.65,11.65,0,1,1,8,21.9Z"/><path class="cls-1" d="M249.87,182.56a11.65,11.65,0,0,1-10.32-20.73l1.37,4.6,1-5.77h0a11.66,11.66,0,1,1,8,21.91Z"/><path class="cls-8" d="M262.56,204a11.65,11.65,0,1,1-2.25-9.13l-5.19,7.82,7.09-4.15A11.61,11.61,0,0,1,262.56,204Z"/><path class="cls-1" d="M262.08,202.46a11.65,11.65,0,1,1-2.25-9.13l-5.19,7.82,7.09-4.15A11.61,11.61,0,0,1,262.08,202.46Z"/><circle class="cls-7" cx="250.8" cy="196.06" r="0.76"/><circle class="cls-7" cx="244.7" cy="200.63" r="0.76"/><circle class="cls-7" cx="255.38" cy="206.74" r="0.76"/><circle class="cls-7" cx="248.51" cy="205.97" r="1.53"/><circle class="cls-7" cx="240.5" cy="172.55" r="0.76"/><circle class="cls-7" cx="243.36" cy="179.62" r="0.76"/><circle class="cls-7" cx="251.99" cy="170.87" r="0.76"/><circle class="cls-7" cx="249.5" cy="177.31" r="1.53"/><circle class="cls-7" cx="265.76" cy="141.27" r="0.76"/><circle class="cls-7" cx="262.67" cy="148.25" r="0.76"/><circle class="cls-7" cx="274.97" cy="148.35" r="0.76"/><circle class="cls-7" cx="268.61" cy="151.04" r="1.53"/><circle class="cls-7" cx="243.13" cy="124.62" r="0.76"/><circle class="cls-7" cx="244.09" cy="132.19" r="0.76"/><circle class="cls-7" cx="254.68" cy="125.93" r="0.76"/><circle class="cls-7" cx="250.62" cy="131.51" r="1.53"/><path class="cls-6" d="M339,129.25H301.17a9,9,0,0,0-9,9V156a1.15,1.15,0,0,0-.77,1.07v10.54a1.16,1.16,0,0,0,.77,1.07v63.88a9,9,0,0,0,9,9H339a9,9,0,0,0,9-9V138.25A9,9,0,0,0,339,129.25Z"/><path class="cls-2" d="M301.76,132h4.65a3.47,3.47,0,0,0,3.2,4.77h20.44a3.46,3.46,0,0,0,3.2-4.77h4.35a7.28,7.28,0,0,1,7.28,7.28v92.24a7.28,7.28,0,0,1-7.28,7.28H301.76a7.28,7.28,0,0,1-7.28-7.28h0V139.27A7.28,7.28,0,0,1,301.76,132Z"/><path class="cls-1" d="M320.37,238.1c.79-4-2.62-7.56-6-9.86s-7.3-4.58-8.45-8.49c-1.65-5.63,3.27-10.78,7.09-15.22a54.84,54.84,0,0,0,7.26-10.79,14.79,14.79,0,0,0,1.74-4.91c.3-2.49-.5-5-1.31-7.35q-4-11.89-8.62-23.58"/><path class="cls-8" d="M331.39,183.5a9.15,9.15,0,0,1-6.25-17.19,9.27,9.27,0,0,1,5-.35l-.22,4.71,2.22-4a9.09,9.09,0,0,1,4.7,5.15,8.71,8.71,0,0,1,.52,2.47A9.13,9.13,0,0,1,331.39,183.5Z"/><path class="cls-1" d="M331,182.29a9.15,9.15,0,0,1-6.25-17.19,9.26,9.26,0,0,1,5-.35l-.23,4.71,2.23-4a9.14,9.14,0,0,1-.78,16.86Z"/><path class="cls-8" d="M321.49,156.28a9.12,9.12,0,0,0-6.58-5.8l-.75,4.47-1.4-4.7a9.16,9.16,0,1,0,8.73,6Z"/><path class="cls-1" d="M321,154.66a9.14,9.14,0,0,0-6.58-5.8l-.76,4.48-1.39-4.7a9.14,9.14,0,1,0,9.28,9A9.25,9.25,0,0,0,321,154.66Z"/><path class="cls-8" d="M314.64,204.62a9.14,9.14,0,0,1-8.09-16.27l1.07,3.61.76-4.53h0a9.14,9.14,0,0,1,6.26,17.18Z"/><path class="cls-1" d="M314.2,203a9.14,9.14,0,0,1-8.09-16.27l1.07,3.62.76-4.53h0A9.15,9.15,0,1,1,314.22,203Z"/><path class="cls-8" d="M324.16,219.81a9.13,9.13,0,1,1-1.76-7.17l-4.08,6.14,5.57-3.26A9.17,9.17,0,0,1,324.16,219.81Z"/><path class="cls-1" d="M323.78,218.59a9.13,9.13,0,1,1-1.76-7.16L318,217.56l5.56-3.25A8.88,8.88,0,0,1,323.78,218.59Z"/><path class="cls-8" d="M333.77,29.2c-5,13.35-16.33,21.45-16.33,21.45s-3.22-13.55,1.77-26.9a49.19,49.19,0,0,1,11.27-17,3.48,3.48,0,0,1,6,2.23A49,49,0,0,1,333.77,29.2Z"/><path class="cls-8" d="M357.55,68.19a24,24,0,0,1,5.09,3.75,3.49,3.49,0,0,1-3.21,5.92,24.64,24.64,0,0,1-5.92-2.24,28,28,0,0,1-10.32-10.43A28,28,0,0,1,357.55,68.19Z"/><path class="cls-8" d="M348.93,38.85c-10.17,3.41-16.56,11.72-16.56,11.72s10.11,2.78,20.28-.64a35.87,35.87,0,0,0,11.45-6.58,3.48,3.48,0,0,0-2.05-6.14A35.68,35.68,0,0,0,348.93,38.85Z"/><path class="cls-9" d="M341.16,23.75c-5,13.35-16.33,21.44-16.33,21.44s-3.23-13.54,1.77-26.9a49.15,49.15,0,0,1,11.27-17,3.48,3.48,0,0,1,5.95,2.24A49,49,0,0,1,341.16,23.75Z"/><path class="cls-9" d="M366.12,66.28A24,24,0,0,1,371.21,70,3.49,3.49,0,0,1,368,76a24.33,24.33,0,0,1-5.92-2.24,28.06,28.06,0,0,1-10.33-10.43A28,28,0,0,1,366.12,66.28Z"/><path class="cls-9" d="M357.5,36.94c-10.17,3.41-16.56,11.72-16.56,11.72s10.11,2.78,20.28-.64a35.87,35.87,0,0,0,11.45-6.58,3.48,3.48,0,0,0-2.05-6.14A35.46,35.46,0,0,0,357.5,36.94Z"/><rect class="cls-7" x="299.22" y="271.52" width="60.9" height="0.64"/><rect class="cls-7" x="226.79" y="271.52" width="60.89" height="0.64"/><rect class="cls-7" x="97.47" y="271.52" width="60.89" height="0.64"/><circle class="cls-7" cx="311.07" cy="271.84" r="3.7"/><circle class="cls-7" cx="257.24" cy="271.84" r="3.7"/><circle class="cls-7" cx="151" cy="271.84" r="3.7"/></g></g></svg>