<svg xmlns="http://www.w3.org/2000/svg" viewBox="0 0 39.41 38.41"><defs><style>.cls-1{fill:none;stroke:#6d3544;stroke-miterlimit:10;stroke-width:0.5px;}.cls-2{fill:#fe91a6;}.cls-3{fill:#fff;}</style></defs><g id="Шар_2" data-name="Шар 2"><g id="Шар_3" data-name="Шар 3"><g id="skils_desing"><rect class="cls-1" x="6" y="0.25" width="33.16" height="33.16" rx="8"/><rect class="cls-2" y="5.25" width="33.16" height="33.16" rx="8"/><path class="cls-3" d="M20.91,18.89a3.35,3.35,0,0,0-1.49-6.34h-6a3.37,3.37,0,0,0-3.25,2.58A3.35,3.35,0,0,0,12,18.89a3.34,3.34,0,0,0-1.35,4.75A3.48,3.48,0,0,0,12,24.87,3.35,3.35,0,0,0,10.64,26a3.26,3.26,0,0,0-.53,1.66,3.31,3.31,0,0,0,.38,1.72,3.35,3.35,0,0,0,1.2,1.28,3.3,3.3,0,0,0,1.68.5,3.31,3.31,0,0,0,3-1.65,3.26,3.26,0,0,0,.47-1.69V23.92a3.32,3.32,0,0,0,1.15.95,3.4,3.4,0,0,0,1.44.35,3.44,3.44,0,0,0,1.45-.31A3.53,3.53,0,0,0,22,24a3.37,3.37,0,0,0,.66-1.34,3.22,3.22,0,0,0,0-1.48,3.28,3.28,0,0,0-.63-1.35A3.18,3.18,0,0,0,20.91,18.89Zm1.15-3a2.63,2.63,0,0,1-.77,1.86,2.68,2.68,0,0,1-1.86.78H16.79V13.26h2.63a2.63,2.63,0,0,1,2.64,2.64Zm-4.68,3.34a3.3,3.3,0,0,0-.59.59v-.59ZM10.8,15.9A2.68,2.68,0,0,1,11.58,14a2.63,2.63,0,0,1,1.86-.77h2.64v5.28H13.44A2.66,2.66,0,0,1,10.8,15.9Zm2.64,14.6a2.67,2.67,0,0,1-1-.2,2.53,2.53,0,0,1-.87-.57,2.64,2.64,0,0,1-.57-.86,2.5,2.5,0,0,1-.21-1,2.55,2.55,0,0,1,.21-1,2.75,2.75,0,0,1,.57-.86,2.85,2.85,0,0,1,.87-.57,2.67,2.67,0,0,1,1-.19h2.64v2.64a2.65,2.65,0,0,1-2.64,2.64Zm2.64-6H13.44a2.66,2.66,0,0,1-2.64-2.64,2.65,2.65,0,0,1,2.64-2.64h2.64Zm3.34,0a2.68,2.68,0,0,1-1.85-.78,2.65,2.65,0,0,1-.77-1.86,2.63,2.63,0,0,1,2.62-2.64h0a2.64,2.64,0,0,1,0,5.28Z"/></g></g></g></svg>