<svg xmlns="http://www.w3.org/2000/svg" viewBox="0 0 124.22 121.08"><defs><style>.cls-1{font-size:16.79px;fill:#fff;font-family:OpenSans, Open Sans;}</style></defs><g id="Шар_2" data-name="Шар 2"><g id="Шар_3" data-name="Шар 3"><g id="icon_left"><text class="cls-1" transform="translate(20.61 79.5) rotate(-89.8)"> </text><text class="cls-1" transform="translate(20.62 75.39) rotate(-84.36)"> </text><text class="cls-1" transform="translate(21 71.32) rotate(-78.95)"> </text><text class="cls-1" transform="translate(21.78 67.3) rotate(-73.53)"> </text><text class="cls-1" transform="matrix(0.41, -0.91, 0.91, 0.41, 22.75, 63.4)">F</text><text class="cls-1" transform="translate(26.18 55.96) rotate(-56.02)">r</text><text class="cls-1" transform="translate(29.58 50.56) rotate(-45.46)">o</text><text class="cls-1" transform="matrix(0.84, -0.54, 0.54, 0.84, 36.26, 43.67)">n</text><text class="cls-1" transform="translate(44.6 38.49) rotate(-22.74)">t</text><text class="cls-1" transform="translate(49.8 36.34) rotate(-16.42)"> </text><text class="cls-1" transform="translate(53.56 35.01) rotate(-7.98)">E</text><text class="cls-1" transform="matrix(1, 0.07, -0.07, 1, 62.25, 33.68)">n</text><text class="cls-1" transform="translate(71.93 34.32) rotate(16.97)">d</text><text class="cls-1" transform="translate(81.26 37.4) rotate(25.18)"> </text><text class="cls-1" transform="translate(85.02 38.76) rotate(36.19)">D</text><text class="cls-1" transform="matrix(0.65, 0.76, -0.76, 0.65, 94.33, 45.7)">E</text><text class="cls-1" transform="translate(100.1 52.34) rotate(61.57)">V</text></g></g></g></svg>