<svg id="ewGl2WPs3uy1" xmlns="http://www.w3.org/2000/svg" xmlns:xlink="http://www.w3.org/1999/xlink" viewBox="0 0 268.49 833.32" shape-rendering="geometricPrecision" text-rendering="geometricPrecision" style="background-color:transparent"><defs><linearGradient id="ewGl2WPs3uy17-fill" x1="36.84" y1="340.3" x2="211.11" y2="340.3" spreadMethod="pad" gradientUnits="userSpaceOnUse" gradientTransform="matrix(1 0 0 1 0 0)"><stop id="ewGl2WPs3uy17-fill-0" offset="0%" stop-color="rgba(128,128,128,0.25)"/><stop id="ewGl2WPs3uy17-fill-1" offset="54%" stop-color="rgba(128,128,128,0.12)"/><stop id="ewGl2WPs3uy17-fill-2" offset="100%" stop-color="rgba(128,128,128,0.1)"/></linearGradient></defs><g id="ewGl2WPs3uy2"><g id="ewGl2WPs3uy3"><rect id="ewGl2WPs3uy4" width="86.65" height="75.08" rx="0" ry="0" transform="matrix(1 0 0 1 75.64 88.35)" fill="rgb(150,86,44)" stroke="none" stroke-width="1"/><rect id="ewGl2WPs3uy5" style="isolation:isolate" width="86.65" height="75.08" rx="0" ry="0" transform="matrix(1 0 0 1 75.72 88.59)" opacity="0.1" fill="rgb(0,0,0)" stroke="none" stroke-width="1"/><path id="ewGl2WPs3uy6" d="M30.39,333.21L18.6,429.5C18.6,429.5,2.36,475.9,34.07,483.83C65.78,491.76,36.58,420.6,36.58,420.6L48.76,332.25Z" fill="rgb(254,189,202)" stroke="none" stroke-width="1"/><path id="ewGl2WPs3uy7" d="M59,247.57C59,247.57,51.65,338.63,50.68,338.63C49.95,338.63,43.83,339.08,36.43,339.46C34.11,339.58,31.67,339.7,29.22,339.79C18.98,340.18,27.29,325.67,27.87,324.71C28.45,323.75,25.74,314.85,21.3,307.5C16.86,300.15,22.84,305.18,27.3,299.38C31.76,293.58,27.69,296.29,22.08,291.65C16.47,287.01,25.37,285.46,30.01,283.53C34.65,281.6,29.81,281.01,24.59,277.73C19.37,274.45,23.82,259.55,24.59,229.39C25.047985,214.781909,28.73273,200.456139,35.38,187.44C36.910922,184.347389,38.669077,181.372565,40.64,178.54L52.05,177.54C52.05,177.54,57.27,198.42,57.65,200.74C58.03,203.06,59,247.57,59,247.57Z" fill="rgb(47,46,65)" stroke="none" stroke-width="1"/><path id="ewGl2WPs3uy8" d="M96.34,83.77C96.34,83.77,101.95,131.77,94.6,136.17C87.25,140.57,84.16,154.34,84.16,154.34L111.62,168.65L158.41,159.56L156.67,136C156.67,136,134.24,134.26,138.88,122.85C141.822035,115.401937,144.08784,107.704226,145.65,99.85Z" fill="rgb(255,193,199)" stroke="none" stroke-width="1"/><path id="ewGl2WPs3uy9" style="isolation:isolate" d="M96.34,83.77C96.34,83.77,101.95,131.77,94.6,136.17C87.25,140.57,84.16,154.34,84.16,154.34L111.62,168.65L158.41,159.56L156.67,136C156.67,136,134.24,134.26,138.88,122.85C141.822035,115.401937,144.08784,107.704226,145.65,99.85Z" opacity="0.1" fill="rgb(0,0,0)" stroke="none" stroke-width="1"/><path id="ewGl2WPs3uy10" d="M119.91,582C116.84,591.53,118.56,636.39,119.46,655.69Q119.9,664.91,119.46,674.15L117.46,717.53L117.46,718.85L119.92,782.85L96.72,780.14L94.98,745.14C94.98,745.14,92.82,736.76,89.79,724.14C81.51,690,66.7,624.47,70.8,611C76.41,592.64,62.49,524.19,62.49,524.19L111.21,515.49C111.21,515.49,124.1,569,119.91,582Z" fill="rgb(254,189,202)" stroke="none" stroke-width="1"/><path id="ewGl2WPs3uy11" d="M234.75,790.77L221.22,798.51C221.22,798.51,196.66,789.03,195.31,788.65C193.96,788.27,192.41,767.96,192.41,767.96C192.41,767.96,189.22,747.13,185.21,725.81C182.39,710.81,179.16,695.53,176.36,687.14C169.6,666.84,170.36,599.14,169.6,594.73C168.84,590.32,145,507.92,145,507.92C145,507.92,196.62,498.25,203.2,504.05C209.78,509.85,215.96,579.84,215.57,594.73C215.18,609.62,217.31,699.52,217.31,699.52C217.31,699.52,217.58,712.59,217.99,726.52C218.28,736.37,218.65,746.66,219.05,753.06C219.6412,762.303763,223.546881,771.024084,230.05,777.62Z" fill="rgb(254,189,202)" stroke="none" stroke-width="1"/><path id="ewGl2WPs3uy12" style="isolation:isolate" d="M213.29,791.68C213.29,791.68,200,774.09,231.08,775.44C234.092205,778.839164,236.932423,782.386934,239.59,786.07C245.19,793.61,281.73,822.07,263.37,827.45C245.01,832.83,221.37,835.9,214.2,830.45C203.762874,833.007205,192.918502,833.442476,182.31,831.73C171.701498,830.017524,184.48,796.73,186.22,792.65C187.96,788.57,189.9,768.09,189.9,768.09L211,795Z" opacity="0.1" fill="rgb(0,0,0)" stroke="none" stroke-width="1"/><path id="ewGl2WPs3uy13" style="isolation:isolate" d="M85.3,783.83C85.3,783.83,110.44,766.83,123.78,783.83C123.78,783.83,129.38,821.72,123.78,825.98C118.18,830.24,79.89,837.38,79.11,825.98C78.33,814.58,81.05,809.35,81.05,809.35L85.3,793.88Z" opacity="0.1" fill="rgb(0,0,0)" stroke="none" stroke-width="1"/><path id="ewGl2WPs3uy14" d="M213.29,787.68C213.29,787.68,200,770.09,231.08,771.44C234.092205,774.839164,236.932423,778.386934,239.59,782.07C245.19,789.61,281.73,818.07,263.37,823.45C245.01,828.83,221.37,831.9,214.2,826.45C203.762874,829.007205,192.918502,829.442476,182.31,827.73C171.701498,826.017524,184.48,792.73,186.22,788.65C187.96,784.57,189.9,764.09,189.9,764.09L211,791Z" fill="rgb(47,46,65)" stroke="none" stroke-width="1"/><path id="ewGl2WPs3uy15" d="M115.29,2C146.12,0.05,154.66,28,154.66,60C154.66,92,137.03,118,115.29,118C93.55,118,75.93,91.91,75.93,59.9C75.93,27.89,80.41,4.16,115.29,2Z" fill="rgb(254,189,202)" stroke="none" stroke-width="1"/><path id="ewGl2WPs3uy16" style="isolation:isolate" d="M61,247.57C61,247.57,53.65,338.63,52.68,338.63C51.95,338.63,45.83,339.08,38.43,339.46C38.771756,338.579613,39.277353,337.772014,39.92,337.08C44.76,332.63,47.08,299.38,47.08,299.38L40.5,239.45L46.21,187.15C49.12,181.44,42.63,178.54,42.63,178.54L54.04,177.54C54.04,177.54,59.26,198.42,59.64,200.74C60.02,203.06,61,247.57,61,247.57Z" opacity="0.1" fill="rgb(0,0,0)" stroke="none" stroke-width="1"/><path id="ewGl2WPs3uy17" d="M184.9,154.64C184.9,154.64,148.17,139.56,145.46,140.91C142.75,142.26,135.41,147.68,135.41,147.68C135.41,147.68,118.2,165.68,95,160.44C95,160.44,87.07,156.57,87.26,145.36C87.26,145.36,63.1,158.31,55.56,166.82C48.02,175.33,40.86,182.87,40.86,182.87L44.54,243.77L51.11,303.7C51.11,303.7,48.79,337,44,341.41C39.21,345.82,33,384.33,40.13,446.97C47.26,509.61,32.59,530.3,41.13,535.9C49.67,541.5,114.6,537.84,152.13,539.58C189.66,541.32,213.04,530.88,211.13,528.17C209.22,525.46,200.56,428.41,206.94,401C213.32,373.59,208.49,315.93,208.49,315.93Z" fill="url(#ewGl2WPs3uy17-fill)" stroke="none" stroke-width="1"/><path id="ewGl2WPs3uy18" d="M184.68,150.32C184.68,150.32,147.94,135.24,145.24,136.59C142.54,137.94,135.18,143.36,135.18,143.36C135.18,143.36,117.98,161.36,94.78,156.12C94.78,156.12,86.85,152.25,87.04,141.04C87.04,141.04,62.87,154.04,55.33,162.5C47.79,170.96,40.64,178.5,40.64,178.5L44.31,239.41L50.89,299.34C50.89,299.34,48.57,332.59,43.73,337.04C38.89,341.49,32.73,379.96,39.87,442.6C47.01,505.24,32.33,525.93,40.87,531.54C49.41,537.15,114.34,533.47,151.87,535.21C189.4,536.95,212.77,526.51,210.87,523.81C208.97,521.11,200.43,424.04,206.81,396.59C213.19,369.14,208.36,311.52,208.36,311.52Z" fill="rgb(47,46,65)" stroke="none" stroke-width="1"/><g id="ewGl2WPs3uy19" transform="matrix(1 0 0 1 0.000026 0.000012)"><g id="ewGl2WPs3uy20" transform="matrix(1 0 0 1 0.000001 0.000001)"><path id="ewGl2WPs3uy21" d="M174,323.93C174,323.93,164,402.43,157,409.58C150,416.73,147.53,473.58,159.71,473.58C171.89,473.58,182.91,410.74,182.91,410.74L201.47,325.67Z" transform="matrix(0.999975 -0.007109 0.007109 0.999975 -2.830439 1.263581)" fill="rgb(254,189,202)" stroke="none" stroke-width="1"/></g></g><path id="ewGl2WPs3uy22" d="M85.3,779.83C85.3,779.83,110.44,762.83,123.78,779.83C123.78,779.83,129.38,817.72,123.78,821.98C118.18,826.24,79.89,833.38,79.11,821.98C78.33,810.58,81.05,805.35,81.05,805.35L85.3,789.88Z" fill="rgb(47,46,65)" stroke="none" stroke-width="1"/><path id="ewGl2WPs3uy23" style="isolation:isolate" d="M181.29,160.66L180,154C180,154,208.23,184.35,212.87,210.65C217.51,236.95,227.75,264.2,220.6,267.88C213.45,271.56,207.65,270.39,210.93,276.38C214.21,282.37,215.19,289.53,211.93,291.85C208.67,294.17,206.32,296.1,207.48,300.94C208.64,305.78,208.64,315.63,206.32,317.76C204,319.89,198.2,336.9,198.2,336.9C198.2,336.9,174.61,329.16,165.72,334.38C156.83,339.6,164.37,314.08,164.37,314.08C164.37,314.08,162.43,303.84,159.53,302.08C156.63,300.32,154.89,297.08,158.53,293.57C162.17,290.06,165.1,290.09,160.07,285.26C155.04,280.43,148.28,282.55,155.24,277.52C162.2,272.49,165.87,270.18,161.24,265.34C156.61,260.5,152.54,257.8,155.83,253.55C159.12,249.3,165.05,156.41,181.29,160.66Z" opacity="0.1" fill="rgb(0,0,0)" stroke="none" stroke-width="1"/><path id="ewGl2WPs3uy24" d="M178.1,151.48L184.68,150.32C184.68,150.32,212.91,180.67,217.55,206.96C222.19,233.25,232.43,260.52,225.28,264.19C218.13,267.86,212.33,266.71,215.61,272.7C218.89,278.69,219.87,285.85,216.61,288.17C213.35,290.49,211,292.42,212.16,297.25C213.32,302.08,213.32,311.95,211,314.07C208.68,316.19,202.88,333.21,202.88,333.21C202.88,333.21,179.29,325.48,170.4,330.7C161.51,335.92,169,310.4,169,310.4C169,310.4,167.06,300.15,164.16,298.4C161.26,296.65,159.52,293.4,163.16,289.9C166.8,286.4,169.73,286.42,164.7,281.58C159.67,276.74,152.91,278.88,159.87,273.85C166.83,268.82,170.5,266.5,165.87,261.67C161.24,256.84,157.17,254.13,160.46,249.88C163.75,245.63,161.86,147.22,178.1,151.48Z" fill="rgb(47,46,65)" stroke="none" stroke-width="1"/><g id="ewGl2WPs3uy25" style="isolation:isolate" opacity="0.1"><path id="ewGl2WPs3uy26" d="M102.2,9.39C103.85,4.6,98.56,4.56,97.07,4.09C96.82,4.02,97.57,4.02,97.32,4.09C95.85,4.6,91.2,4.89,85.56,12.09C79,20.39,69.87,42.91,65.21,58.33C60.55,73.75,51.38,128.25,51.38,128.25C50.070789,133.249003,47.865034,137.968844,44.87,142.18C40.2,148.35,30.33,152.72,23.55,158.27C16.77,163.82,13.55,180.89,10.69,188.71C8.31,195.19,3.42,199.52,1.14,201.83C0.72,202.26,20.7,222.92,21.14,223.37C21.14,223.37,24.35,229.94,37.79,253.99C38.95,254.36,38.52,254.46,38.95,254.36L65.54,248.92C66,248.82,68.9,248.48,69,248.04C69.76,244.53,72,228.83,77.1,215.96C87.23,190.05,93.6,115.52,93.6,115.52C93.6,115.52,71.5,71,88.76,27.05C88.76,26.97,88.7,27.11,88.76,27.05C97.16,17.89,100.3,14.94,102.2,9.39Z" fill="rgb(0,0,0)" stroke="none" stroke-width="1"/><path id="ewGl2WPs3uy27" d="M110.17,22.61C106.362861,21.530493,102.398304,21.114417,98.45,21.38C63.63,46.21,110.64,132.14,110.64,132.14C110.64,132.14,58.54,58,97.06,14.85C104.68,9.54,110.17,22.61,110.17,22.61Z" fill="rgb(0,0,0)" stroke="none" stroke-width="1"/><path id="ewGl2WPs3uy28" d="M110.25,18.68C110.25,18.68,100.37,14.04,102.38,10.34C103.8,7.74,101.81,4.68,100.5,3.1C100.05,2.54,100.28,2.71,100.98,2.5C105.55,1.1,115.29,-1.61,136.48,7.88C162.61,19.58,169.81,79.11,169.81,79.11C169.81,79.11,173.33,107.9,180.67,122.11C188.01,136.32,200,144,213,156.33C226,168.66,247.87,238.33,247.87,238.33C247.87,238.33,223.66,243.49,183.52,256.52C174.65,250.21,160.4,209.91,156.34,199.02C156.02,198.17,141.58,159.82,141.45,158.92C140.65,153.07,142.14,129.71,142.7,117.09C143.33,102.59,152.3,84.39,150.16,68.35C146.91,34.82,132.53,26.85,122.82,21.67C117.21,18.65,110.25,18.68,110.25,18.68Z" fill="rgb(0,0,0)" stroke="none" stroke-width="1"/><path id="ewGl2WPs3uy29" d="M110.06,10.16C115.78,10.16,124.36,12.74,131.06,17.56C138.830835,23.068135,144.839667,30.709425,148.36,39.56C152.13,49.47,155.36,59.82,155.25,77.62C155.19,89.92,148.99,111.68,146.99,116.62C143.54,125.2,149.15,121.17,129.99,180.19C131.88,127.19,131.86,127.19,139.2,108.5C150.62,79.39,132.62,43.17,132.62,43.17C132.62,43.17,128.38,31.17,123.29,26.5C118.2,21.83,113.86,19.72,109.41,20.03C104.96,20.34,104.34,10.16,110.06,10.16Z" fill="rgb(0,0,0)" stroke="none" stroke-width="1"/></g><path id="ewGl2WPs3uy30" d="M106.39,21.77C106.39,21.77,99.71,14.69,101.53,9.23C103.1,4.52,98.05,2.52,96.63,2.06C96.4013,1.973155,96.1487,1.973155,95.92,2.06C94.51,2.55,89.13,4.81,83.74,11.85C77.47,20.04,68.74,42.19,64.32,57.36C59.9,72.53,50.16,126.12,50.16,126.12C49.315513,130.375416,47.520869,134.385164,44.91,137.85C40.46,143.92,29.13,150.19,22.66,155.65C16.19,161.11,14.06,177.89,11.33,185.58C9.07,192,2.49,199.17,0.31,201.44C-0.081678,201.87097,-0.081678,202.52903,0.31,202.96C0.701678,203.39097,27.19,226.13,40,249.78C41.11,250.16,40.7,250.25,41.11,250.16L65.22,244.8C65.649647,244.705205,65.985205,244.369647,66.08,243.94C66.81,240.49,70.21,225.04,75.08,212.38C84.79,186.9,87.22,158.93,93.59,135.94C102.49,103.74,73.79,64.94,91.08,28.21C91.08,28.13,91.02,28.27,91.08,28.21C99.05,19.2,106.39,21.77,106.39,21.77Z" fill="rgb(150,86,44)" stroke="none" stroke-width="1"/><path id="ewGl2WPs3uy31" d="M106.38,21.77C106.38,21.77,99.63,21.33,95.09,25.77C89.03,31.7,85.09,41.85,85.73,58.1C87.1,91.22,108,134.2,108,134.2C108,134.2,53.93,63.86,90.69,21.44C97.78,14.33,106.38,21.77,106.38,21.77Z" fill="rgb(211,143,98)" stroke="none" stroke-width="1"/><path id="ewGl2WPs3uy32" d="M110.17,22.61C110.17,22.61,99.84,16.56,101.07,10.17C101.514327,7.6344,100.863945,5.029239,99.28,3C99.077092,2.745411,99.010817,2.407985,99.102354,2.095562C99.193892,1.78314,99.431784,1.534833,99.74,1.43C104.09,0.05,118.34,-2.97,138.38,7.7C162.65,20.64,171.15,77.76,171.15,77.76C171.15,77.76,173.55,104.11,180.55,118.1C187.55,132.09,201.84,143.53,214.28,155.67C226.72,167.81,248.51,238.26,248.51,238.26C248.51,238.26,221.51,244.33,184.51,252.26C176.04,246.05,148.17,169.56,144.3,158.85C143.999913,158.01453,143.788746,157.149751,143.67,156.27C142.91,150.52,140.99,127.54,141.52,115.14C142.12,100.88,151.59,82.98,149.52,67.2C144.36,12.06,110.17,22.61,110.17,22.61Z" fill="rgb(150,86,44)" stroke="none" stroke-width="1"/><path id="ewGl2WPs3uy33" d="M110.18,22.58C106.665609,20.813986,103.95281,17.779512,102.59,14.09C101.35,8.37,108.66,8,114.12,8C119.58,8,127.77,10.54,134.12,15.28C141.58356,20.744982,147.315311,28.243821,150.63,36.88C154.23,46.62,157.28,56.81,157.21,74.31C157.15,86.41,154.21,107.81,152.32,112.7C150.43,117.59,134.55,178.17,134.55,178.17C134.55,178.17,134.44,126.03,141.43,107.66C152.32,79.04,135.64,40.47,135.64,40.47C135.64,40.47,131.64,28.63,126.74,24.08C121.84,19.53,117.74,17.4,113.5,17.71C109.26,18.02,110.18,22.58,110.18,22.58Z" fill="rgb(211,143,98)" stroke="none" stroke-width="1"/></g></g><script><![CDATA[!function(t,n){"object"==typeof exports&&"undefined"!=typeof module?module.exports=n(require("vue")):"function"==typeof define&&define.amd?define(["vue"],n):((t="undefined"!=typeof globalThis?globalThis:t||self).__SVGATOR_PLAYER__=t.__SVGATOR_PLAYER__||{},t.__SVGATOR_PLAYER__["5c7f360c"]=n())}(this,(function(){"use strict";function t(t,n){var r=Object.keys(t);if(Object.getOwnPropertySymbols){var e=Object.getOwnPropertySymbols(t);n&&(e=e.filter((function(n){return Object.getOwnPropertyDescriptor(t,n).enumerable}))),r.push.apply(r,e)}return r}function n(n){for(var r=1;r<arguments.length;r++){var e=null!=arguments[r]?arguments[r]:{};r%2?t(Object(e),!0).forEach((function(t){u(n,t,e[t])})):Object.getOwnPropertyDescriptors?Object.defineProperties(n,Object.getOwnPropertyDescriptors(e)):t(Object(e)).forEach((function(t){Object.defineProperty(n,t,Object.getOwnPropertyDescriptor(e,t))}))}return n}function r(t){return(r="function"==typeof Symbol&&"symbol"==typeof Symbol.iterator?function(t){return typeof t}:function(t){return t&&"function"==typeof Symbol&&t.constructor===Symbol&&t!==Symbol.prototype?"symbol":typeof t})(t)}function e(t,n){if(!(t instanceof n))throw new TypeError("Cannot call a class as a function")}function i(t,n){for(var r=0;r<n.length;r++){var e=n[r];e.enumerable=e.enumerable||!1,e.configurable=!0,"value"in e&&(e.writable=!0),Object.defineProperty(t,e.key,e)}}function o(t,n,r){return n&&i(t.prototype,n),r&&i(t,r),t}function u(t,n,r){return n in t?Object.defineProperty(t,n,{value:r,enumerable:!0,configurable:!0,writable:!0}):t[n]=r,t}function a(t){return(a=Object.setPrototypeOf?Object.getPrototypeOf:function(t){return t.__proto__||Object.getPrototypeOf(t)})(t)}function l(t,n){return(l=Object.setPrototypeOf||function(t,n){return t.__proto__=n,t})(t,n)}function f(t,n){if(n&&("object"==typeof n||"function"==typeof n))return n;if(void 0!==n)throw new TypeError("Derived constructors may only return object or undefined");return function(t){if(void 0===t)throw new ReferenceError("this hasn't been initialised - super() hasn't been called");return t}(t)}function s(t){var n=function(){if("undefined"==typeof Reflect||!Reflect.construct)return!1;if(Reflect.construct.sham)return!1;if("function"==typeof Proxy)return!0;try{return Boolean.prototype.valueOf.call(Reflect.construct(Boolean,[],(function(){}))),!0}catch(t){return!1}}();return function(){var r,e=a(t);if(n){var i=a(this).constructor;r=Reflect.construct(e,arguments,i)}else r=e.apply(this,arguments);return f(this,r)}}function c(t,n,r){return(c="undefined"!=typeof Reflect&&Reflect.get?Reflect.get:function(t,n,r){var e=function(t,n){for(;!Object.prototype.hasOwnProperty.call(t,n)&&null!==(t=a(t)););return t}(t,n);if(e){var i=Object.getOwnPropertyDescriptor(e,n);return i.get?i.get.call(r):i.value}})(t,n,r||t)}var h=v(Math.pow(10,-6));function v(t){var n=arguments.length>1&&void 0!==arguments[1]?arguments[1]:6;if(Number.isInteger(t))return t;var r=Math.pow(10,n);return Math.round((+t+Number.EPSILON)*r)/r}function y(t,n){var r=arguments.length>2&&void 0!==arguments[2]?arguments[2]:h;return Math.abs(t-n)<r}var g=Math.PI/180;function d(t){return t}function p(t,n,r){var e=1-r;return 3*r*e*(t*e+n*r)+r*r*r}function m(){var t=arguments.length>0&&void 0!==arguments[0]?arguments[0]:0,n=arguments.length>1&&void 0!==arguments[1]?arguments[1]:0,r=arguments.length>2&&void 0!==arguments[2]?arguments[2]:1,e=arguments.length>3&&void 0!==arguments[3]?arguments[3]:1;return t<0||t>1||r<0||r>1?null:y(t,n)&&y(r,e)?d:function(i){if(i<=0)return t>0?i*n/t:0===n&&r>0?i*e/r:0;if(i>=1)return r<1?1+(i-1)*(e-1)/(r-1):1===r&&t<1?1+(i-1)*(n-1)/(t-1):1;for(var o,u=0,a=1;u<a;){var l=p(t,r,o=(u+a)/2);if(y(i,l))break;l<i?u=o:a=o}return p(n,e,o)}}function b(){return 1}function w(t){return 1===t?1:0}function x(){var t=arguments.length>0&&void 0!==arguments[0]?arguments[0]:1,n=arguments.length>1&&void 0!==arguments[1]?arguments[1]:0;if(1===t){if(0===n)return w;if(1===n)return b}var r=1/t;return function(t){return t>=1?1:(t+=n*r)-t%r}}var A="undefined"!=typeof window&&/(Mac|iPhone|iPod|iPad)/i.test(window.navigator.platform);Object.freeze({Meta:A?"Control":"Meta",Ctrl:"Control",Down:"ArrowDown",Up:"ArrowUp",Left:"ArrowLeft",Right:"ArrowRight",Esc:"Escape",Delete:"Backspace",Space:"Space"});var k=Math.sin,_=Math.cos,S=Math.acos,O=Math.asin,j=Math.tan,P=Math.atan2,M=Math.PI/180,E=180/Math.PI,R=Math.sqrt,I=function(){function t(){var n=arguments.length>0&&void 0!==arguments[0]?arguments[0]:1,r=arguments.length>1&&void 0!==arguments[1]?arguments[1]:0,i=arguments.length>2&&void 0!==arguments[2]?arguments[2]:0,o=arguments.length>3&&void 0!==arguments[3]?arguments[3]:1,u=arguments.length>4&&void 0!==arguments[4]?arguments[4]:0,a=arguments.length>5&&void 0!==arguments[5]?arguments[5]:0;e(this,t),this.m=[n,r,i,o,u,a],this.i=null,this.w=null,this.s=null}return o(t,[{key:"determinant",get:function(){var t=this.m;return t[0]*t[3]-t[1]*t[2]}},{key:"isIdentity",get:function(){if(null===this.i){var t=this.m;this.i=1===t[0]&&0===t[1]&&0===t[2]&&1===t[3]&&0===t[4]&&0===t[5]}return this.i}},{key:"point",value:function(t,n){var r=this.m;return{x:r[0]*t+r[2]*n+r[4],y:r[1]*t+r[3]*n+r[5]}}},{key:"translateSelf",value:function(){var t=arguments.length>0&&void 0!==arguments[0]?arguments[0]:0,n=arguments.length>1&&void 0!==arguments[1]?arguments[1]:0;if(!t&&!n)return this;var r=this.m;return r[4]+=r[0]*t+r[2]*n,r[5]+=r[1]*t+r[3]*n,this.w=this.s=this.i=null,this}},{key:"rotateSelf",value:function(){var t=arguments.length>0&&void 0!==arguments[0]?arguments[0]:0;if(t%=360){var n=k(t*=M),r=_(t),e=this.m,i=e[0],o=e[1];e[0]=i*r+e[2]*n,e[1]=o*r+e[3]*n,e[2]=e[2]*r-i*n,e[3]=e[3]*r-o*n,this.w=this.s=this.i=null}return this}},{key:"scaleSelf",value:function(){var t=arguments.length>0&&void 0!==arguments[0]?arguments[0]:1,n=arguments.length>1&&void 0!==arguments[1]?arguments[1]:1;if(1!==t||1!==n){var r=this.m;r[0]*=t,r[1]*=t,r[2]*=n,r[3]*=n,this.w=this.s=this.i=null}return this}},{key:"skewSelf",value:function(t,n){if(n%=360,(t%=360)||n){var r=this.m,e=r[0],i=r[1],o=r[2],u=r[3];t&&(t=j(t*M),r[2]+=e*t,r[3]+=i*t),n&&(n=j(n*M),r[0]+=o*n,r[1]+=u*n),this.w=this.s=this.i=null}return this}},{key:"resetSelf",value:function(){var t=arguments.length>0&&void 0!==arguments[0]?arguments[0]:1,n=arguments.length>1&&void 0!==arguments[1]?arguments[1]:0,r=arguments.length>2&&void 0!==arguments[2]?arguments[2]:0,e=arguments.length>3&&void 0!==arguments[3]?arguments[3]:1,i=arguments.length>4&&void 0!==arguments[4]?arguments[4]:0,o=arguments.length>5&&void 0!==arguments[5]?arguments[5]:0,u=this.m;return u[0]=t,u[1]=n,u[2]=r,u[3]=e,u[4]=i,u[5]=o,this.w=this.s=this.i=null,this}},{key:"recomposeSelf",value:function(){var t=arguments.length>0&&void 0!==arguments[0]?arguments[0]:null,n=arguments.length>1&&void 0!==arguments[1]?arguments[1]:null,r=arguments.length>2&&void 0!==arguments[2]?arguments[2]:null,e=arguments.length>3&&void 0!==arguments[3]?arguments[3]:null,i=arguments.length>4&&void 0!==arguments[4]?arguments[4]:null;return this.isIdentity||this.resetSelf(),t&&(t.x||t.y)&&this.translateSelf(t.x,t.y),n&&this.rotateSelf(n),r&&(r.x&&this.skewSelf(r.x,0),r.y&&this.skewSelf(0,r.y)),!e||1===e.x&&1===e.y||this.scaleSelf(e.x,e.y),i&&(i.x||i.y)&&this.translateSelf(i.x,i.y),this}},{key:"decompose",value:function(){var t=arguments.length>0&&void 0!==arguments[0]?arguments[0]:0,n=arguments.length>1&&void 0!==arguments[1]?arguments[1]:0,r=this.m,e=r[0]*r[0]+r[1]*r[1],i=[[r[0],r[1]],[r[2],r[3]]],o=R(e);if(0===o)return{origin:{x:v(r[4]),y:v(r[5])},translate:{x:v(t),y:v(n)},scale:{x:0,y:0},skew:{x:0,y:0},rotate:0};i[0][0]/=o,i[0][1]/=o;var u=r[0]*r[3]-r[1]*r[2]<0;u&&(o=-o);var a=i[0][0]*i[1][0]+i[0][1]*i[1][1];i[1][0]-=i[0][0]*a,i[1][1]-=i[0][1]*a;var l=R(i[1][0]*i[1][0]+i[1][1]*i[1][1]);if(0===l)return{origin:{x:v(r[4]),y:v(r[5])},translate:{x:v(t),y:v(n)},scale:{x:v(o),y:0},skew:{x:0,y:0},rotate:0};i[1][0]/=l,i[1][1]/=l,a/=l;var f=0;return i[1][1]<0?(f=S(i[1][1])*E,i[0][1]<0&&(f=360-f)):f=O(i[0][1])*E,u&&(f=-f),a=P(a,R(i[0][0]*i[0][0]+i[0][1]*i[0][1]))*E,u&&(a=-a),{origin:{x:v(r[4]),y:v(r[5])},translate:{x:v(t),y:v(n)},scale:{x:v(o),y:v(l)},skew:{x:v(a),y:0},rotate:v(f)}}},{key:"toString",value:function(){var t=arguments.length>0&&void 0!==arguments[0]?arguments[0]:" ";return null===this.s&&(this.s="matrix("+this.m.map((function(t){return v(t)})).join(t)+")"),this.s}}]),t}();function N(t,n,r){return t>=.5?r:n}function B(t,n,r){return 0===t||n===r?n:t*(r-n)+n}function F(t,n,r){var e=B(t,n,r);return e<=0?0:e}function T(t,n,r){var e=B(t,n,r);return e<=0?0:e>=1?1:e}function q(t,n,r){return 0===t?n:1===t?r:{x:B(t,n.x,r.x),y:B(t,n.y,r.y)}}function L(t,n,r){var e=function(t,n,r){return Math.round(B(t,n,r))}(t,n,r);return e<=0?0:e>=255?255:e}function C(t,n,r){return 0===t?n:1===t?r:{r:L(t,n.r,r.r),g:L(t,n.g,r.g),b:L(t,n.b,r.b),a:B(t,null==n.a?1:n.a,null==r.a?1:r.a)}}function D(t,n){for(var r=[],e=0;e<t;e++)r.push(n);return r}function z(t,n){if(--n<=0)return t;var r=(t=Object.assign([],t)).length;do{for(var e=0;e<r;e++)t.push(t[e])}while(--n>0);return t}var V,G=function(){function t(n){e(this,t),this.list=n,this.length=n.length}return o(t,[{key:"setAttribute",value:function(t,n){for(var r=this.list,e=0;e<this.length;e++)r[e].setAttribute(t,n)}},{key:"removeAttribute",value:function(t){for(var n=this.list,r=0;r<this.length;r++)n[r].removeAttribute(t)}},{key:"style",value:function(t,n){for(var r=this.list,e=0;e<this.length;e++)r[e].style[t]=n}}]),t}(),Y=/-./g,U=function(t,n){return n.toUpperCase()};function $(t){return"function"==typeof t?t:N}function Q(t){return t?"function"==typeof t?t:Array.isArray(t)?function(t){var n=arguments.length>1&&void 0!==arguments[1]?arguments[1]:d;if(!Array.isArray(t))return n;switch(t.length){case 1:return x(t[0])||n;case 2:return x(t[0],t[1])||n;case 4:return m(t[0],t[1],t[2],t[3])||n}return n}(t,null):function(t,n){var r=arguments.length>2&&void 0!==arguments[2]?arguments[2]:d;switch(t){case"linear":return d;case"steps":return x(n.steps||1,n.jump||0)||r;case"bezier":case"cubic-bezier":return m(n.x1||0,n.y1||0,n.x2||0,n.y2||0)||r}return r}(t.type,t.value,null):null}function H(t,n,r){var e=arguments.length>3&&void 0!==arguments[3]&&arguments[3],i=n.length-1;if(t<=n[0].t)return e?[0,0,n[0].v]:n[0].v;if(t>=n[i].t)return e?[i,1,n[i].v]:n[i].v;var o,u=n[0],a=null;for(o=1;o<=i;o++){if(!(t>n[o].t)){a=n[o];break}u=n[o]}return null==a?e?[i,1,n[i].v]:n[i].v:u.t===a.t?e?[o,1,a.v]:a.v:(t=(t-u.t)/(a.t-u.t),u.e&&(t=u.e(t)),e?[o,t,r(t,u.v,a.v)]:r(t,u.v,a.v))}function J(t,n){var r=arguments.length>2&&void 0!==arguments[2]?arguments[2]:null;return t&&t.length?"function"!=typeof n?null:("function"!=typeof r&&(r=null),function(e){var i=H(e,t,n);return null!=i&&r&&(i=r(i)),i}):null}function Z(t,n){return t.t-n.t}function K(t,n,e,i,o){var u,a="@"===e[0],l="#"===e[0],f=V[e],s=N;switch(a?(u=e.substr(1),e=u.replace(Y,U)):l&&(e=e.substr(1)),r(f)){case"function":if(s=f(i,o,H,Q,e,a,n,t),l)return s;break;case"string":s=J(i,$(f));break;case"object":if((s=J(i,$(f.i),f.f))&&"function"==typeof f.u)return f.u(n,s,e,a,t)}return s?function(t,n,r){if(arguments.length>3&&void 0!==arguments[3]&&arguments[3])return t instanceof G?function(e){return t.style(n,r(e))}:function(e){return t.style[n]=r(e)};if(Array.isArray(n)){var e=n.length;return function(i){var o=r(i);if(null==o)for(var u=0;u<e;u++)t[u].removeAttribute(n);else for(var a=0;a<e;a++)t[a].setAttribute(n,o)}}return function(e){var i=r(e);null==i?t.removeAttribute(n):t.setAttribute(n,i)}}(n,e,s,a):null}function W(t,n,e,i){if(!i||"object"!==r(i))return null;var o=null,u=null;return Array.isArray(i)?u=function(t){if(!t||!t.length)return null;for(var n=0;n<t.length;n++)t[n].e&&(t[n].e=Q(t[n].e));return t.sort(Z)}(i):(u=i.keys,o=i.data||null),u?K(t,n,e,u,o):null}function X(t,n,r){if(!r)return null;var e=[];for(var i in r)if(r.hasOwnProperty(i)){var o=W(t,n,i,r[i]);o&&e.push(o)}return e.length?e:null}function tt(t,n){if(!n.duration||n.duration<0)return null;var r=function(t,n){if(!n)return null;var r=[];if(Array.isArray(n))for(var e=n.length,i=0;i<e;i++){var o=n[i];if(2===o.length){var u=null;if("string"==typeof o[0])u=t.getElementById(o[0]);else if(Array.isArray(o[0])){u=[];for(var a=0;a<o[0].length;a++)if("string"==typeof o[0][a]){var l=t.getElementById(o[0][a]);l&&u.push(l)}u=u.length?1===u.length?u[0]:new G(u):null}if(u){var f=X(t,u,o[1]);f&&(r=r.concat(f))}}}else for(var s in n)if(n.hasOwnProperty(s)){var c=t.getElementById(s);if(c){var h=X(t,c,n[s]);h&&(r=r.concat(h))}}return r.length?r:null}(t,n.elements);return r?function(t,n){var r=arguments.length>2&&void 0!==arguments[2]?arguments[2]:1/0,e=arguments.length>3&&void 0!==arguments[3]?arguments[3]:1,i=arguments.length>4&&void 0!==arguments[4]&&arguments[4],o=arguments.length>5&&void 0!==arguments[5]?arguments[5]:1,u=t.length,a=e>0?n:0;i&&r%2==0&&(a=n-a);var l=null;return function(f,s){var c=f%n,h=1+(f-c)/n;s*=e,i&&h%2==0&&(s=-s);var v=!1;if(h>r)c=a,v=!0,-1===o&&(c=e>0?0:n);else if(s<0&&(c=n-c),c===l)return!1;l=c;for(var y=0;y<u;y++)t[y](c);return v}}(r,n.duration,n.iterations||1/0,n.direction||1,!!n.alternate,n.fill||1):null}function nt(t){return+("0x"+(t.replace(/[^0-9a-fA-F]+/g,"")||27))}function rt(t,n,r){return!t||!r||n>t.length?t:t.substring(0,n)+rt(t.substring(n+1),r,r)}function et(t){var n=arguments.length>1&&void 0!==arguments[1]?arguments[1]:27;return!t||t%n?t%n:et(t/n,n)}function it(t,n,r){if(t&&t.length){var e=nt(r),i=nt(n),o=et(e)+5,u=rt(t,et(e,5),o);return u=u.replace(/\x7c$/g,"==").replace(/\x2f$/g,"="),u=function(t,n,r){var e=+("0x"+t.substring(0,4));t=t.substring(4);for(var i=n%e+r%27,o=[],u=0;u<t.length;u+=2)if("|"!==t[u]){var a=+("0x"+t[u]+t[u+1])-i;o.push(a)}else{var l=+("0x"+t.substring(u+1,u+1+4))-i;u+=3,o.push(l)}return String.fromCharCode.apply(String,o)}(u=(u=atob(u)).replace(/[\x41-\x5A]/g,""),i,e),u=JSON.parse(u)}}Number.isInteger||(Number.isInteger=function(t){return"number"==typeof t&&isFinite(t)&&Math.floor(t)===t}),Number.EPSILON||(Number.EPSILON=2220446049250313e-31);var ot=function(){function t(n,r){var i=arguments.length>2&&void 0!==arguments[2]?arguments[2]:{};e(this,t),this._id=0,this._running=!1,this._rollingBack=!1,this._animations=n,this.duration=r.duration,this.alternate=r.alternate,this.fill=r.fill,this.iterations=r.iterations,this.direction=i.direction||1,this.speed=i.speed||1,this.fps=i.fps||100,this.offset=i.offset||0,this.rollbackStartOffset=0}return o(t,[{key:"_rollback",value:function(){var t=this,n=1/0,r=null;this.rollbackStartOffset=this.offset,this._rollingBack||(this._rollingBack=!0,this._running=!0);this._id=window.requestAnimationFrame((function e(i){if(t._rollingBack){null==r&&(r=i);var o=i-r,u=t.rollbackStartOffset-o,a=Math.round(u*t.speed);if(a>t.duration&&n!=1/0){var l=!!t.alternate&&a/t.duration%2>1,f=a%t.duration;a=(f+=l?t.duration:0)||t.duration}var s=t.fps?1e3/t.fps:0,c=Math.max(0,a);if(c<n-s){t.offset=c,n=c;for(var h=t._animations,v=h.length,y=0;y<v;y++)h[y](c,t.direction)}var g=!1;if(t.iterations>0&&-1===t.fill){var d=t.iterations*t.duration,p=d==a;a=p?0:a,t.offset=p?0:t.offset,g=a>d}a>0&&t.offset>=a&&!g?t._id=window.requestAnimationFrame(e):t.stop()}}))}},{key:"_start",value:function(){var t=this,n=arguments.length>0&&void 0!==arguments[0]?arguments[0]:0,r=-1/0,e=null,i={},o=function o(u){t._running=!0,null==e&&(e=u);var a=Math.round((u-e+n)*t.speed),l=t.fps?1e3/t.fps:0;if(a>r+l&&!t._rollingBack){t.offset=a,r=a;for(var f=t._animations,s=f.length,c=0,h=0;h<s;h++)i[h]?c++:(i[h]=f[h](a,t.direction),i[h]&&c++);if(c===s)return void t._stop()}t._id=window.requestAnimationFrame(o)};this._id=window.requestAnimationFrame(o)}},{key:"_stop",value:function(){this._id&&window.cancelAnimationFrame(this._id),this._running=!1,this._rollingBack=!1}},{key:"play",value:function(){!this._rollingBack&&this._running||(this._rollingBack=!1,this.rollbackStartOffset>this.duration&&(this.offset=this.rollbackStartOffset-(this.rollbackStartOffset-this.offset)%this.duration,this.rollbackStartOffset=0),this._start(this.offset))}},{key:"stop",value:function(){this._stop(),this.offset=0,this.rollbackStartOffset=0;var t=this.direction,n=this._animations;window.requestAnimationFrame((function(){for(var r=0;r<n.length;r++)n[r](0,t)}))}},{key:"reachedToEnd",value:function(){return this.iterations>0&&this.offset>=this.iterations*this.duration}},{key:"restart",value:function(){this._stop(),this.offset=0,this._start()}},{key:"pause",value:function(){this._stop()}},{key:"reverse",value:function(){this.direction=-this.direction}}],[{key:"build",value:function(r,e){return delete r.animationSettings,r.options=it(r.options,r.root,"5c7f360c"),r.animations.map((function(t){var e=it(t.s,r.root,"5c7f360c");for(var i in delete t.s,r.animationSettings||(r.animationSettings=n({},e)),e)e.hasOwnProperty(i)&&(t[i]=e[i])})),(r=function(t,n){if(V=n,!t||!t.root||!Array.isArray(t.animations))return null;for(var r=document.getElementsByTagName("svg"),e=!1,i=0;i<r.length;i++)if(r[i].id===t.root&&!r[i].svgatorAnimation){(e=r[i]).svgatorAnimation=!0;break}if(!e)return null;var o=t.animations.map((function(t){return tt(e,t)})).filter((function(t){return!!t}));return o.length?{element:e,animations:o,animationSettings:t.animationSettings,options:t.options||void 0}:null}(r,e))?{el:r.element,options:r.options||{},player:new t(r.animations,r.animationSettings,r.options)}:null}},{key:"push",value:function(t){return this.build(t)}},{key:"init",value:function(){var t=this,n=window.__SVGATOR_PLAYER__&&window.__SVGATOR_PLAYER__["5c7f360c"];Array.isArray(n)&&n.splice(0).forEach((function(n){return t.build(n)}))}}]),t}();function ut(t){return v(t)+""}function at(t){var n=arguments.length>1&&void 0!==arguments[1]?arguments[1]:" ";return t&&t.length?t.map(ut).join(n):""}function lt(t){return t?null==t.a||t.a>=1?"rgb("+t.r+","+t.g+","+t.b+")":"rgba("+t.r+","+t.g+","+t.b+","+t.a+")":"transparent"}function ft(t){return t?"url(#"+t+")":"none"}!function(){for(var t=0,n=["ms","moz","webkit","o"],r=0;r<n.length&&!window.requestAnimationFrame;++r)window.requestAnimationFrame=window[n[r]+"RequestAnimationFrame"],window.cancelAnimationFrame=window[n[r]+"CancelAnimationFrame"]||window[n[r]+"CancelRequestAnimationFrame"];window.requestAnimationFrame||(window.requestAnimationFrame=function(n){var r=Date.now(),e=Math.max(0,16-(r-t)),i=window.setTimeout((function(){n(r+e)}),e);return t=r+e,i},window.cancelAnimationFrame=window.clearTimeout)}();var st={f:null,i:function(t,n,r){return 0===t?n:1===t?r:{x:F(t,n.x,r.x),y:F(t,n.y,r.y)}},u:function(t,n){return function(r){var e=n(r);t.setAttribute("rx",ut(e.x)),t.setAttribute("ry",ut(e.y))}}},ct={f:null,i:function(t,n,r){return 0===t?n:1===t?r:{width:F(t,n.width,r.width),height:F(t,n.height,r.height)}},u:function(t,n){return function(r){var e=n(r);t.setAttribute("width",ut(e.width)),t.setAttribute("height",ut(e.height))}}};Object.freeze({M:2,L:2,Z:0,H:1,V:1,C:6,Q:4,T:2,S:4,A:7});var ht={},vt=null;function yt(t){var n=function(){if(vt)return vt;if("object"!==("undefined"==typeof document?"undefined":r(document))||!document.createElementNS)return{};var t=document.createElementNS("http://www.w3.org/2000/svg","svg");return t&&t.style?(t.style.position="absolute",t.style.opacity="0.01",t.style.zIndex="-9999",t.style.left="-9999px",t.style.width="1px",t.style.height="1px",vt={svg:t}):{}}().svg;if(!n)return function(t){return null};var e=document.createElementNS(n.namespaceURI,"path");e.setAttributeNS(null,"d",t),e.setAttributeNS(null,"fill","none"),e.setAttributeNS(null,"stroke","none"),n.appendChild(e);var i=e.getTotalLength();return function(t){var n=e.getPointAtLength(i*t);return{x:n.x,y:n.y}}}function gt(t){return ht[t]?ht[t]:ht[t]=yt(t)}function dt(t,n,r,e){if(!t||!e)return!1;var i=["M",t.x,t.y];if(n&&r&&(i.push("C"),i.push(n.x),i.push(n.y),i.push(r.x),i.push(r.y)),n?!r:r){var o=n||r;i.push("Q"),i.push(o.x),i.push(o.y)}return n||r||i.push("L"),i.push(e.x),i.push(e.y),i.join(" ")}function pt(t,n,r,e){var i=arguments.length>4&&void 0!==arguments[4]?arguments[4]:1,o=dt(t,n,r,e),u=gt(o);try{return u(i)}catch(t){return null}}function mt(t,n,r,e){var i=1-e;return i*i*t+2*i*e*n+e*e*r}function bt(t,n,r,e){return 2*(1-e)*(n-t)+2*e*(r-n)}function wt(t,n,r,e){var i=arguments.length>4&&void 0!==arguments[4]&&arguments[4],o=pt(t,n,null,r,e);return o||(o={x:mt(t.x,n.x,r.x,e),y:mt(t.y,n.y,r.y,e)}),i&&(o.a=xt(t,n,r,e)),o}function xt(t,n,r,e){return Math.atan2(bt(t.y,n.y,r.y,e),bt(t.x,n.x,r.x,e))}function At(t,n,r,e,i){var o=i*i;return i*o*(e-t+3*(n-r))+3*o*(t+r-2*n)+3*i*(n-t)+t}function kt(t,n,r,e,i){var o=1-i;return 3*(o*o*(n-t)+2*o*i*(r-n)+i*i*(e-r))}function _t(t,n,r,e,i){var o=arguments.length>5&&void 0!==arguments[5]&&arguments[5],u=pt(t,n,r,e,i);return u||(u={x:At(t.x,n.x,r.x,e.x,i),y:At(t.y,n.y,r.y,e.y,i)}),o&&(u.a=St(t,n,r,e,i)),u}function St(t,n,r,e,i){return Math.atan2(kt(t.y,n.y,r.y,e.y,i),kt(t.x,n.x,r.x,e.x,i))}function Ot(t,n,r){return t+(n-t)*r}function jt(t,n,r){var e=arguments.length>3&&void 0!==arguments[3]&&arguments[3],i={x:Ot(t.x,n.x,r),y:Ot(t.y,n.y,r)};return e&&(i.a=Pt(t,n)),i}function Pt(t,n){return Math.atan2(n.y-t.y,n.x-t.x)}function Mt(t,n,r){var e=arguments.length>3&&void 0!==arguments[3]&&arguments[3];if(Rt(n)){if(It(r))return wt(n,r.start,r,t,e)}else if(Rt(r)){if(n.end)return wt(n,n.end,r,t,e)}else{if(n.end)return r.start?_t(n,n.end,r.start,r,t,e):wt(n,n.end,r,t,e);if(r.start)return wt(n,r.start,r,t,e)}return jt(n,r,t,e)}function Et(t,n,r){var e=Mt(t,n,r,!0);return e.a=function(t){return arguments.length>1&&void 0!==arguments[1]&&arguments[1]?t+Math.PI:t}(e.a)/g,e}function Rt(t){return!t.type||"corner"===t.type}function It(t){return null!=t.start&&!Rt(t)}var Nt=new I;var Bt={f:ut,i:B},Ft={f:ut,i:T};function Tt(t,n,r){return t.map((function(t){return function(t,n,r){var e=t.v;if(!e||"g"!==e.t||e.s||!e.v||!e.r)return t;var i=r.getElementById(e.r),o=i&&i.querySelectorAll("stop")||[];return e.s=e.v.map((function(t,n){var r=o[n]&&o[n].getAttribute("offset");return{c:t,o:r=v(parseInt(r)/100)}})),delete e.v,t}(t,0,r)}))}var qt={gt:"gradientTransform",c:{x:"cx",y:"cy"},rd:"r",f:{x:"x1",y:"y1"},to:{x:"x2",y:"y2"}};function Lt(t,n,e,i,o,u,a,l){return Tt(t,0,l),n=function(t,n,r){for(var e,i,o,u=t.length-1,a={},l=0;l<=u;l++)(e=t[l]).e&&(e.e=n(e.e)),e.v&&"g"===(i=e.v).t&&i.r&&(o=r.getElementById(i.r))&&(a[i.r]={e:o,s:o.querySelectorAll("stop")});return a}(t,i,l),function(i){var o=e(i,t,Ct);if(!o)return"none";if("c"===o.t)return lt(o.v);if("g"===o.t){if(!n[o.r])return ft(o.r);var u=n[o.r];return function(t,n){for(var r=t.s,e=r.length;e<n.length;e++){var i=r[r.length-1].cloneNode();i.id=Vt(i.id),t.e.appendChild(i),r=t.s=t.e.querySelectorAll("stop")}for(var o=0,u=r.length,a=n.length-1;o<u;o++)r[o].setAttribute("stop-color",lt(n[Math.min(o,a)].c)),r[o].setAttribute("offset",n[Math.min(o,a)].o)}(u,o.s),Object.keys(qt).forEach((function(t){if(void 0!==o[t])if("object"!==r(qt[t])){var n,e="gt"===t?(n=o[t],Array.isArray(n)?"matrix("+n.join(" ")+")":""):o[t],i=qt[t];u.e.setAttribute(i,e)}else Object.keys(qt[t]).forEach((function(n){if(void 0!==o[t][n]){var r=o[t][n],e=qt[t][n];u.e.setAttribute(e,r)}}))})),ft(o.r)}return"none"}}function Ct(t,r,e){if(0===t)return r;if(1===t)return e;if(r&&e){var i=r.t;if(i===e.t)switch(r.t){case"c":return{t:i,v:C(t,r.v,e.v)};case"g":if(r.r===e.r){var o={t:i,s:Dt(t,r.s,e.s),r:r.r};return r.gt&&e.gt&&(o.gt=function(t,n,r){var e=n.length;if(e!==r.length)return N(t,n,r);for(var i=new Array(e),o=0;o<e;o++)i[o]=B(t,n[o],r[o]);return i}(t,r.gt,e.gt)),r.c?(o.c=q(t,r.c,e.c),o.rd=F(t,r.rd,e.rd)):r.f&&(o.f=q(t,r.f,e.f),o.to=q(t,r.to,e.to)),o}}if("c"===r.t&&"g"===e.t||"c"===e.t&&"g"===r.t){var u="c"===r.t?r:e,a="g"===r.t?n({},r):n({},e),l=a.s.map((function(t){return{c:u.v,o:t.o}}));return a.s="c"===r.t?Dt(t,l,a.s):Dt(t,a.s,l),a}}return N(t,r,e)}function Dt(t,n,r){if(n.length===r.length)return n.map((function(n,e){return zt(t,n,r[e])}));for(var e=Math.max(n.length,r.length),i=[],o=0;o<e;o++){var u=zt(t,n[Math.min(o,n.length-1)],r[Math.min(o,r.length-1)]);i.push(u)}return i}function zt(t,n,r){return{o:T(t,n.o,r.o||0),c:C(t,n.c,r.c||{})}}function Vt(t){return t.replace(/-fill-([0-9]+)$/,(function(t,n){return"-fill-"+(+n+1)}))}var Gt={fill:Lt,"fill-opacity":Ft,stroke:Lt,"stroke-opacity":Ft,"stroke-width":Bt,"stroke-dashoffset":{f:ut,i:B},"stroke-dasharray":{f:function(t){var n=arguments.length>1&&void 0!==arguments[1]?arguments[1]:" ";return t&&t.length>0&&(t=t.map((function(t){return v(t,4)}))),at(t,n)},i:function(t,n,r){var e,i,o,u=n.length,a=r.length;if(u!==a)if(0===u)n=D(u=a,0);else if(0===a)a=u,r=D(u,0);else{var l=(o=(e=u)*(i=a)/function(t,n){for(var r;n;)r=n,n=t%n,t=r;return t||1}(e,i))<0?-o:o;n=z(n,Math.floor(l/u)),r=z(r,Math.floor(l/a)),u=a=l}for(var f=[],s=0;s<u;s++)f.push(v(F(t,n[s],r[s])));return f}},opacity:Ft,transform:function(t,n,e,i){if(!(t=function(t,n){if(!t||"object"!==r(t))return null;var e=!1;for(var i in t)t.hasOwnProperty(i)&&(t[i]&&t[i].length?(t[i].forEach((function(t){t.e&&(t.e=n(t.e))})),e=!0):delete t[i]);return e?t:null}(t,i)))return null;var o=function(r,i,o){var u=arguments.length>3&&void 0!==arguments[3]?arguments[3]:null;return t[r]?e(i,t[r],o):n&&n[r]?n[r]:u};return n&&n.a&&t.o?function(n){var r=e(n,t.o,Et);return Nt.recomposeSelf(r,o("r",n,B,0)+r.a,o("k",n,q),o("s",n,q),o("t",n,q)).toString()}:function(t){return Nt.recomposeSelf(o("o",t,Mt,null),o("r",t,B,0),o("k",t,q),o("s",t,q),o("t",t,q)).toString()}},r:Bt,"#size":ct,"#radius":st,_:function(t,n){if(Array.isArray(t))for(var r=0;r<t.length;r++)this[t[r]]=n;else this[t]=n}},Yt=function(t){!function(t,n){if("function"!=typeof n&&null!==n)throw new TypeError("Super expression must either be null or a function");t.prototype=Object.create(n&&n.prototype,{constructor:{value:t,writable:!0,configurable:!0}}),n&&l(t,n)}(r,t);var n=s(r);function r(){return e(this,r),n.apply(this,arguments)}return o(r,null,[{key:"build",value:function(t){var n=c(a(r),"build",this).call(this,t,Gt);if(!n)return null;n.el,n.options,function(t,n,r){t.play()}(n.player)}}]),r}(ot);return Yt.init(),Yt}));
(function(s,i,o,w){w[o]=w[o]||{};w[o][s]=w[o][s]||[];w[o][s].push(i);})('5c7f360c',{"root":"ewGl2WPs3uy1","animations":[{"elements":{"ewGl2WPs3uy19":{"transform":{"data":{"t":{"x":-187.331159,"y":-324.110658}},"keys":{"o":[{"t":0,"v":{"x":187.331185,"y":324.11067,"type":"corner"},"e":[0.42,0,1,1]},{"t":1900,"v":{"x":190.375919,"y":323.17628,"type":"corner"}},{"t":2000,"v":{"x":176.315987,"y":398.755158,"type":"corner"}}],"r":[{"t":0,"v":0,"e":[0.39,0.575,0.565,1]},{"t":1900,"v":-148.281706},{"t":2000,"v":0}]}}},"ewGl2WPs3uy21":{"transform":{"data":{"o":{"x":187.331183,"y":324.110658,"type":"corner"},"r":-0.407343},"keys":{"t":[{"t":0,"v":{"x":-187.861562,"y":-324.190856}},{"t":1900,"v":{"x":-187.861562,"y":-324.190856}}]}}}},"s":"MGDA1M1NiZDY0YTZiN2QI0YTNiNmFiYjFKYjAQ2NEs3Yzc1NzI3MjcyFNmU2NGE2YWJUYjRhNB2E1YjZhYmIxYjA2NDLdjNzM2ZTY0YWJYYjZHhN2I0YTNiNmFiYjFiAMGI1NjQ3Y0U3MzZlNNjROYThJYWJhZVJhZTYY0UzdjNzM2ZTY0YTNPhZWI2YTdiNGIwYTNiVNmE3NjQ3Y0JhOFdhMQ2FlYjVhNzZlNjRiNWBIyYTdhN2E2NjQ3YzcKzYmY/"}],"options":"MBDAxMDg4MmY4MDgxNmXU3ZjgxMmY0NzJmNzkM3YzZlNzEyZjhh"},'__SVGATOR_PLAYER__',window)]]></script></svg>