<svg xmlns="http://www.w3.org/2000/svg" viewBox="0 0 130.13 121.38"><defs><style>.cls-1{font-size:16.79px;fill:#fff;font-family:OpenSans, Open Sans;}</style></defs><g id="Шар_2" data-name="Шар 2"><g id="Шар_3" data-name="Шар 3"><g id="icon_left"><text class="cls-1" transform="translate(20.66 79.84) rotate(-90.96)"> </text><text class="cls-1" transform="translate(20.58 75.72) rotate(-85.52)"> </text><text class="cls-1" transform="translate(20.49 71.81) rotate(-75.23)">U</text><text class="cls-1" transform="translate(23.74 60.53) rotate(-64.13)">I</text><text class="cls-1" transform="matrix(0.53, -0.85, 0.85, 0.53, 25.58, 56.56)">/</text><text class="cls-1" transform="matrix(0.69, -0.73, 0.73, 0.69, 28.26, 51.55)">U</text><text class="cls-1" transform="translate(36.26 43.16) rotate(-33.17)">X</text><text class="cls-1" transform="translate(44.12 38.23) rotate(-24.5)"> </text><text class="cls-1" transform="matrix(0.97, -0.25, 0.25, 0.97, 47.53, 36.25)">D</text><text class="cls-1" transform="matrix(1, -0.02, 0.02, 1, 58.82, 33.47)">E</text><text class="cls-1" transform="matrix(0.98, 0.18, -0.18, 0.98, 67.61, 33.27)">S</text><text class="cls-1" transform="matrix(0.94, 0.33, -0.33, 0.94, 76.25, 35.02)">I</text><text class="cls-1" transform="matrix(0.87, 0.49, -0.49, 0.87, 80.38, 36.06)">G</text><text class="cls-1" transform="matrix(0.71, 0.71, -0.71, 0.71, 90.47, 41.63)">N</text><text class="cls-1" transform="translate(98.92 50.23) rotate(58.59)">E</text><text class="cls-1" transform="translate(103.59 57.67) rotate(70.71)">R</text></g></g></g></svg>