<svg xmlns="http://www.w3.org/2000/svg" viewBox="0 0 135.9 124.07"><defs><style>.cls-1{font-size:16.79px;fill:#fff;font-family:OpenSans, Open Sans;}</style></defs><g id="Шар_2" data-name="Шар 2"><g id="Шар_3" data-name="Шар 3"><g id="icon_left"><text class="cls-1" transform="translate(20.51 79.96) rotate(-88.25)">L</text><text class="cls-1" transform="translate(20.6 71.78) rotate(-76.22)">A</text><text class="cls-1" transform="translate(23 62.02) rotate(-63.92)">Y</text><text class="cls-1" transform="matrix(0.64, -0.77, 0.77, 0.64, 26.6, 53.97)">O</text><text class="cls-1" transform="matrix(0.83, -0.56, 0.56, 0.83, 34.53, 44.45)">U</text><text class="cls-1" transform="matrix(0.93, -0.36, 0.36, 0.93, 44.18, 37.98)">T</text><text class="cls-1" transform="translate(52.54 34.92) rotate(-12.67)"> </text><text class="cls-1" transform="translate(56.25 33.68) rotate(-2.44)">D</text><text class="cls-1" transform="translate(67.89 33.29) rotate(11)">E</text><text class="cls-1" transform="translate(76.53 34.92) rotate(22.45)">S</text><text class="cls-1" transform="matrix(0.86, 0.51, -0.51, 0.86, 84.61, 38.41)">I</text><text class="cls-1" transform="matrix(0.75, 0.66, -0.66, 0.75, 88.45, 40.25)">G</text><text class="cls-1" transform="translate(97.2 47.81) rotate(56.87)">N</text><text class="cls-1" transform="matrix(0.34, 0.94, -0.94, 0.34, 103.67, 57.95)">E</text><text class="cls-1" transform="translate(106.73 66.22) rotate(82.58)">R</text></g></g></g></svg>