<svg xmlns="http://www.w3.org/2000/svg" viewBox="0 0 314.71 423.15"><defs><style>.cls-1{font-size:18px;fill:#6d3544;font-family:adineuePROCyr-LightWeb, adineue PRO Cyr;font-weight:300;}</style></defs><g id="Шар_2" data-name="Шар 2"><g id="Шар_3" data-name="Шар 3"><g id="arrow1"><text class="cls-1" transform="matrix(1.04, -0.39, 0.35, 0.94, 173.36, 29.75)">Y</text><text class="cls-1" transform="translate(182.63 26.25) rotate(-18.12) scale(1.11 1)">e</text><text class="cls-1" transform="matrix(1.07, -0.29, 0.26, 0.96, 194.01, 22.57)">s</text><text class="cls-1" transform="translate(203.5 20.06) rotate(-13.32) scale(1.11 1)">,</text><text class="cls-1" transform="matrix(1.08, -0.23, 0.21, 0.98, 206.94, 19.25)"> </text><text class="cls-1" transform="matrix(1.09, -0.2, 0.18, 0.98, 211.69, 18.23)">t</text><text class="cls-1" transform="translate(218.54 16.97) rotate(-7.21) scale(1.11 1)">h</text><text class="cls-1" transform="matrix(1.1, -0.06, 0.05, 1, 229, 15.63)">a</text><text class="cls-1" transform="matrix(1.11, 0.02, -0.02, 1, 241.28, 15.12)">t</text><text class="cls-1" transform="matrix(1.1, 0.07, -0.06, 1, 248.24, 15.31)">’</text><text class="cls-1" transform="translate(251.67 15.45) rotate(6.69) scale(1.11 1)">s</text><text class="cls-1" transform="translate(261.3 16.69) rotate(10.48) scale(1.11 1)"> </text><text class="cls-1" transform="translate(265.98 17.31) rotate(16.21) scale(1.11 1)">M</text><text class="cls-1" transform="translate(280.68 21.75) rotate(24.63) scale(1.11 1)">e</text><text class="cls-1" transform="matrix(0.96, 0.55, -0.5, 0.87, 291.37, 26.89)">!</text></g></g></g></svg>